SplineFontDB: 3.2
FontName: XBYas-BoldItalic
FullName: XB Yas Bold Italic
FamilyName: XB Yas
Weight: Bold
Copyright: Copyright (c) IRMUG (Iranian Mac User Group), 2007. All rights reserved.
Version: 4.000 2007 initial release
ItalicAngle: 0
UnderlinePosition: -600
UnderlineWidth: 60
Ascent: 1638
Descent: 410
InvalidEm: 0
sfntRevision: 0x00040000
LayerCount: 2
Layer: 0 1 "Back" 1
Layer: 1 1 "Fore" 0
XUID: [1021 420 722297922 4352419]
StyleMap: 0x0021
FSType: 0
OS2Version: 2
OS2_WeightWidthSlopeOnly: 0
OS2_UseTypoMetrics: 0
CreationTime: 1194658560
ModificationTime: 1662231137
PfmFamily: 17
TTFWeight: 700
TTFWidth: 5
LineGap: 0
VLineGap: 0
Panose: 2 0 8 3 2 0 0 9 0 3
OS2TypoAscent: 2100
OS2TypoAOffset: 0
OS2TypoDescent: -1000
OS2TypoDOffset: 0
OS2TypoLinegap: 0
OS2WinAscent: 2100
OS2WinAOffset: 0
OS2WinDescent: 1000
OS2WinDOffset: 0
HheadAscent: 2100
HheadAOffset: 0
HheadDescent: -1000
HheadDOffset: 0
OS2SubXSize: 1434
OS2SubYSize: 1331
OS2SubXOff: 0
OS2SubYOff: 293
OS2SupXSize: 1434
OS2SupYSize: 1331
OS2SupXOff: 0
OS2SupYOff: 928
OS2StrikeYSize: 102
OS2StrikeYPos: 512
OS2CapHeight: 1384
OS2XHeight: 944
OS2Vendor: 'pars'
OS2CodePages: 20000051.41000000
OS2UnicodeRanges: 00002003.80000000.00000008.00000000
Lookup: 6 0 0 "'ccmp' Glyph Composition/Decomposition in Arabic lookup 0" { "'ccmp' Glyph Composition/Decomposition in Arabic lookup 0 contextual 0"  "'ccmp' Glyph Composition/Decomposition in Arabic lookup 0 contextual 1"  "'ccmp' Glyph Composition/Decomposition in Arabic lookup 0 contextual 2"  "'ccmp' Glyph Composition/Decomposition in Arabic lookup 0 contextual 3"  "'ccmp' Glyph Composition/Decomposition in Arabic lookup 0 contextual 4"  "'ccmp' Glyph Composition/Decomposition in Arabic lookup 0 contextual 5"  } ['ccmp' ('arab' <'ARA ' 'DRI ' 'FAR ' 'KUR ' 'PAS ' 'URD ' 'UYG ' 'UZB ' 'dflt' > ) ]

StartChar: .notdef
Encoding: 65536 -1 0
Width: 1122
GlyphClass: 2
Flags: W
LayerCount: 2
Fore
SplineSet
504 299 m 0,0,1
 500 284 500 284 490.5 270.5 c 128,-1,2
 481 257 481 257 468 246.5 c 128,-1,3
 455 236 455 236 439.5 230 c 128,-1,4
 424 224 424 224 408 224 c 0,5,6
 378 224 378 224 362.5 246.5 c 128,-1,7
 347 269 347 269 355 299 c 0,8,9
 363 331 363 331 390.5 352.5 c 128,-1,10
 418 374 418 374 451 374 c 0,11,12
 481 374 481 374 496.5 352.5 c 128,-1,13
 512 331 512 331 504 299 c 0,0,1
741 780 m 0,14,15
 729 737 729 737 698.5 710 c 128,-1,16
 668 683 668 683 631 683 c 0,17,18
 599 683 599 683 584.5 701.5 c 128,-1,19
 570 720 570 720 578 749 c 0,20,21
 584 770 584 770 598 785 c 128,-1,22
 612 800 612 800 627 810.5 c 128,-1,23
 642 821 642 821 654.5 829 c 128,-1,24
 667 837 667 837 668 843 c 0,25,26
 673 863 673 863 657 875 c 128,-1,27
 641 887 641 887 611 887 c 0,28,29
 573 887 573 887 543.5 866 c 128,-1,30
 514 845 514 845 505 813 c 0,31,32
 501 795 501 795 504.5 769 c 128,-1,33
 508 743 508 743 514 718 c 128,-1,34
 520 693 520 693 526 673 c 128,-1,35
 532 653 532 653 532 648 c 0,36,37
 535 619 535 619 532.5 583.5 c 128,-1,38
 530 548 530 548 520 513 c 0,39,40
 514 492 514 492 507 470.5 c 128,-1,41
 500 449 500 449 491 424 c 1,42,-1
 452 424 l 1,43,-1
 457 442 l 1,44,-1
 469 472 l 2,45,46
 478 505 478 505 443 544 c 0,47,48
 388 610 388 610 382 620 c 0,49,50
 351 673 351 673 369 740 c 0,51,52
 380 781 380 781 404 815.5 c 128,-1,53
 428 850 428 850 460.5 875.5 c 128,-1,54
 493 901 493 901 531 915 c 128,-1,55
 569 929 569 929 608 929 c 0,56,57
 643 929 643 929 671.5 918.5 c 128,-1,58
 700 908 700 908 718.5 888.5 c 128,-1,59
 737 869 737 869 743.5 841.5 c 128,-1,60
 750 814 750 814 741 780 c 0,14,15
-60 31 m 1,61,-1
 800 31 l 1,62,-1
 1092 1122 l 1,63,-1
 232 1122 l 1,64,-1
 -60 31 l 1,61,-1
-100 0 m 1,65,-1
 209 1154 l 1,66,-1
 1131 1154 l 1,67,-1
 822 0 l 1,68,-1
 -100 0 l 1,65,-1
EndSplineSet
PairPos2: "'kern' Horizontal Kerning in Arabic lookup 0 subtable" afii57509 dx=0 dy=0 dh=0 dv=0 dx=0 dy=0 dh=250 dv=0
PairPos2: "'kern' Horizontal Kerning in Arabic lookup 0 subtable" uni06AB dx=0 dy=0 dh=0 dv=0 dx=0 dy=0 dh=250 dv=0
PairPos2: "'kern' Horizontal Kerning in Arabic lookup 0 subtable" uni06A9 dx=0 dy=0 dh=0 dv=0 dx=0 dy=0 dh=250 dv=0
PairPos2: "'kern' Horizontal Kerning in Arabic lookup 0 subtable" uniFB94 dx=0 dy=0 dh=0 dv=0 dx=0 dy=0 dh=250 dv=0
PairPos2: "'kern' Horizontal Kerning in Arabic lookup 0 subtable" uniFBD5 dx=0 dy=0 dh=0 dv=0 dx=0 dy=0 dh=250 dv=0
PairPos2: "'kern' Horizontal Kerning in Arabic lookup 0 subtable" uni06AB.ini dx=0 dy=0 dh=0 dv=0 dx=0 dy=0 dh=250 dv=0
PairPos2: "'kern' Horizontal Kerning in Arabic lookup 0 subtable" uniFB90 dx=0 dy=0 dh=0 dv=0 dx=0 dy=0 dh=250 dv=0
PairPos2: "'kern' Horizontal Kerning in Arabic lookup 0 subtable" uniFEDB dx=0 dy=0 dh=0 dv=0 dx=0 dy=0 dh=250 dv=0
PairPos2: "'kern' Horizontal Kerning in Arabic lookup 0 subtable" uni0671 dx=0 dy=0 dh=0 dv=0 dx=0 dy=0 dh=200 dv=0
PairPos2: "'kern' Horizontal Kerning in Arabic lookup 0 subtable" afii57410 dx=0 dy=0 dh=0 dv=0 dx=0 dy=0 dh=200 dv=0
PairPos2: "'kern' Horizontal Kerning in Arabic lookup 0 subtable" afii57415 dx=0 dy=0 dh=0 dv=0 dx=0 dy=0 dh=50 dv=0
EndChar

StartChar: exclam
Encoding: 33 33 4
Width: 667
GlyphClass: 2
Flags: W
LayerCount: 2
Fore
SplineSet
165 398 m 0,0,1
 194 398 194 398 219 386.5 c 128,-1,2
 244 375 244 375 260.5 352.5 c 128,-1,3
 277 330 277 330 282.5 298 c 128,-1,4
 288 266 288 266 277 225 c 0,5,6
 267 186 267 186 244.5 153.5 c 128,-1,7
 222 121 222 121 193.5 98.5 c 128,-1,8
 165 76 165 76 133.5 63.5 c 128,-1,9
 102 51 102 51 72 51 c 0,10,11
 43 51 43 51 18 63 c 128,-1,12
 -7 75 -7 75 -23.5 97.5 c 128,-1,13
 -40 120 -40 120 -45.5 152 c 128,-1,14
 -51 184 -51 184 -40 225 c 256,15,16
 -29 266 -29 266 -6 298.5 c 128,-1,17
 17 331 17 331 45.5 353 c 128,-1,18
 74 375 74 375 105.5 386.5 c 128,-1,19
 137 398 137 398 165 398 c 0,0,1
459 1495 m 0,20,21
 488 1495 488 1495 513 1482.5 c 128,-1,22
 538 1470 538 1470 556 1448 c 0,23,24
 574 1428 574 1428 576 1388 c 128,-1,25
 578 1348 578 1348 563 1292 c 0,26,27
 562 1289 562 1289 547.5 1260.5 c 128,-1,28
 533 1232 533 1232 510.5 1188.5 c 128,-1,29
 488 1145 488 1145 460.5 1091 c 128,-1,30
 433 1037 433 1037 406.5 984.5 c 128,-1,31
 380 932 380 932 357.5 885.5 c 128,-1,32
 335 839 335 839 322 809 c 0,33,34
 308 777 308 777 284 712.5 c 128,-1,35
 260 648 260 648 225 557 c 1,36,-1
 194 557 l 1,37,38
 203 617 203 617 208.5 660 c 128,-1,39
 214 703 214 703 218 734 c 128,-1,40
 222 765 222 765 224 785.5 c 128,-1,41
 226 806 226 806 227 820 c 0,42,43
 228 830 228 830 228.5 864 c 128,-1,44
 229 898 229 898 229 944.5 c 128,-1,45
 229 991 229 991 229.5 1043.5 c 128,-1,46
 230 1096 230 1096 231 1144 c 128,-1,47
 232 1192 232 1192 234 1228.5 c 128,-1,48
 236 1265 236 1265 240 1279 c 0,49,50
 258 1345 258 1345 284 1386.5 c 128,-1,51
 310 1428 310 1428 340 1452 c 128,-1,52
 370 1476 370 1476 401 1485 c 128,-1,53
 432 1494 432 1494 459 1495 c 0,20,21
EndSplineSet
PairPos2: "'kern' Horizontal Kerning in Arabic lookup 0 subtable" afii57509 dx=0 dy=0 dh=0 dv=0 dx=0 dy=0 dh=250 dv=0
PairPos2: "'kern' Horizontal Kerning in Arabic lookup 0 subtable" uni06AB dx=0 dy=0 dh=0 dv=0 dx=0 dy=0 dh=250 dv=0
PairPos2: "'kern' Horizontal Kerning in Arabic lookup 0 subtable" uni06A9 dx=0 dy=0 dh=0 dv=0 dx=0 dy=0 dh=250 dv=0
PairPos2: "'kern' Horizontal Kerning in Arabic lookup 0 subtable" uniFB94 dx=0 dy=0 dh=0 dv=0 dx=0 dy=0 dh=250 dv=0
PairPos2: "'kern' Horizontal Kerning in Arabic lookup 0 subtable" uniFBD5 dx=0 dy=0 dh=0 dv=0 dx=0 dy=0 dh=250 dv=0
PairPos2: "'kern' Horizontal Kerning in Arabic lookup 0 subtable" uni06AB.ini dx=0 dy=0 dh=0 dv=0 dx=0 dy=0 dh=250 dv=0
PairPos2: "'kern' Horizontal Kerning in Arabic lookup 0 subtable" uniFB90 dx=0 dy=0 dh=0 dv=0 dx=0 dy=0 dh=250 dv=0
PairPos2: "'kern' Horizontal Kerning in Arabic lookup 0 subtable" uniFEDB dx=0 dy=0 dh=0 dv=0 dx=0 dy=0 dh=250 dv=0
PairPos2: "'kern' Horizontal Kerning in Arabic lookup 0 subtable" uni0671 dx=0 dy=0 dh=0 dv=0 dx=0 dy=0 dh=200 dv=0
PairPos2: "'kern' Horizontal Kerning in Arabic lookup 0 subtable" afii57410 dx=0 dy=0 dh=0 dv=0 dx=0 dy=0 dh=200 dv=0
PairPos2: "'kern' Horizontal Kerning in Arabic lookup 0 subtable" afii57415 dx=0 dy=0 dh=0 dv=0 dx=0 dy=0 dh=50 dv=0
EndChar

StartChar: quotedbl
Encoding: 34 34 5
Width: 1137
GlyphClass: 2
Flags: W
LayerCount: 2
Fore
SplineSet
617 1285 m 0,0,1
 615 1279 615 1279 611.5 1268 c 128,-1,2
 608 1257 608 1257 604 1245.5 c 128,-1,3
 600 1234 600 1234 596 1223.5 c 128,-1,4
 592 1213 592 1213 589 1207 c 0,5,6
 544 1099 544 1099 496.5 988 c 128,-1,7
 449 877 449 877 403 769 c 1,8,-1
 367 769 l 1,9,-1
 416 1207 l 2,10,11
 418 1225 418 1225 421.5 1245.5 c 128,-1,12
 425 1266 425 1266 430 1285 c 0,13,14
 448 1354 448 1354 484 1384.5 c 128,-1,15
 520 1415 520 1415 559 1415 c 0,16,17
 608 1415 608 1415 620 1375 c 1,18,-1
 620 1376 l 1,19,20
 632 1342 632 1342 617 1285 c 0,0,1
782 769 m 1,21,-1
 746 769 l 1,22,-1
 794 1207 l 2,23,24
 803 1270 803 1270 807 1284 c 0,25,26
 824 1351 824 1351 859 1383 c 128,-1,27
 894 1415 894 1415 935 1415 c 256,28,29
 976 1415 976 1415 995.5 1385.5 c 128,-1,30
 1015 1356 1015 1356 997 1289 c 0,31,32
 993 1274 993 1274 983 1246.5 c 128,-1,33
 973 1219 973 1219 956 1178 c 2,34,-1
 782 769 l 1,21,-1
EndSplineSet
PairPos2: "'kern' Horizontal Kerning in Arabic lookup 0 subtable" afii57509 dx=0 dy=0 dh=0 dv=0 dx=0 dy=0 dh=250 dv=0
PairPos2: "'kern' Horizontal Kerning in Arabic lookup 0 subtable" uni06AB dx=0 dy=0 dh=0 dv=0 dx=0 dy=0 dh=250 dv=0
PairPos2: "'kern' Horizontal Kerning in Arabic lookup 0 subtable" uni06A9 dx=0 dy=0 dh=0 dv=0 dx=0 dy=0 dh=250 dv=0
PairPos2: "'kern' Horizontal Kerning in Arabic lookup 0 subtable" uniFB94 dx=0 dy=0 dh=0 dv=0 dx=0 dy=0 dh=250 dv=0
PairPos2: "'kern' Horizontal Kerning in Arabic lookup 0 subtable" uniFBD5 dx=0 dy=0 dh=0 dv=0 dx=0 dy=0 dh=250 dv=0
PairPos2: "'kern' Horizontal Kerning in Arabic lookup 0 subtable" uni06AB.ini dx=0 dy=0 dh=0 dv=0 dx=0 dy=0 dh=250 dv=0
PairPos2: "'kern' Horizontal Kerning in Arabic lookup 0 subtable" uniFB90 dx=0 dy=0 dh=0 dv=0 dx=0 dy=0 dh=250 dv=0
PairPos2: "'kern' Horizontal Kerning in Arabic lookup 0 subtable" uniFEDB dx=0 dy=0 dh=0 dv=0 dx=0 dy=0 dh=250 dv=0
PairPos2: "'kern' Horizontal Kerning in Arabic lookup 0 subtable" uni0671 dx=0 dy=0 dh=0 dv=0 dx=0 dy=0 dh=200 dv=0
PairPos2: "'kern' Horizontal Kerning in Arabic lookup 0 subtable" afii57410 dx=0 dy=0 dh=0 dv=0 dx=0 dy=0 dh=200 dv=0
PairPos2: "'kern' Horizontal Kerning in Arabic lookup 0 subtable" afii57415 dx=0 dy=0 dh=0 dv=0 dx=0 dy=0 dh=50 dv=0
EndChar

StartChar: numbersign
Encoding: 35 35 6
Width: 1024
GlyphClass: 2
Flags: W
LayerCount: 2
Fore
SplineSet
297 520 m 1,0,-1
 509 520 l 1,1,2
 513 528 513 528 527 554 c 128,-1,3
 541 580 541 580 559.5 615.5 c 128,-1,4
 578 651 578 651 598.5 691 c 128,-1,5
 619 731 619 731 637.5 766 c 128,-1,6
 656 801 656 801 669.5 827 c 128,-1,7
 683 853 683 853 687 861 c 1,8,-1
 477 861 l 1,9,10
 454 819 454 819 432 776 c 128,-1,11
 410 733 410 733 387 691 c 2,12,-1
 297 520 l 1,0,-1
-36 520 m 1,13,-1
 159 520 l 1,14,15
 180 561 180 561 204 605.5 c 128,-1,16
 228 650 228 650 250 691 c 2,17,-1
 340 861 l 1,18,-1
 148 861 l 1,19,-1
 196 970 l 1,20,-1
 392 970 l 1,21,22
 401 986 401 986 418.5 1018 c 128,-1,23
 436 1050 436 1050 458 1090.5 c 128,-1,24
 480 1131 480 1131 505 1175.5 c 128,-1,25
 530 1220 530 1220 552 1260.5 c 128,-1,26
 574 1301 574 1301 591.5 1333.5 c 128,-1,27
 609 1366 609 1366 618 1381 c 1,28,-1
 755 1381 l 1,29,-1
 530 970 l 1,30,-1
 741 970 l 1,31,32
 750 986 750 986 767.5 1018 c 128,-1,33
 785 1050 785 1050 807.5 1090.5 c 128,-1,34
 830 1131 830 1131 854.5 1175.5 c 128,-1,35
 879 1220 879 1220 901.5 1260.5 c 128,-1,36
 924 1301 924 1301 942 1333.5 c 128,-1,37
 960 1366 960 1366 968 1381 c 1,38,-1
 1104 1381 l 1,39,-1
 877 970 l 1,40,-1
 1070 970 l 1,41,-1
 1022 861 l 1,42,-1
 825 861 l 1,43,44
 802 819 802 819 780 776 c 128,-1,45
 758 733 758 733 735 691 c 2,46,-1
 644 520 l 1,47,-1
 838 520 l 1,48,-1
 791 411 l 1,49,-1
 584 411 l 1,50,51
 576 396 576 396 559.5 364 c 128,-1,52
 543 332 543 332 521.5 291.5 c 128,-1,53
 500 251 500 251 476.5 206 c 128,-1,54
 453 161 453 161 431.5 120 c 128,-1,55
 410 79 410 79 393 47 c 128,-1,56
 376 15 376 15 368 0 c 1,57,-1
 232 0 l 1,58,-1
 451 411 l 1,59,-1
 240 411 l 1,60,61
 214 362 214 362 185 310 c 128,-1,62
 156 258 156 258 128 207 c 2,63,-1
 16 0 l 1,64,-1
 -119 0 l 1,65,-1
 103 411 l 1,66,-1
 -84 411 l 1,67,-1
 -36 520 l 1,13,-1
EndSplineSet
PairPos2: "'kern' Horizontal Kerning in Arabic lookup 0 subtable" afii57509 dx=0 dy=0 dh=0 dv=0 dx=0 dy=0 dh=250 dv=0
PairPos2: "'kern' Horizontal Kerning in Arabic lookup 0 subtable" uni06AB dx=0 dy=0 dh=0 dv=0 dx=0 dy=0 dh=250 dv=0
PairPos2: "'kern' Horizontal Kerning in Arabic lookup 0 subtable" uni06A9 dx=0 dy=0 dh=0 dv=0 dx=0 dy=0 dh=250 dv=0
PairPos2: "'kern' Horizontal Kerning in Arabic lookup 0 subtable" uniFB94 dx=0 dy=0 dh=0 dv=0 dx=0 dy=0 dh=250 dv=0
PairPos2: "'kern' Horizontal Kerning in Arabic lookup 0 subtable" uniFBD5 dx=0 dy=0 dh=0 dv=0 dx=0 dy=0 dh=250 dv=0
PairPos2: "'kern' Horizontal Kerning in Arabic lookup 0 subtable" uni06AB.ini dx=0 dy=0 dh=0 dv=0 dx=0 dy=0 dh=250 dv=0
PairPos2: "'kern' Horizontal Kerning in Arabic lookup 0 subtable" uniFB90 dx=0 dy=0 dh=0 dv=0 dx=0 dy=0 dh=250 dv=0
PairPos2: "'kern' Horizontal Kerning in Arabic lookup 0 subtable" uniFEDB dx=0 dy=0 dh=0 dv=0 dx=0 dy=0 dh=250 dv=0
PairPos2: "'kern' Horizontal Kerning in Arabic lookup 0 subtable" uni0671 dx=0 dy=0 dh=0 dv=0 dx=0 dy=0 dh=200 dv=0
PairPos2: "'kern' Horizontal Kerning in Arabic lookup 0 subtable" afii57410 dx=0 dy=0 dh=0 dv=0 dx=0 dy=0 dh=200 dv=0
PairPos2: "'kern' Horizontal Kerning in Arabic lookup 0 subtable" afii57415 dx=0 dy=0 dh=0 dv=0 dx=0 dy=0 dh=50 dv=0
EndChar

StartChar: dollar
Encoding: 36 36 7
Width: 1024
GlyphClass: 2
Flags: W
LayerCount: 2
Fore
SplineSet
601 1315 m 1,0,-1
 585 1315 l 1,1,2
 542 1309 542 1309 502.5 1294 c 128,-1,3
 463 1279 463 1279 430.5 1255 c 128,-1,4
 398 1231 398 1231 375 1199.5 c 128,-1,5
 352 1168 352 1168 341 1130 c 0,6,7
 325 1071 325 1071 357.5 1019.5 c 128,-1,8
 390 968 390 968 479 930 c 1,9,-1
 498 930 l 1,10,-1
 601 1315 l 1,0,-1
631 288 m 0,11,12
 649 357 649 357 612.5 409.5 c 128,-1,13
 576 462 576 462 491 511 c 1,14,-1
 470 511 l 1,15,-1
 350 63 l 1,16,-1
 366 63 l 1,17,18
 472 77 472 77 539 136 c 128,-1,19
 606 195 606 195 631 288 c 0,11,12
32 404 m 1,20,21
 34 338 34 338 47.5 278 c 128,-1,22
 61 218 61 218 87.5 171.5 c 128,-1,23
 114 125 114 125 154 96 c 128,-1,24
 194 67 194 67 250 63 c 1,25,-1
 265 63 l 1,26,-1
 403 575 l 1,27,-1
 396 575 l 1,28,29
 330 613 330 613 279.5 652 c 128,-1,30
 229 691 229 691 199 726 c 0,31,32
 151 783 151 783 136.5 856 c 128,-1,33
 122 929 122 929 142 1007 c 0,34,35
 165 1091 165 1091 213 1157.5 c 128,-1,36
 261 1224 261 1224 324 1271 c 128,-1,37
 387 1318 387 1318 460.5 1345 c 128,-1,38
 534 1372 534 1372 606 1377 c 1,39,-1
 619 1377 l 1,40,-1
 662 1536 l 1,41,-1
 745 1536 l 1,42,-1
 703 1379 l 1,43,-1
 715 1379 l 1,44,45
 767 1371 767 1371 811.5 1361 c 128,-1,46
 856 1351 856 1351 888 1339 c 0,47,48
 919 1328 919 1328 948 1311.5 c 128,-1,49
 977 1295 977 1295 1003 1276 c 1,50,-1
 925 985 l 1,51,-1
 909 985 l 1,52,53
 906 1045 906 1045 897.5 1091.5 c 128,-1,54
 889 1138 889 1138 875 1173 c 0,55,56
 853 1229 853 1229 808.5 1263 c 128,-1,57
 764 1297 764 1297 702 1311 c 1,58,-1
 685 1311 l 1,59,-1
 567 873 l 1,60,-1
 574 873 l 1,61,62
 658 825 658 825 717 781.5 c 128,-1,63
 776 738 776 738 807 701 c 0,64,65
 856 641 856 641 871 565.5 c 128,-1,66
 886 490 886 490 862 402 c 0,67,68
 840 320 840 320 795.5 251 c 128,-1,69
 751 182 751 182 686 130.5 c 128,-1,70
 621 79 621 79 535.5 45.5 c 128,-1,71
 450 12 450 12 346 0 c 1,72,-1
 334 0 l 1,73,-1
 279 -204 l 1,74,-1
 196 -204 l 1,75,-1
 251 0 l 1,76,-1
 238 0 l 2,77,78
 197 2 197 2 166 6 c 128,-1,79
 135 10 135 10 110 15 c 0,80,81
 71 23 71 23 26 40 c 128,-1,82
 -19 57 -19 57 -70 83 c 1,83,-1
 16 406 l 1,84,-1
 32 404 l 1,20,21
EndSplineSet
PairPos2: "'kern' Horizontal Kerning in Arabic lookup 0 subtable" afii57509 dx=0 dy=0 dh=0 dv=0 dx=0 dy=0 dh=250 dv=0
PairPos2: "'kern' Horizontal Kerning in Arabic lookup 0 subtable" uni06AB dx=0 dy=0 dh=0 dv=0 dx=0 dy=0 dh=250 dv=0
PairPos2: "'kern' Horizontal Kerning in Arabic lookup 0 subtable" uni06A9 dx=0 dy=0 dh=0 dv=0 dx=0 dy=0 dh=250 dv=0
PairPos2: "'kern' Horizontal Kerning in Arabic lookup 0 subtable" uniFB94 dx=0 dy=0 dh=0 dv=0 dx=0 dy=0 dh=250 dv=0
PairPos2: "'kern' Horizontal Kerning in Arabic lookup 0 subtable" uniFBD5 dx=0 dy=0 dh=0 dv=0 dx=0 dy=0 dh=250 dv=0
PairPos2: "'kern' Horizontal Kerning in Arabic lookup 0 subtable" uni06AB.ini dx=0 dy=0 dh=0 dv=0 dx=0 dy=0 dh=250 dv=0
PairPos2: "'kern' Horizontal Kerning in Arabic lookup 0 subtable" uniFB90 dx=0 dy=0 dh=0 dv=0 dx=0 dy=0 dh=250 dv=0
PairPos2: "'kern' Horizontal Kerning in Arabic lookup 0 subtable" uniFEDB dx=0 dy=0 dh=0 dv=0 dx=0 dy=0 dh=250 dv=0
PairPos2: "'kern' Horizontal Kerning in Arabic lookup 0 subtable" uni0671 dx=0 dy=0 dh=0 dv=0 dx=0 dy=0 dh=200 dv=0
PairPos2: "'kern' Horizontal Kerning in Arabic lookup 0 subtable" afii57410 dx=0 dy=0 dh=0 dv=0 dx=0 dy=0 dh=200 dv=0
PairPos2: "'kern' Horizontal Kerning in Arabic lookup 0 subtable" afii57415 dx=0 dy=0 dh=0 dv=0 dx=0 dy=0 dh=50 dv=0
EndChar

StartChar: percent
Encoding: 37 37 8
Width: 2048
GlyphClass: 2
Flags: W
LayerCount: 2
Fore
SplineSet
1006 1164 m 0,0,1
 1012 1184 1012 1184 1014 1198.5 c 128,-1,2
 1016 1213 1016 1213 1015 1220 c 2,3,-1
 1015 1219 l 2,4,5
 1014 1224 1014 1224 1009 1227 c 128,-1,6
 1004 1230 1004 1230 995 1234.5 c 128,-1,7
 986 1239 986 1239 973 1247 c 128,-1,8
 960 1255 960 1255 943 1270 c 0,9,10
 921 1289 921 1289 904 1289 c 0,11,12
 856 1289 856 1289 794 1239.5 c 128,-1,13
 732 1190 732 1190 662 1099 c 0,14,15
 590 1003 590 1003 546 930.5 c 128,-1,16
 502 858 502 858 490 810 c 0,17,18
 476 759 476 759 495.5 728 c 128,-1,19
 515 697 515 697 572 697 c 0,20,21
 698 697 698 697 831 857 c 0,22,23
 969 1022 969 1022 1006 1164 c 0,0,1
1685 542 m 0,24,25
 1694 575 1694 575 1693.5 603 c 128,-1,26
 1693 631 1693 631 1682.5 651.5 c 128,-1,27
 1672 672 1672 672 1652 683.5 c 128,-1,28
 1632 695 1632 695 1602 695 c 0,29,30
 1543 695 1543 695 1477.5 646 c 128,-1,31
 1412 597 1412 597 1342 503 c 0,32,33
 1273 409 1273 409 1231.5 337.5 c 128,-1,34
 1190 266 1190 266 1177 223 c 0,35,36
 1161 163 1161 163 1187 134.5 c 128,-1,37
 1213 106 1213 106 1263 106 c 0,38,39
 1387 106 1387 106 1518 264 c 0,40,41
 1654 427 1654 427 1685 542 c 0,24,25
1727 549 m 0,42,43
 1681 379 1681 379 1517 195 c 0,44,45
 1351 9 1351 9 1165 9 c 0,46,47
 1118 9 1118 9 1077 28.5 c 128,-1,48
 1036 48 1036 48 1009.5 85 c 128,-1,49
 983 122 983 122 975 176 c 128,-1,50
 967 230 967 230 986 299 c 0,51,52
 1036 485 1036 485 1217 641 c 0,53,54
 1407 802 1407 802 1571 802 c 0,55,56
 1621 802 1621 802 1657.5 786 c 128,-1,57
 1694 770 1694 770 1715 738 c 128,-1,58
 1736 706 1736 706 1740 658.5 c 128,-1,59
 1744 611 1744 611 1727 549 c 0,42,43
1049 1154 m 1,60,61
 1025 1071 1025 1071 976.5 985 c 128,-1,62
 928 899 928 899 856 814 c 0,63,64
 673 602 673 602 494 602 c 0,65,66
 443 602 443 602 399.5 621.5 c 128,-1,67
 356 641 356 641 329 678.5 c 128,-1,68
 302 716 302 716 294.5 772 c 128,-1,69
 287 828 287 828 306 901 c 0,70,71
 355 1083 355 1083 536 1234 c 0,72,73
 724 1389 724 1389 879 1389 c 0,74,75
 948 1389 948 1389 1018 1332 c 0,76,77
 1089 1275 1089 1275 1202 1275 c 0,78,79
 1259 1275 1259 1275 1315 1287.5 c 128,-1,80
 1371 1300 1371 1300 1422 1320 c 128,-1,81
 1473 1340 1473 1340 1518 1365.5 c 128,-1,82
 1563 1391 1563 1391 1598 1417 c 1,83,-1
 1656 1417 l 1,84,-1
 465 -19 l 1,85,-1
 375 -19 l 1,86,-1
 1423 1247 l 1,87,-1
 1406 1247 l 1,88,89
 1375 1235 1375 1235 1341 1226 c 128,-1,90
 1307 1217 1307 1217 1273.5 1210 c 128,-1,91
 1240 1203 1240 1203 1208.5 1199.5 c 128,-1,92
 1177 1196 1177 1196 1151 1196 c 0,93,94
 1146 1196 1146 1196 1141.5 1196.5 c 128,-1,95
 1137 1197 1137 1197 1130 1198 c 128,-1,96
 1123 1199 1123 1199 1110.5 1201 c 128,-1,97
 1098 1203 1098 1203 1076 1206 c 2,98,-1
 1060 1206 l 1,99,-1
 1049 1154 l 1,60,61
EndSplineSet
Ligature2: "<17013,16013> Roman in Arabic lookup 72 subtable" zero fraction zero
Ligature2: "<17013,16013> Roman in Arabic lookup 72 subtable" zero slash zero
Ligature2: "Ligature Substitution lookup 42 subtable" zero fraction zero
Ligature2: "Ligature Substitution lookup 42 subtable" zero slash zero
PairPos2: "'kern' Horizontal Kerning in Arabic lookup 0 subtable" afii57509 dx=0 dy=0 dh=0 dv=0 dx=0 dy=0 dh=250 dv=0
PairPos2: "'kern' Horizontal Kerning in Arabic lookup 0 subtable" uni06AB dx=0 dy=0 dh=0 dv=0 dx=0 dy=0 dh=250 dv=0
PairPos2: "'kern' Horizontal Kerning in Arabic lookup 0 subtable" uni06A9 dx=0 dy=0 dh=0 dv=0 dx=0 dy=0 dh=250 dv=0
PairPos2: "'kern' Horizontal Kerning in Arabic lookup 0 subtable" uniFB94 dx=0 dy=0 dh=0 dv=0 dx=0 dy=0 dh=250 dv=0
PairPos2: "'kern' Horizontal Kerning in Arabic lookup 0 subtable" uniFBD5 dx=0 dy=0 dh=0 dv=0 dx=0 dy=0 dh=250 dv=0
PairPos2: "'kern' Horizontal Kerning in Arabic lookup 0 subtable" uni06AB.ini dx=0 dy=0 dh=0 dv=0 dx=0 dy=0 dh=250 dv=0
PairPos2: "'kern' Horizontal Kerning in Arabic lookup 0 subtable" uniFB90 dx=0 dy=0 dh=0 dv=0 dx=0 dy=0 dh=250 dv=0
PairPos2: "'kern' Horizontal Kerning in Arabic lookup 0 subtable" uniFEDB dx=0 dy=0 dh=0 dv=0 dx=0 dy=0 dh=250 dv=0
PairPos2: "'kern' Horizontal Kerning in Arabic lookup 0 subtable" uni0671 dx=0 dy=0 dh=0 dv=0 dx=0 dy=0 dh=200 dv=0
PairPos2: "'kern' Horizontal Kerning in Arabic lookup 0 subtable" afii57410 dx=0 dy=0 dh=0 dv=0 dx=0 dy=0 dh=200 dv=0
PairPos2: "'kern' Horizontal Kerning in Arabic lookup 0 subtable" afii57415 dx=0 dy=0 dh=0 dv=0 dx=0 dy=0 dh=50 dv=0
EndChar

StartChar: ampersand
Encoding: 38 38 9
Width: 1706
GlyphClass: 2
Flags: W
LayerCount: 2
Fore
SplineSet
952 977 m 0,0,1
 1024 1028 1024 1028 1042 1096 c 0,2,3
 1052 1133 1052 1133 1050.5 1176 c 128,-1,4
 1049 1219 1049 1219 1035 1263 c 0,5,6
 1022 1305 1022 1305 989 1327 c 128,-1,7
 956 1349 956 1349 907 1349 c 0,8,9
 880 1349 880 1349 855 1339.5 c 128,-1,10
 830 1330 830 1330 810 1314 c 128,-1,11
 790 1298 790 1298 775 1276.5 c 128,-1,12
 760 1255 760 1255 754 1231 c 0,13,14
 747 1203 747 1203 746.5 1176 c 128,-1,15
 746 1149 746 1149 754 1115 c 128,-1,16
 762 1081 762 1081 780 1037 c 128,-1,17
 798 993 798 993 828 930 c 1,18,-1
 844 930 l 1,19,20
 880 942 880 942 907.5 954 c 128,-1,21
 935 966 935 966 952 977 c 0,0,1
662 154 m 0,22,23
 682 163 682 163 708 177 c 128,-1,24
 734 191 734 191 768 210 c 1,25,-1
 770 210 l 1,26,27
 764 223 764 223 754 245.5 c 128,-1,28
 744 268 744 268 732 295 c 128,-1,29
 720 322 720 322 707 351 c 128,-1,30
 694 380 694 380 683 405 c 128,-1,31
 672 430 672 430 663.5 449.5 c 128,-1,32
 655 469 655 469 652 477 c 0,33,34
 644 500 644 500 633 528 c 128,-1,35
 622 556 622 556 608 589 c 2,36,-1
 550 736 l 1,37,-1
 531 736 l 1,38,39
 482 710 482 710 448.5 690 c 128,-1,40
 415 670 415 670 398 656 c 0,41,42
 338 603 338 603 318 533 c 0,43,44
 286 413 286 413 352 270 c 0,45,46
 417 130 417 130 548 130 c 0,47,48
 605 130 605 130 662 154 c 0,22,23
506 1094 m 0,49,50
 526 1169 526 1169 569 1229 c 128,-1,51
 612 1289 612 1289 673.5 1331 c 128,-1,52
 735 1373 735 1373 814 1396 c 128,-1,53
 893 1419 893 1419 984 1419 c 0,54,55
 1059 1419 1059 1419 1113.5 1400.5 c 128,-1,56
 1168 1382 1168 1382 1201 1349 c 128,-1,57
 1234 1316 1234 1316 1244 1270 c 128,-1,58
 1254 1224 1254 1224 1239 1169 c 0,59,60
 1210 1064 1210 1064 1111 991 c 128,-1,61
 1012 918 1012 918 858 868 c 1,62,-1
 853 868 l 1,63,64
 859 856 859 856 873.5 822 c 128,-1,65
 888 788 888 788 907 744 c 128,-1,66
 926 700 926 700 947.5 650 c 128,-1,67
 969 600 969 600 988.5 556 c 128,-1,68
 1008 512 1008 512 1022.5 478.5 c 128,-1,69
 1037 445 1037 445 1042 432 c 1,70,-1
 1064 432 l 1,71,72
 1121 486 1121 486 1162 527 c 128,-1,73
 1203 568 1203 568 1220 588 c 0,74,75
 1251 623 1251 623 1272.5 659.5 c 128,-1,76
 1294 696 1294 696 1301 722 c 0,77,78
 1313 768 1313 768 1287 786 c 0,79,80
 1269 799 1269 799 1190 810 c 1,81,-1
 1204 863 l 1,82,-1
 1598 863 l 1,83,-1
 1584 810 l 1,84,85
 1544 805 1544 805 1513.5 796 c 128,-1,86
 1483 787 1483 787 1466 775 c 0,87,88
 1444 759 1444 759 1404.5 716 c 128,-1,89
 1365 673 1365 673 1310 609 c 1,90,-1
 1310 610 l 1,91,92
 1299 596 1299 596 1289.5 585.5 c 128,-1,93
 1280 575 1280 575 1269 563.5 c 128,-1,94
 1258 552 1258 552 1243.5 537 c 128,-1,95
 1229 522 1229 522 1206.5 499 c 128,-1,96
 1184 476 1184 476 1151.5 443.5 c 128,-1,97
 1119 411 1119 411 1072 365 c 1,98,99
 1095 320 1095 320 1116 285.5 c 128,-1,100
 1137 251 1137 251 1160 227 c 128,-1,101
 1183 203 1183 203 1210.5 191 c 128,-1,102
 1238 179 1238 179 1274 179 c 0,103,104
 1299 179 1299 179 1322.5 186 c 128,-1,105
 1346 193 1346 193 1365.5 203.5 c 128,-1,106
 1385 214 1385 214 1400 226 c 128,-1,107
 1415 238 1415 238 1422 248 c 1,108,-1
 1439 236 l 1,109,110
 1359 127 1359 127 1301 78 c 0,111,112
 1174 -30 1174 -30 1050 -30 c 0,113,114
 963 -30 963 -30 892 32 c 0,115,116
 875 47 875 47 851 78.5 c 128,-1,117
 827 110 827 110 801 151 c 1,118,-1
 783 151 l 1,119,120
 717 111 717 111 658.5 79.5 c 128,-1,121
 600 48 600 48 561 33 c 0,122,123
 489 4 489 4 417 -12.5 c 128,-1,124
 345 -29 345 -29 281 -29 c 0,125,126
 215 -29 215 -29 155.5 -5.5 c 128,-1,127
 96 18 96 18 55 63 c 128,-1,128
 14 108 14 108 -1.5 173.5 c 128,-1,129
 -17 239 -17 239 6 323 c 0,130,131
 32 418 32 418 88 497.5 c 128,-1,132
 144 577 144 577 234 642 c 0,133,134
 287 680 287 680 359.5 720 c 128,-1,135
 432 760 432 760 526 799 c 1,136,-1
 531 799 l 1,137,138
 501 892 501 892 494 963 c 0,139,140
 491 994 491 994 493.5 1026.5 c 128,-1,141
 496 1059 496 1059 506 1094 c 0,49,50
EndSplineSet
PairPos2: "'kern' Horizontal Kerning in Arabic lookup 0 subtable" afii57509 dx=0 dy=0 dh=0 dv=0 dx=0 dy=0 dh=250 dv=0
PairPos2: "'kern' Horizontal Kerning in Arabic lookup 0 subtable" uni06AB dx=0 dy=0 dh=0 dv=0 dx=0 dy=0 dh=250 dv=0
PairPos2: "'kern' Horizontal Kerning in Arabic lookup 0 subtable" uni06A9 dx=0 dy=0 dh=0 dv=0 dx=0 dy=0 dh=250 dv=0
PairPos2: "'kern' Horizontal Kerning in Arabic lookup 0 subtable" uniFB94 dx=0 dy=0 dh=0 dv=0 dx=0 dy=0 dh=250 dv=0
PairPos2: "'kern' Horizontal Kerning in Arabic lookup 0 subtable" uniFBD5 dx=0 dy=0 dh=0 dv=0 dx=0 dy=0 dh=250 dv=0
PairPos2: "'kern' Horizontal Kerning in Arabic lookup 0 subtable" uni06AB.ini dx=0 dy=0 dh=0 dv=0 dx=0 dy=0 dh=250 dv=0
PairPos2: "'kern' Horizontal Kerning in Arabic lookup 0 subtable" uniFB90 dx=0 dy=0 dh=0 dv=0 dx=0 dy=0 dh=250 dv=0
PairPos2: "'kern' Horizontal Kerning in Arabic lookup 0 subtable" uniFEDB dx=0 dy=0 dh=0 dv=0 dx=0 dy=0 dh=250 dv=0
PairPos2: "'kern' Horizontal Kerning in Arabic lookup 0 subtable" uni0671 dx=0 dy=0 dh=0 dv=0 dx=0 dy=0 dh=200 dv=0
PairPos2: "'kern' Horizontal Kerning in Arabic lookup 0 subtable" afii57410 dx=0 dy=0 dh=0 dv=0 dx=0 dy=0 dh=200 dv=0
PairPos2: "'kern' Horizontal Kerning in Arabic lookup 0 subtable" afii57415 dx=0 dy=0 dh=0 dv=0 dx=0 dy=0 dh=50 dv=0
EndChar

StartChar: quotesingle
Encoding: 39 39 10
Width: 569
GlyphClass: 2
Flags: W
LayerCount: 2
Fore
SplineSet
468 1415 m 0,0,1
 513 1415 513 1415 527 1385 c 128,-1,2
 541 1355 541 1355 527 1299 c 0,3,4
 521 1278 521 1278 506.5 1238.5 c 128,-1,5
 492 1199 492 1199 472.5 1150.5 c 128,-1,6
 453 1102 453 1102 430 1048 c 128,-1,7
 407 994 407 994 385 942.5 c 128,-1,8
 363 891 363 891 343 845.5 c 128,-1,9
 323 800 323 800 309 769 c 1,10,-1
 273 769 l 1,11,12
 287 888 287 888 297 971.5 c 128,-1,13
 307 1055 307 1055 314 1111.5 c 128,-1,14
 321 1168 321 1168 325.5 1202 c 128,-1,15
 330 1236 330 1236 333 1255.5 c 128,-1,16
 336 1275 336 1275 337.5 1284 c 128,-1,17
 339 1293 339 1293 341 1299 c 0,18,19
 355 1353 355 1353 387.5 1384 c 128,-1,20
 420 1415 420 1415 468 1415 c 0,0,1
EndSplineSet
PairPos2: "'kern' Horizontal Kerning in Arabic lookup 0 subtable" afii57509 dx=0 dy=0 dh=0 dv=0 dx=0 dy=0 dh=250 dv=0
PairPos2: "'kern' Horizontal Kerning in Arabic lookup 0 subtable" uni06AB dx=0 dy=0 dh=0 dv=0 dx=0 dy=0 dh=250 dv=0
PairPos2: "'kern' Horizontal Kerning in Arabic lookup 0 subtable" uni06A9 dx=0 dy=0 dh=0 dv=0 dx=0 dy=0 dh=250 dv=0
PairPos2: "'kern' Horizontal Kerning in Arabic lookup 0 subtable" uniFB94 dx=0 dy=0 dh=0 dv=0 dx=0 dy=0 dh=250 dv=0
PairPos2: "'kern' Horizontal Kerning in Arabic lookup 0 subtable" uniFBD5 dx=0 dy=0 dh=0 dv=0 dx=0 dy=0 dh=250 dv=0
PairPos2: "'kern' Horizontal Kerning in Arabic lookup 0 subtable" uni06AB.ini dx=0 dy=0 dh=0 dv=0 dx=0 dy=0 dh=250 dv=0
PairPos2: "'kern' Horizontal Kerning in Arabic lookup 0 subtable" uniFB90 dx=0 dy=0 dh=0 dv=0 dx=0 dy=0 dh=250 dv=0
PairPos2: "'kern' Horizontal Kerning in Arabic lookup 0 subtable" uniFEDB dx=0 dy=0 dh=0 dv=0 dx=0 dy=0 dh=250 dv=0
PairPos2: "'kern' Horizontal Kerning in Arabic lookup 0 subtable" uni0671 dx=0 dy=0 dh=0 dv=0 dx=0 dy=0 dh=200 dv=0
PairPos2: "'kern' Horizontal Kerning in Arabic lookup 0 subtable" afii57410 dx=0 dy=0 dh=0 dv=0 dx=0 dy=0 dh=200 dv=0
PairPos2: "'kern' Horizontal Kerning in Arabic lookup 0 subtable" afii57415 dx=0 dy=0 dh=0 dv=0 dx=0 dy=0 dh=50 dv=0
EndChar

StartChar: parenleft
Encoding: 40 40 11
Width: 819
GlyphClass: 2
Flags: W
LayerCount: 2
Fore
SplineSet
286 -496 m 1,0,1
 276 -531 276 -531 242 -531 c 0,2,3
 231 -531 231 -531 224 -527 c 128,-1,4
 217 -523 217 -523 210 -515 c 0,5,6
 144 -449 144 -449 89.5 -348 c 128,-1,7
 35 -247 35 -247 9 -126 c 0,8,9
 -20 17 -20 17 -14.5 176.5 c 128,-1,10
 -9 336 -9 336 32 495 c 0,11,12
 52 567 52 567 83 644 c 128,-1,13
 114 721 114 721 153.5 798 c 128,-1,14
 193 875 193 875 240.5 951.5 c 128,-1,15
 288 1028 288 1028 339 1100 c 0,16,17
 439 1231 439 1231 543.5 1335 c 128,-1,18
 648 1439 648 1439 751 1505 c 0,19,20
 782 1525 782 1525 797 1525 c 0,21,22
 828 1525 828 1525 819 1495 c 0,23,24
 817 1485 817 1485 807 1471 c 128,-1,25
 797 1457 797 1457 783 1440 c 0,26,27
 569 1191 569 1191 428.5 953 c 128,-1,28
 288 715 288 715 229 495 c 0,29,30
 193 359 193 359 180 221 c 128,-1,31
 167 83 167 83 175 -55 c 1,32,33
 186 -175 186 -175 210.5 -273.5 c 128,-1,34
 235 -372 235 -372 276 -446 c 1,35,-1
 274 -447 l 1,36,-1
 286 -496 l 1,0,1
EndSplineSet
Substitution2: "Single Substitution lookup 34 subtable" zerowidthspace
PairPos2: "'kern' Horizontal Kerning in Arabic lookup 0 subtable" afii57509 dx=0 dy=0 dh=0 dv=0 dx=0 dy=0 dh=250 dv=0
PairPos2: "'kern' Horizontal Kerning in Arabic lookup 0 subtable" uni06AB dx=0 dy=0 dh=0 dv=0 dx=0 dy=0 dh=250 dv=0
PairPos2: "'kern' Horizontal Kerning in Arabic lookup 0 subtable" uni06A9 dx=0 dy=0 dh=0 dv=0 dx=0 dy=0 dh=250 dv=0
PairPos2: "'kern' Horizontal Kerning in Arabic lookup 0 subtable" uniFB94 dx=0 dy=0 dh=0 dv=0 dx=0 dy=0 dh=250 dv=0
PairPos2: "'kern' Horizontal Kerning in Arabic lookup 0 subtable" uniFBD5 dx=0 dy=0 dh=0 dv=0 dx=0 dy=0 dh=250 dv=0
PairPos2: "'kern' Horizontal Kerning in Arabic lookup 0 subtable" uni06AB.ini dx=0 dy=0 dh=0 dv=0 dx=0 dy=0 dh=250 dv=0
PairPos2: "'kern' Horizontal Kerning in Arabic lookup 0 subtable" uniFB90 dx=0 dy=0 dh=0 dv=0 dx=0 dy=0 dh=250 dv=0
PairPos2: "'kern' Horizontal Kerning in Arabic lookup 0 subtable" uniFEDB dx=0 dy=0 dh=0 dv=0 dx=0 dy=0 dh=250 dv=0
PairPos2: "'kern' Horizontal Kerning in Arabic lookup 0 subtable" uni0671 dx=0 dy=0 dh=0 dv=0 dx=0 dy=0 dh=200 dv=0
PairPos2: "'kern' Horizontal Kerning in Arabic lookup 0 subtable" afii57410 dx=0 dy=0 dh=0 dv=0 dx=0 dy=0 dh=200 dv=0
PairPos2: "'kern' Horizontal Kerning in Arabic lookup 0 subtable" afii57415 dx=0 dy=0 dh=0 dv=0 dx=0 dy=0 dh=50 dv=0
EndChar

StartChar: parenright
Encoding: 41 41 12
Width: 818
GlyphClass: 2
Flags: W
LayerCount: 2
Fore
SplineSet
299 1492 m 1,0,1
 308 1526 308 1526 338 1526 c 0,2,3
 359 1526 359 1526 375 1511 c 0,4,5
 447 1445 447 1445 496.5 1346.5 c 128,-1,6
 546 1248 546 1248 575 1119 c 1,7,8
 602 979 602 979 597.5 817.5 c 128,-1,9
 593 656 593 656 551 498 c 0,10,11
 510 346 510 346 433.5 196 c 128,-1,12
 357 46 357 46 244 -106 c 0,13,14
 145 -238 145 -238 39.5 -340.5 c 128,-1,15
 -66 -443 -66 -443 -166 -509 c 0,16,17
 -180 -519 -180 -519 -191.5 -525 c 128,-1,18
 -203 -531 -203 -531 -213 -531 c 0,19,20
 -241 -531 -241 -531 -233 -499 c 0,21,22
 -231 -491 -231 -491 -223 -477.5 c 128,-1,23
 -215 -464 -215 -464 -202 -448 c 0,24,25
 236 55 236 55 354 498 c 0,26,27
 391 636 391 636 403.5 773 c 128,-1,28
 416 910 416 910 406 1049 c 0,29,30
 397 1170 397 1170 371.5 1268 c 128,-1,31
 346 1366 346 1366 306 1441 c 1,32,-1
 299 1492 l 1,0,1
EndSplineSet
Substitution2: "Single Substitution lookup 34 subtable" zerowidthspace
PairPos2: "'kern' Horizontal Kerning in Arabic lookup 0 subtable" afii57509 dx=0 dy=0 dh=0 dv=0 dx=0 dy=0 dh=250 dv=0
PairPos2: "'kern' Horizontal Kerning in Arabic lookup 0 subtable" uni06AB dx=0 dy=0 dh=0 dv=0 dx=0 dy=0 dh=250 dv=0
PairPos2: "'kern' Horizontal Kerning in Arabic lookup 0 subtable" uni06A9 dx=0 dy=0 dh=0 dv=0 dx=0 dy=0 dh=250 dv=0
PairPos2: "'kern' Horizontal Kerning in Arabic lookup 0 subtable" uniFB94 dx=0 dy=0 dh=0 dv=0 dx=0 dy=0 dh=250 dv=0
PairPos2: "'kern' Horizontal Kerning in Arabic lookup 0 subtable" uniFBD5 dx=0 dy=0 dh=0 dv=0 dx=0 dy=0 dh=250 dv=0
PairPos2: "'kern' Horizontal Kerning in Arabic lookup 0 subtable" uni06AB.ini dx=0 dy=0 dh=0 dv=0 dx=0 dy=0 dh=250 dv=0
PairPos2: "'kern' Horizontal Kerning in Arabic lookup 0 subtable" uniFB90 dx=0 dy=0 dh=0 dv=0 dx=0 dy=0 dh=250 dv=0
PairPos2: "'kern' Horizontal Kerning in Arabic lookup 0 subtable" uniFEDB dx=0 dy=0 dh=0 dv=0 dx=0 dy=0 dh=250 dv=0
PairPos2: "'kern' Horizontal Kerning in Arabic lookup 0 subtable" uni0671 dx=0 dy=0 dh=0 dv=0 dx=0 dy=0 dh=200 dv=0
PairPos2: "'kern' Horizontal Kerning in Arabic lookup 0 subtable" afii57410 dx=0 dy=0 dh=0 dv=0 dx=0 dy=0 dh=200 dv=0
PairPos2: "'kern' Horizontal Kerning in Arabic lookup 0 subtable" afii57415 dx=0 dy=0 dh=0 dv=0 dx=0 dy=0 dh=50 dv=0
EndChar

StartChar: asterisk
Encoding: 42 42 13
Width: 1024
GlyphClass: 2
Flags: W
LayerCount: 2
Fore
SplineSet
538 985 m 1,0,-1
 531 985 l 1,1,2
 489 1008 489 1008 299 1041 c 0,3,4
 207 1058 207 1058 232 1146 c 0,5,6
 238 1168 238 1168 250.5 1186 c 128,-1,7
 263 1204 263 1204 279 1217 c 128,-1,8
 295 1230 295 1230 312 1237 c 128,-1,9
 329 1244 329 1244 343 1244 c 0,10,11
 403 1244 403 1244 429 1173 c 0,12,13
 472 1051 472 1051 550 1020 c 1,14,15
 569 1024 569 1024 578.5 1035 c 128,-1,16
 588 1046 588 1046 593 1061 c 0,17,18
 597 1076 597 1076 596.5 1094.5 c 128,-1,19
 596 1113 596 1113 593.5 1131 c 128,-1,20
 591 1149 591 1149 587.5 1165.5 c 128,-1,21
 584 1182 584 1182 583 1194 c 2,22,-1
 583 1193 l 1,23,24
 560 1262 560 1262 575 1315 c 0,25,26
 590 1371 590 1371 623.5 1395.5 c 128,-1,27
 657 1420 657 1420 693 1420 c 0,28,29
 726 1420 726 1420 744.5 1392 c 128,-1,30
 763 1364 763 1364 748 1307 c 0,31,32
 743 1287 743 1287 724.5 1259 c 128,-1,33
 706 1231 706 1231 680 1197 c 0,34,35
 664 1177 664 1177 644.5 1144.5 c 128,-1,36
 625 1112 625 1112 617 1081 c 0,37,38
 612 1060 612 1060 614 1042.5 c 128,-1,39
 616 1025 616 1025 630 1015 c 1,40,41
 653 1030 653 1030 677.5 1047.5 c 128,-1,42
 702 1065 702 1065 726 1084.5 c 128,-1,43
 750 1104 750 1104 772 1123 c 128,-1,44
 794 1142 794 1142 811 1160 c 0,45,46
 849 1199 849 1199 886 1224.5 c 128,-1,47
 923 1250 923 1250 947 1250 c 0,48,49
 985 1250 985 1250 1001.5 1221 c 128,-1,50
 1018 1192 1018 1192 1006 1148 c 0,51,52
 994 1102 994 1102 950.5 1074 c 128,-1,53
 907 1046 907 1046 837 1036 c 0,54,55
 759 1025 759 1025 702 1009.5 c 128,-1,56
 645 994 645 994 619 977 c 1,57,-1
 618 963 l 1,58,59
 657 933 657 933 837 910 c 0,60,61
 939 897 939 897 913 802 c 0,62,63
 907 781 907 781 896 763 c 128,-1,64
 885 745 885 745 870 731.5 c 128,-1,65
 855 718 855 718 837.5 710 c 128,-1,66
 820 702 820 702 802 702 c 0,67,68
 745 702 745 702 707 804 c 0,69,70
 690 853 690 853 660.5 884 c 128,-1,71
 631 915 631 915 593 928 c 1,72,73
 579 925 579 925 570.5 914 c 128,-1,74
 562 903 562 903 557 887 c 0,75,76
 553 871 553 871 552.5 851 c 128,-1,77
 552 831 552 831 554 811.5 c 128,-1,78
 556 792 556 792 559 775 c 128,-1,79
 562 758 562 758 564 747 c 0,80,81
 572 712 572 712 574.5 682.5 c 128,-1,82
 577 653 577 653 572 633 c 0,83,84
 557 576 557 576 523.5 551 c 128,-1,85
 490 526 490 526 450 526 c 0,86,87
 434 526 434 526 421.5 534 c 128,-1,88
 409 542 409 542 401 556 c 128,-1,89
 393 570 393 570 391.5 590 c 128,-1,90
 390 610 390 610 396 634 c 0,91,92
 409 680 409 680 468 754 c 0,93,94
 500 796 500 796 520 828.5 c 128,-1,95
 540 861 540 861 546 884 c 0,96,97
 549 894 549 894 546 904.5 c 128,-1,98
 543 915 543 915 519 932 c 1,99,100
 464 900 464 900 417 863.5 c 128,-1,101
 370 827 370 827 332 786 c 0,102,103
 250 698 250 698 206 698 c 0,104,105
 185 698 185 698 171 706.5 c 128,-1,106
 157 715 157 715 149 728.5 c 128,-1,107
 141 742 141 742 139.5 759.5 c 128,-1,108
 138 777 138 777 143 795 c 0,109,110
 158 853 158 853 203 882.5 c 128,-1,111
 248 912 248 912 306 914 c 0,112,113
 395 917 395 917 433 926 c 0,114,115
 454 931 454 931 478 942 c 128,-1,116
 502 953 502 953 528 970 c 1,117,-1
 534 970 l 1,118,-1
 538 985 l 1,0,-1
EndSplineSet
PairPos2: "'kern' Horizontal Kerning in Arabic lookup 0 subtable" afii57509 dx=0 dy=0 dh=0 dv=0 dx=0 dy=0 dh=250 dv=0
PairPos2: "'kern' Horizontal Kerning in Arabic lookup 0 subtable" uni06AB dx=0 dy=0 dh=0 dv=0 dx=0 dy=0 dh=250 dv=0
PairPos2: "'kern' Horizontal Kerning in Arabic lookup 0 subtable" uni06A9 dx=0 dy=0 dh=0 dv=0 dx=0 dy=0 dh=250 dv=0
PairPos2: "'kern' Horizontal Kerning in Arabic lookup 0 subtable" uniFB94 dx=0 dy=0 dh=0 dv=0 dx=0 dy=0 dh=250 dv=0
PairPos2: "'kern' Horizontal Kerning in Arabic lookup 0 subtable" uniFBD5 dx=0 dy=0 dh=0 dv=0 dx=0 dy=0 dh=250 dv=0
PairPos2: "'kern' Horizontal Kerning in Arabic lookup 0 subtable" uni06AB.ini dx=0 dy=0 dh=0 dv=0 dx=0 dy=0 dh=250 dv=0
PairPos2: "'kern' Horizontal Kerning in Arabic lookup 0 subtable" uniFB90 dx=0 dy=0 dh=0 dv=0 dx=0 dy=0 dh=250 dv=0
PairPos2: "'kern' Horizontal Kerning in Arabic lookup 0 subtable" uniFEDB dx=0 dy=0 dh=0 dv=0 dx=0 dy=0 dh=250 dv=0
PairPos2: "'kern' Horizontal Kerning in Arabic lookup 0 subtable" uni0671 dx=0 dy=0 dh=0 dv=0 dx=0 dy=0 dh=200 dv=0
PairPos2: "'kern' Horizontal Kerning in Arabic lookup 0 subtable" afii57410 dx=0 dy=0 dh=0 dv=0 dx=0 dy=0 dh=200 dv=0
PairPos2: "'kern' Horizontal Kerning in Arabic lookup 0 subtable" afii57415 dx=0 dy=0 dh=0 dv=0 dx=0 dy=0 dh=50 dv=0
EndChar

StartChar: plus
Encoding: 43 43 14
Width: 1050
GlyphClass: 2
Flags: W
LayerCount: 2
Fore
SplineSet
-22 641 m 1,0,-1
 406 641 l 1,1,-1
 520 1067 l 1,2,-1
 701 1067 l 1,3,-1
 587 641 l 1,4,-1
 1015 641 l 1,5,-1
 958 428 l 1,6,-1
 530 428 l 1,7,-1
 416 0 l 1,8,-1
 235 0 l 1,9,-1
 349 428 l 1,10,-1
 -79 428 l 1,11,-1
 -22 641 l 1,0,-1
EndSplineSet
PairPos2: "'kern' Horizontal Kerning in Arabic lookup 0 subtable" afii57509 dx=0 dy=0 dh=0 dv=0 dx=0 dy=0 dh=250 dv=0
PairPos2: "'kern' Horizontal Kerning in Arabic lookup 0 subtable" uni06AB dx=0 dy=0 dh=0 dv=0 dx=0 dy=0 dh=250 dv=0
PairPos2: "'kern' Horizontal Kerning in Arabic lookup 0 subtable" uni06A9 dx=0 dy=0 dh=0 dv=0 dx=0 dy=0 dh=250 dv=0
PairPos2: "'kern' Horizontal Kerning in Arabic lookup 0 subtable" uniFB94 dx=0 dy=0 dh=0 dv=0 dx=0 dy=0 dh=250 dv=0
PairPos2: "'kern' Horizontal Kerning in Arabic lookup 0 subtable" uniFBD5 dx=0 dy=0 dh=0 dv=0 dx=0 dy=0 dh=250 dv=0
PairPos2: "'kern' Horizontal Kerning in Arabic lookup 0 subtable" uni06AB.ini dx=0 dy=0 dh=0 dv=0 dx=0 dy=0 dh=250 dv=0
PairPos2: "'kern' Horizontal Kerning in Arabic lookup 0 subtable" uniFB90 dx=0 dy=0 dh=0 dv=0 dx=0 dy=0 dh=250 dv=0
PairPos2: "'kern' Horizontal Kerning in Arabic lookup 0 subtable" uniFEDB dx=0 dy=0 dh=0 dv=0 dx=0 dy=0 dh=250 dv=0
PairPos2: "'kern' Horizontal Kerning in Arabic lookup 0 subtable" uni0671 dx=0 dy=0 dh=0 dv=0 dx=0 dy=0 dh=200 dv=0
PairPos2: "'kern' Horizontal Kerning in Arabic lookup 0 subtable" afii57410 dx=0 dy=0 dh=0 dv=0 dx=0 dy=0 dh=200 dv=0
PairPos2: "'kern' Horizontal Kerning in Arabic lookup 0 subtable" afii57415 dx=0 dy=0 dh=0 dv=0 dx=0 dy=0 dh=50 dv=0
EndChar

StartChar: comma
Encoding: 44 44 15
Width: 512
GlyphClass: 2
Flags: W
LayerCount: 2
Fore
SplineSet
-184 -321 m 1,0,1
 -108 -277 -108 -277 -55 -240 c 128,-1,2
 -2 -203 -2 -203 33 -171 c 128,-1,3
 68 -139 68 -139 87.5 -110.5 c 128,-1,4
 107 -82 107 -82 114 -55 c 0,5,6
 119 -36 119 -36 103.5 -27.5 c 128,-1,7
 88 -19 88 -19 63 -13.5 c 128,-1,8
 38 -8 38 -8 9 -1.5 c 128,-1,9
 -20 5 -20 5 -42 20.5 c 128,-1,10
 -64 36 -64 36 -74 65.5 c 128,-1,11
 -84 95 -84 95 -70 145 c 0,12,13
 -58 189 -58 189 -36.5 221.5 c 128,-1,14
 -15 254 -15 254 12 275.5 c 128,-1,15
 39 297 39 297 70 308 c 128,-1,16
 101 319 101 319 131 319 c 0,17,18
 170 319 170 319 201 304 c 128,-1,19
 232 289 232 289 250.5 259 c 128,-1,20
 269 229 269 229 273 184.5 c 128,-1,21
 277 140 277 140 261 81 c 0,22,23
 238 -5 238 -5 186.5 -79.5 c 128,-1,24
 135 -154 135 -154 54 -220 c 0,25,26
 4 -260 4 -260 -52.5 -294.5 c 128,-1,27
 -109 -329 -109 -329 -173 -361 c 1,28,-1
 -184 -321 l 1,0,1
EndSplineSet
PairPos2: "'kern' Horizontal Kerning in Arabic lookup 0 subtable" afii57509 dx=0 dy=0 dh=0 dv=0 dx=0 dy=0 dh=250 dv=0
PairPos2: "'kern' Horizontal Kerning in Arabic lookup 0 subtable" uni06AB dx=0 dy=0 dh=0 dv=0 dx=0 dy=0 dh=250 dv=0
PairPos2: "'kern' Horizontal Kerning in Arabic lookup 0 subtable" uni06A9 dx=0 dy=0 dh=0 dv=0 dx=0 dy=0 dh=250 dv=0
PairPos2: "'kern' Horizontal Kerning in Arabic lookup 0 subtable" uniFB94 dx=0 dy=0 dh=0 dv=0 dx=0 dy=0 dh=250 dv=0
PairPos2: "'kern' Horizontal Kerning in Arabic lookup 0 subtable" uniFBD5 dx=0 dy=0 dh=0 dv=0 dx=0 dy=0 dh=250 dv=0
PairPos2: "'kern' Horizontal Kerning in Arabic lookup 0 subtable" uni06AB.ini dx=0 dy=0 dh=0 dv=0 dx=0 dy=0 dh=250 dv=0
PairPos2: "'kern' Horizontal Kerning in Arabic lookup 0 subtable" uniFB90 dx=0 dy=0 dh=0 dv=0 dx=0 dy=0 dh=250 dv=0
PairPos2: "'kern' Horizontal Kerning in Arabic lookup 0 subtable" uniFEDB dx=0 dy=0 dh=0 dv=0 dx=0 dy=0 dh=250 dv=0
PairPos2: "'kern' Horizontal Kerning in Arabic lookup 0 subtable" uni0671 dx=0 dy=0 dh=0 dv=0 dx=0 dy=0 dh=200 dv=0
PairPos2: "'kern' Horizontal Kerning in Arabic lookup 0 subtable" afii57410 dx=0 dy=0 dh=0 dv=0 dx=0 dy=0 dh=200 dv=0
PairPos2: "'kern' Horizontal Kerning in Arabic lookup 0 subtable" afii57415 dx=0 dy=0 dh=0 dv=0 dx=0 dy=0 dh=50 dv=0
EndChar

StartChar: hyphen
Encoding: 45 45 16
AltUni2: 0000ad.ffffffff.0 002212.ffffffff.0
Width: 1050
GlyphClass: 2
Flags: W
LayerCount: 2
Fore
SplineSet
91 641 m 1,0,-1
 901 641 l 1,1,-1
 844 428 l 1,2,-1
 34 428 l 1,3,-1
 91 641 l 1,0,-1
EndSplineSet
Substitution2: "<17011,16011>  in Arabic lookup 68 nested-substitutions 0 subtable" hyphenlow
Substitution2: "<17010,16010>  in Arabic lookup 66 nested-substitutions 0 subtable" hyphenlow
Substitution2: "Single Substitution lookup 34 subtable" hyphenlow
PairPos2: "'kern' Horizontal Kerning in Arabic lookup 0 subtable" afii57509 dx=0 dy=0 dh=0 dv=0 dx=0 dy=0 dh=250 dv=0
PairPos2: "'kern' Horizontal Kerning in Arabic lookup 0 subtable" uni06AB dx=0 dy=0 dh=0 dv=0 dx=0 dy=0 dh=250 dv=0
PairPos2: "'kern' Horizontal Kerning in Arabic lookup 0 subtable" uni06A9 dx=0 dy=0 dh=0 dv=0 dx=0 dy=0 dh=250 dv=0
PairPos2: "'kern' Horizontal Kerning in Arabic lookup 0 subtable" uniFB94 dx=0 dy=0 dh=0 dv=0 dx=0 dy=0 dh=250 dv=0
PairPos2: "'kern' Horizontal Kerning in Arabic lookup 0 subtable" uniFBD5 dx=0 dy=0 dh=0 dv=0 dx=0 dy=0 dh=250 dv=0
PairPos2: "'kern' Horizontal Kerning in Arabic lookup 0 subtable" uni06AB.ini dx=0 dy=0 dh=0 dv=0 dx=0 dy=0 dh=250 dv=0
PairPos2: "'kern' Horizontal Kerning in Arabic lookup 0 subtable" uniFB90 dx=0 dy=0 dh=0 dv=0 dx=0 dy=0 dh=250 dv=0
PairPos2: "'kern' Horizontal Kerning in Arabic lookup 0 subtable" uniFEDB dx=0 dy=0 dh=0 dv=0 dx=0 dy=0 dh=250 dv=0
PairPos2: "'kern' Horizontal Kerning in Arabic lookup 0 subtable" uni0671 dx=0 dy=0 dh=0 dv=0 dx=0 dy=0 dh=200 dv=0
PairPos2: "'kern' Horizontal Kerning in Arabic lookup 0 subtable" afii57410 dx=0 dy=0 dh=0 dv=0 dx=0 dy=0 dh=200 dv=0
PairPos2: "'kern' Horizontal Kerning in Arabic lookup 0 subtable" afii57415 dx=0 dy=0 dh=0 dv=0 dx=0 dy=0 dh=50 dv=0
EndChar

StartChar: period
Encoding: 46 46 17
Width: 560
GlyphClass: 2
Flags: W
LayerCount: 2
Fore
SplineSet
230 264 m 0,0,1
 223 239 223 239 207 215 c 128,-1,2
 191 191 191 191 169.5 172.5 c 128,-1,3
 148 154 148 154 121.5 143 c 128,-1,4
 95 132 95 132 68 132 c 0,5,6
 43 132 43 132 21.5 142 c 128,-1,7
 0 152 0 152 -14 169.5 c 128,-1,8
 -28 187 -28 187 -33 210.5 c 128,-1,9
 -38 234 -38 234 -31 261 c 0,10,11
 -23 289 -23 289 -5 313.5 c 128,-1,12
 13 338 13 338 36 356 c 128,-1,13
 59 374 59 374 86 384.5 c 128,-1,14
 113 395 113 395 138 395 c 0,15,16
 165 395 165 395 185.5 384.5 c 128,-1,17
 206 374 206 374 218.5 356.5 c 128,-1,18
 231 339 231 339 234.5 315 c 128,-1,19
 238 291 238 291 230 264 c 0,0,1
EndSplineSet
Substitution2: "<17016,16016> Urdu Swash lookup 75 subtable" uni06D4
Substitution2: "<17012,16012> Period to Comma in Arabic lookup 70 nested-substitutions 0 subtable" uni066C
Substitution2: "Single Substitution lookup 34 subtable" uni066C
Substitution2: "'salt' Stylistic Alternatives in Arabic lookup 28 subtable" uni06D4
PairPos2: "'kern' Horizontal Kerning in Arabic lookup 0 subtable" afii57509 dx=0 dy=0 dh=0 dv=0 dx=0 dy=0 dh=250 dv=0
PairPos2: "'kern' Horizontal Kerning in Arabic lookup 0 subtable" uni06AB dx=0 dy=0 dh=0 dv=0 dx=0 dy=0 dh=250 dv=0
PairPos2: "'kern' Horizontal Kerning in Arabic lookup 0 subtable" uni06A9 dx=0 dy=0 dh=0 dv=0 dx=0 dy=0 dh=250 dv=0
PairPos2: "'kern' Horizontal Kerning in Arabic lookup 0 subtable" uniFB94 dx=0 dy=0 dh=0 dv=0 dx=0 dy=0 dh=250 dv=0
PairPos2: "'kern' Horizontal Kerning in Arabic lookup 0 subtable" uniFBD5 dx=0 dy=0 dh=0 dv=0 dx=0 dy=0 dh=250 dv=0
PairPos2: "'kern' Horizontal Kerning in Arabic lookup 0 subtable" uni06AB.ini dx=0 dy=0 dh=0 dv=0 dx=0 dy=0 dh=250 dv=0
PairPos2: "'kern' Horizontal Kerning in Arabic lookup 0 subtable" uniFB90 dx=0 dy=0 dh=0 dv=0 dx=0 dy=0 dh=250 dv=0
PairPos2: "'kern' Horizontal Kerning in Arabic lookup 0 subtable" uniFEDB dx=0 dy=0 dh=0 dv=0 dx=0 dy=0 dh=250 dv=0
PairPos2: "'kern' Horizontal Kerning in Arabic lookup 0 subtable" uni0671 dx=0 dy=0 dh=0 dv=0 dx=0 dy=0 dh=200 dv=0
PairPos2: "'kern' Horizontal Kerning in Arabic lookup 0 subtable" afii57410 dx=0 dy=0 dh=0 dv=0 dx=0 dy=0 dh=200 dv=0
PairPos2: "'kern' Horizontal Kerning in Arabic lookup 0 subtable" afii57415 dx=0 dy=0 dh=0 dv=0 dx=0 dy=0 dh=50 dv=0
EndChar

StartChar: slash
Encoding: 47 47 18
Width: 569
GlyphClass: 2
Flags: W
LayerCount: 2
Fore
SplineSet
641 1417 m 1,0,-1
 762 1417 l 1,1,-1
 -105 -34 l 1,2,-1
 -225 -34 l 1,3,-1
 641 1417 l 1,0,-1
EndSplineSet
Substitution2: "<17016,16016> Urdu Swash lookup 75 subtable" slash
PairPos2: "'kern' Horizontal Kerning in Arabic lookup 0 subtable" afii57509 dx=0 dy=0 dh=0 dv=0 dx=0 dy=0 dh=250 dv=0
PairPos2: "'kern' Horizontal Kerning in Arabic lookup 0 subtable" uni06AB dx=0 dy=0 dh=0 dv=0 dx=0 dy=0 dh=250 dv=0
PairPos2: "'kern' Horizontal Kerning in Arabic lookup 0 subtable" uni06A9 dx=0 dy=0 dh=0 dv=0 dx=0 dy=0 dh=250 dv=0
PairPos2: "'kern' Horizontal Kerning in Arabic lookup 0 subtable" uniFB94 dx=0 dy=0 dh=0 dv=0 dx=0 dy=0 dh=250 dv=0
PairPos2: "'kern' Horizontal Kerning in Arabic lookup 0 subtable" uniFBD5 dx=0 dy=0 dh=0 dv=0 dx=0 dy=0 dh=250 dv=0
PairPos2: "'kern' Horizontal Kerning in Arabic lookup 0 subtable" uni06AB.ini dx=0 dy=0 dh=0 dv=0 dx=0 dy=0 dh=250 dv=0
PairPos2: "'kern' Horizontal Kerning in Arabic lookup 0 subtable" uniFB90 dx=0 dy=0 dh=0 dv=0 dx=0 dy=0 dh=250 dv=0
PairPos2: "'kern' Horizontal Kerning in Arabic lookup 0 subtable" uniFEDB dx=0 dy=0 dh=0 dv=0 dx=0 dy=0 dh=250 dv=0
PairPos2: "'kern' Horizontal Kerning in Arabic lookup 0 subtable" uni0671 dx=0 dy=0 dh=0 dv=0 dx=0 dy=0 dh=200 dv=0
PairPos2: "'kern' Horizontal Kerning in Arabic lookup 0 subtable" afii57410 dx=0 dy=0 dh=0 dv=0 dx=0 dy=0 dh=200 dv=0
PairPos2: "'kern' Horizontal Kerning in Arabic lookup 0 subtable" afii57415 dx=0 dy=0 dh=0 dv=0 dx=0 dy=0 dh=50 dv=0
EndChar

StartChar: zero
Encoding: 48 48 19
Width: 1024
GlyphClass: 2
Flags: W
LayerCount: 2
Fore
SplineSet
319 32 m 0,0,1
 368 32 368 32 413.5 76 c 128,-1,2
 459 120 459 120 496 193 c 0,3,4
 516 238 516 238 538 304 c 128,-1,5
 560 370 560 370 583 455 c 2,6,-1
 709 924 l 2,7,8
 742 1048 742 1048 755 1129.5 c 128,-1,9
 768 1211 768 1211 762.5 1259 c 128,-1,10
 757 1307 757 1307 733 1326.5 c 128,-1,11
 709 1346 709 1346 669 1346 c 0,12,13
 587 1346 587 1346 528 1258 c 0,14,15
 497 1213 497 1213 466 1130 c 128,-1,16
 435 1047 435 1047 402 924 c 2,17,-1
 276 455 l 2,18,19
 244 336 244 336 232 251 c 128,-1,20
 220 166 220 166 223 118 c 1,21,22
 231 82 231 82 256 57 c 128,-1,23
 281 32 281 32 319 32 c 0,0,1
356 1248 m 0,24,25
 529 1408 529 1408 685 1408 c 0,26,27
 867 1408 867 1408 948 1211 c 0,28,29
 1028 1016 1028 1016 944 703 c 0,30,31
 894 519 894 519 820 380 c 128,-1,32
 746 241 746 241 643 141 c 0,33,34
 470 -28 470 -28 301 -28 c 0,35,36
 184 -28 184 -28 116 46 c 0,37,38
 85 80 85 80 60.5 128.5 c 128,-1,39
 36 177 36 177 18 238 c 0,40,41
 5 285 5 285 2.5 342 c 128,-1,42
 0 399 0 399 5 464 c 0,43,44
 8 502 8 502 18.5 556 c 128,-1,45
 29 610 29 610 43 680 c 1,46,47
 93 868 93 868 171 1008.5 c 128,-1,48
 249 1149 249 1149 356 1248 c 0,24,25
EndSplineSet
Substitution2: "<17016,16016> Urdu Swash lookup 75 subtable" zero
PairPos2: "'kern' Horizontal Kerning in Arabic lookup 0 subtable" afii57509 dx=0 dy=0 dh=0 dv=0 dx=0 dy=0 dh=250 dv=0
PairPos2: "'kern' Horizontal Kerning in Arabic lookup 0 subtable" uni06AB dx=0 dy=0 dh=0 dv=0 dx=0 dy=0 dh=250 dv=0
PairPos2: "'kern' Horizontal Kerning in Arabic lookup 0 subtable" uni06A9 dx=0 dy=0 dh=0 dv=0 dx=0 dy=0 dh=250 dv=0
PairPos2: "'kern' Horizontal Kerning in Arabic lookup 0 subtable" uniFB94 dx=0 dy=0 dh=0 dv=0 dx=0 dy=0 dh=250 dv=0
PairPos2: "'kern' Horizontal Kerning in Arabic lookup 0 subtable" uniFBD5 dx=0 dy=0 dh=0 dv=0 dx=0 dy=0 dh=250 dv=0
PairPos2: "'kern' Horizontal Kerning in Arabic lookup 0 subtable" uni06AB.ini dx=0 dy=0 dh=0 dv=0 dx=0 dy=0 dh=250 dv=0
PairPos2: "'kern' Horizontal Kerning in Arabic lookup 0 subtable" uniFB90 dx=0 dy=0 dh=0 dv=0 dx=0 dy=0 dh=250 dv=0
PairPos2: "'kern' Horizontal Kerning in Arabic lookup 0 subtable" uniFEDB dx=0 dy=0 dh=0 dv=0 dx=0 dy=0 dh=250 dv=0
PairPos2: "'kern' Horizontal Kerning in Arabic lookup 0 subtable" uni0671 dx=0 dy=0 dh=0 dv=0 dx=0 dy=0 dh=200 dv=0
PairPos2: "'kern' Horizontal Kerning in Arabic lookup 0 subtable" afii57410 dx=0 dy=0 dh=0 dv=0 dx=0 dy=0 dh=200 dv=0
PairPos2: "'kern' Horizontal Kerning in Arabic lookup 0 subtable" afii57415 dx=0 dy=0 dh=0 dv=0 dx=0 dy=0 dh=50 dv=0
EndChar

StartChar: one
Encoding: 49 49 20
Width: 1024
GlyphClass: 2
Flags: W
LayerCount: 2
Fore
SplineSet
-36 51 m 1,0,1
 114 51 114 51 171 93 c 0,2,3
 230 140 230 140 262 254 c 2,4,-1
 473 1042 l 2,5,6
 493 1117 493 1117 481.5 1148.5 c 128,-1,7
 470 1180 470 1180 415 1180 c 0,8,9
 392 1180 392 1180 350 1170 c 128,-1,10
 308 1160 308 1160 251 1139 c 1,11,-1
 264 1189 l 1,12,-1
 831 1408 l 1,13,-1
 847 1408 l 1,14,-1
 534 242 l 2,15,16
 506 138 506 138 534 91 c 0,17,18
 559 51 559 51 703 51 c 1,19,-1
 690 0 l 1,20,-1
 -49 0 l 1,21,-1
 -36 51 l 1,0,1
EndSplineSet
Substitution2: "<17016,16016> Urdu Swash lookup 75 subtable" one
PairPos2: "'kern' Horizontal Kerning in Arabic lookup 0 subtable" afii57509 dx=0 dy=0 dh=0 dv=0 dx=0 dy=0 dh=250 dv=0
PairPos2: "'kern' Horizontal Kerning in Arabic lookup 0 subtable" uni06AB dx=0 dy=0 dh=0 dv=0 dx=0 dy=0 dh=250 dv=0
PairPos2: "'kern' Horizontal Kerning in Arabic lookup 0 subtable" uni06A9 dx=0 dy=0 dh=0 dv=0 dx=0 dy=0 dh=250 dv=0
PairPos2: "'kern' Horizontal Kerning in Arabic lookup 0 subtable" uniFB94 dx=0 dy=0 dh=0 dv=0 dx=0 dy=0 dh=250 dv=0
PairPos2: "'kern' Horizontal Kerning in Arabic lookup 0 subtable" uniFBD5 dx=0 dy=0 dh=0 dv=0 dx=0 dy=0 dh=250 dv=0
PairPos2: "'kern' Horizontal Kerning in Arabic lookup 0 subtable" uni06AB.ini dx=0 dy=0 dh=0 dv=0 dx=0 dy=0 dh=250 dv=0
PairPos2: "'kern' Horizontal Kerning in Arabic lookup 0 subtable" uniFB90 dx=0 dy=0 dh=0 dv=0 dx=0 dy=0 dh=250 dv=0
PairPos2: "'kern' Horizontal Kerning in Arabic lookup 0 subtable" uniFEDB dx=0 dy=0 dh=0 dv=0 dx=0 dy=0 dh=250 dv=0
PairPos2: "'kern' Horizontal Kerning in Arabic lookup 0 subtable" uni0671 dx=0 dy=0 dh=0 dv=0 dx=0 dy=0 dh=200 dv=0
PairPos2: "'kern' Horizontal Kerning in Arabic lookup 0 subtable" afii57410 dx=0 dy=0 dh=0 dv=0 dx=0 dy=0 dh=200 dv=0
PairPos2: "'kern' Horizontal Kerning in Arabic lookup 0 subtable" afii57415 dx=0 dy=0 dh=0 dv=0 dx=0 dy=0 dh=50 dv=0
EndChar

StartChar: two
Encoding: 50 50 21
Width: 1024
GlyphClass: 2
Flags: W
LayerCount: 2
Fore
SplineSet
-137 53 m 1,0,1
 74 230 74 230 211 351 c 128,-1,2
 348 472 348 472 415 541 c 0,3,4
 628 755 628 755 670 912 c 0,5,6
 694 1003 694 1003 655 1089 c 0,7,8
 619 1173 619 1173 486 1173 c 0,9,10
 392 1173 392 1173 313 1124.5 c 128,-1,11
 234 1076 234 1076 172 989 c 1,12,-1
 142 989 l 1,13,14
 269 1203 269 1203 412 1305.5 c 128,-1,15
 555 1408 555 1408 698 1408 c 0,16,17
 764 1408 764 1408 820 1382.5 c 128,-1,18
 876 1357 876 1357 920 1309 c 0,19,20
 962 1264 962 1264 970.5 1189.5 c 128,-1,21
 979 1115 979 1115 954 1020 c 0,22,23
 940 969 940 969 913.5 917 c 128,-1,24
 887 865 887 865 844.5 811.5 c 128,-1,25
 802 758 802 758 743 702 c 128,-1,26
 684 646 684 646 605 586 c 2,27,-1
 214 289 l 1,28,-1
 209 289 l 1,29,-1
 205 274 l 1,30,-1
 509 274 l 2,31,32
 585 274 585 274 639 281 c 128,-1,33
 693 288 693 288 721 299 c 0,34,35
 751 315 751 315 786 348 c 128,-1,36
 821 381 821 381 856 432 c 1,37,-1
 878 432 l 1,38,-1
 671 0 l 1,39,-1
 -151 0 l 1,40,-1
 -137 53 l 1,0,1
EndSplineSet
Substitution2: "<17016,16016> Urdu Swash lookup 75 subtable" two
PairPos2: "'kern' Horizontal Kerning in Arabic lookup 0 subtable" afii57509 dx=0 dy=0 dh=0 dv=0 dx=0 dy=0 dh=250 dv=0
PairPos2: "'kern' Horizontal Kerning in Arabic lookup 0 subtable" uni06AB dx=0 dy=0 dh=0 dv=0 dx=0 dy=0 dh=250 dv=0
PairPos2: "'kern' Horizontal Kerning in Arabic lookup 0 subtable" uni06A9 dx=0 dy=0 dh=0 dv=0 dx=0 dy=0 dh=250 dv=0
PairPos2: "'kern' Horizontal Kerning in Arabic lookup 0 subtable" uniFB94 dx=0 dy=0 dh=0 dv=0 dx=0 dy=0 dh=250 dv=0
PairPos2: "'kern' Horizontal Kerning in Arabic lookup 0 subtable" uniFBD5 dx=0 dy=0 dh=0 dv=0 dx=0 dy=0 dh=250 dv=0
PairPos2: "'kern' Horizontal Kerning in Arabic lookup 0 subtable" uni06AB.ini dx=0 dy=0 dh=0 dv=0 dx=0 dy=0 dh=250 dv=0
PairPos2: "'kern' Horizontal Kerning in Arabic lookup 0 subtable" uniFB90 dx=0 dy=0 dh=0 dv=0 dx=0 dy=0 dh=250 dv=0
PairPos2: "'kern' Horizontal Kerning in Arabic lookup 0 subtable" uniFEDB dx=0 dy=0 dh=0 dv=0 dx=0 dy=0 dh=250 dv=0
PairPos2: "'kern' Horizontal Kerning in Arabic lookup 0 subtable" uni0671 dx=0 dy=0 dh=0 dv=0 dx=0 dy=0 dh=200 dv=0
PairPos2: "'kern' Horizontal Kerning in Arabic lookup 0 subtable" afii57410 dx=0 dy=0 dh=0 dv=0 dx=0 dy=0 dh=200 dv=0
PairPos2: "'kern' Horizontal Kerning in Arabic lookup 0 subtable" afii57415 dx=0 dy=0 dh=0 dv=0 dx=0 dy=0 dh=50 dv=0
EndChar

StartChar: three
Encoding: 51 51 22
Width: 1024
GlyphClass: 2
Flags: W
LayerCount: 2
Fore
SplineSet
339 75 m 0,0,1
 461 75 461 75 527 149 c 0,2,3
 599 229 599 229 623 318 c 0,4,5
 668 486 668 486 546 602 c 0,6,7
 514 631 514 631 457.5 661.5 c 128,-1,8
 401 692 401 692 320 725 c 1,9,-1
 331 767 l 1,10,11
 397 788 397 788 444.5 807.5 c 128,-1,12
 492 827 492 827 522 847 c 0,13,14
 639 921 639 921 669 1033 c 0,15,16
 681 1078 681 1078 675.5 1116 c 128,-1,17
 670 1154 670 1154 647 1181.5 c 128,-1,18
 624 1209 624 1209 585.5 1224.5 c 128,-1,19
 547 1240 547 1240 493 1240 c 0,20,21
 412 1240 412 1240 339 1195 c 128,-1,22
 266 1150 266 1150 199 1077 c 1,23,-1
 179 1091 l 1,24,25
 220 1147 220 1147 267 1194.5 c 128,-1,26
 314 1242 314 1242 363 1277 c 0,27,28
 450 1340 450 1340 540.5 1372.5 c 128,-1,29
 631 1405 631 1405 719 1405 c 0,30,31
 777 1405 777 1405 827.5 1387.5 c 128,-1,32
 878 1370 878 1370 913 1335.5 c 128,-1,33
 948 1301 948 1301 964 1251.5 c 128,-1,34
 980 1202 980 1202 968 1137 c 1,35,36
 945 1049 945 1049 891.5 983 c 128,-1,37
 838 917 838 917 746 876 c 1,38,-1
 739 876 l 1,39,-1
 736 863 l 1,40,-1
 744 863 l 1,41,42
 792 841 792 841 825 805.5 c 128,-1,43
 858 770 858 770 875 723.5 c 128,-1,44
 892 677 892 677 892.5 622 c 128,-1,45
 893 567 893 567 877 507 c 0,46,47
 848 396 848 396 779.5 301.5 c 128,-1,48
 711 207 711 207 612 132 c 1,49,50
 504 56 504 56 380 12.5 c 128,-1,51
 256 -31 256 -31 130 -31 c 0,52,53
 73 -31 73 -31 23 -19.5 c 128,-1,54
 -27 -8 -27 -8 -61.5 15 c 128,-1,55
 -96 38 -96 38 -111.5 72 c 128,-1,56
 -127 106 -127 106 -115 152 c 0,57,58
 -108 178 -108 178 -93.5 200.5 c 128,-1,59
 -79 223 -79 223 -59 240 c 128,-1,60
 -39 257 -39 257 -14 266.5 c 128,-1,61
 11 276 11 276 39 276 c 0,62,63
 122 276 122 276 193 175 c 0,64,65
 263 75 263 75 339 75 c 0,0,1
EndSplineSet
Substitution2: "<17016,16016> Urdu Swash lookup 75 subtable" three
PairPos2: "'kern' Horizontal Kerning in Arabic lookup 0 subtable" afii57509 dx=0 dy=0 dh=0 dv=0 dx=0 dy=0 dh=250 dv=0
PairPos2: "'kern' Horizontal Kerning in Arabic lookup 0 subtable" uni06AB dx=0 dy=0 dh=0 dv=0 dx=0 dy=0 dh=250 dv=0
PairPos2: "'kern' Horizontal Kerning in Arabic lookup 0 subtable" uni06A9 dx=0 dy=0 dh=0 dv=0 dx=0 dy=0 dh=250 dv=0
PairPos2: "'kern' Horizontal Kerning in Arabic lookup 0 subtable" uniFB94 dx=0 dy=0 dh=0 dv=0 dx=0 dy=0 dh=250 dv=0
PairPos2: "'kern' Horizontal Kerning in Arabic lookup 0 subtable" uniFBD5 dx=0 dy=0 dh=0 dv=0 dx=0 dy=0 dh=250 dv=0
PairPos2: "'kern' Horizontal Kerning in Arabic lookup 0 subtable" uni06AB.ini dx=0 dy=0 dh=0 dv=0 dx=0 dy=0 dh=250 dv=0
PairPos2: "'kern' Horizontal Kerning in Arabic lookup 0 subtable" uniFB90 dx=0 dy=0 dh=0 dv=0 dx=0 dy=0 dh=250 dv=0
PairPos2: "'kern' Horizontal Kerning in Arabic lookup 0 subtable" uniFEDB dx=0 dy=0 dh=0 dv=0 dx=0 dy=0 dh=250 dv=0
PairPos2: "'kern' Horizontal Kerning in Arabic lookup 0 subtable" uni0671 dx=0 dy=0 dh=0 dv=0 dx=0 dy=0 dh=200 dv=0
PairPos2: "'kern' Horizontal Kerning in Arabic lookup 0 subtable" afii57410 dx=0 dy=0 dh=0 dv=0 dx=0 dy=0 dh=200 dv=0
PairPos2: "'kern' Horizontal Kerning in Arabic lookup 0 subtable" afii57415 dx=0 dy=0 dh=0 dv=0 dx=0 dy=0 dh=50 dv=0
EndChar

StartChar: four
Encoding: 52 52 23
Width: 1024
GlyphClass: 2
Flags: W
LayerCount: 2
Fore
SplineSet
657 1102 m 1,0,-1
 618 1102 l 1,1,2
 606 1089 606 1089 578.5 1061 c 128,-1,3
 551 1033 551 1033 513.5 995 c 128,-1,4
 476 957 476 957 432 911.5 c 128,-1,5
 388 866 388 866 342.5 819.5 c 128,-1,6
 297 773 297 773 252.5 728 c 128,-1,7
 208 683 208 683 170.5 645 c 128,-1,8
 133 607 133 607 105.5 579 c 128,-1,9
 78 551 78 551 65 539 c 1,10,-1
 60 522 l 1,11,-1
 501 522 l 1,12,-1
 657 1102 l 1,0,-1
384 939 m 1,13,-1
 755 1301 l 1,14,-1
 867 1408 l 1,15,-1
 1005 1408 l 1,16,-1
 767 522 l 1,17,-1
 895 522 l 1,18,-1
 834 293 l 1,19,-1
 706 293 l 1,20,-1
 628 0 l 1,21,-1
 360 0 l 1,22,-1
 438 293 l 1,23,-1
 -71 293 l 1,24,-1
 -8 528 l 1,25,26
 1 542 1 542 6 548 c 128,-1,27
 11 554 11 554 13 556.5 c 128,-1,28
 15 559 15 559 16.5 559.5 c 128,-1,29
 18 560 18 560 21 564 c 0,30,31
 29 573 29 573 46 590.5 c 128,-1,32
 63 608 63 608 90 636 c 2,33,-1
 384 939 l 1,13,-1
EndSplineSet
Substitution2: "<17016,16016> Urdu Swash lookup 75 subtable" four
PairPos2: "'kern' Horizontal Kerning in Arabic lookup 0 subtable" afii57509 dx=0 dy=0 dh=0 dv=0 dx=0 dy=0 dh=250 dv=0
PairPos2: "'kern' Horizontal Kerning in Arabic lookup 0 subtable" uni06AB dx=0 dy=0 dh=0 dv=0 dx=0 dy=0 dh=250 dv=0
PairPos2: "'kern' Horizontal Kerning in Arabic lookup 0 subtable" uni06A9 dx=0 dy=0 dh=0 dv=0 dx=0 dy=0 dh=250 dv=0
PairPos2: "'kern' Horizontal Kerning in Arabic lookup 0 subtable" uniFB94 dx=0 dy=0 dh=0 dv=0 dx=0 dy=0 dh=250 dv=0
PairPos2: "'kern' Horizontal Kerning in Arabic lookup 0 subtable" uniFBD5 dx=0 dy=0 dh=0 dv=0 dx=0 dy=0 dh=250 dv=0
PairPos2: "'kern' Horizontal Kerning in Arabic lookup 0 subtable" uni06AB.ini dx=0 dy=0 dh=0 dv=0 dx=0 dy=0 dh=250 dv=0
PairPos2: "'kern' Horizontal Kerning in Arabic lookup 0 subtable" uniFB90 dx=0 dy=0 dh=0 dv=0 dx=0 dy=0 dh=250 dv=0
PairPos2: "'kern' Horizontal Kerning in Arabic lookup 0 subtable" uniFEDB dx=0 dy=0 dh=0 dv=0 dx=0 dy=0 dh=250 dv=0
PairPos2: "'kern' Horizontal Kerning in Arabic lookup 0 subtable" uni0671 dx=0 dy=0 dh=0 dv=0 dx=0 dy=0 dh=200 dv=0
PairPos2: "'kern' Horizontal Kerning in Arabic lookup 0 subtable" afii57410 dx=0 dy=0 dh=0 dv=0 dx=0 dy=0 dh=200 dv=0
PairPos2: "'kern' Horizontal Kerning in Arabic lookup 0 subtable" afii57415 dx=0 dy=0 dh=0 dv=0 dx=0 dy=0 dh=50 dv=0
EndChar

StartChar: five
Encoding: 53 53 24
Width: 1024
GlyphClass: 2
Flags: W
LayerCount: 2
Fore
SplineSet
48 289 m 0,0,1
 115 289 115 289 214 199 c 0,2,3
 265 154 265 154 309.5 133 c 128,-1,4
 354 112 354 112 392 110 c 0,5,6
 439 110 439 110 482.5 126.5 c 128,-1,7
 526 143 526 143 562 171.5 c 128,-1,8
 598 200 598 200 623.5 238.5 c 128,-1,9
 649 277 649 277 661 320 c 0,10,11
 679 386 679 386 658.5 440.5 c 128,-1,12
 638 495 638 495 590 537 c 128,-1,13
 542 579 542 579 471 608.5 c 128,-1,14
 400 638 400 638 317 653 c 0,15,16
 284 659 284 659 228 664 c 128,-1,17
 172 669 172 669 97 675 c 1,18,-1
 486 1384 l 1,19,-1
 1118 1384 l 1,20,-1
 960 1121 l 1,21,-1
 392 1121 l 1,22,23
 371 1081 371 1081 349 1040 c 128,-1,24
 327 999 327 999 304 958 c 1,25,-1
 316 958 l 1,26,27
 638 948 638 948 768.5 829.5 c 128,-1,28
 899 711 899 711 836 476 c 0,29,30
 777 254 777 254 580 120 c 0,31,32
 377 -19 377 -19 135 -19 c 0,33,34
 80 -19 80 -19 32 -8 c 128,-1,35
 -16 3 -16 3 -49 25.5 c 128,-1,36
 -82 48 -82 48 -96 82.5 c 128,-1,37
 -110 117 -110 117 -98 164 c 0,38,39
 -91 190 -91 190 -77 213 c 128,-1,40
 -63 236 -63 236 -44 253 c 128,-1,41
 -25 270 -25 270 -1.5 279.5 c 128,-1,42
 22 289 22 289 48 289 c 0,0,1
EndSplineSet
Substitution2: "<17016,16016> Urdu Swash lookup 75 subtable" five
PairPos2: "'kern' Horizontal Kerning in Arabic lookup 0 subtable" afii57509 dx=0 dy=0 dh=0 dv=0 dx=0 dy=0 dh=250 dv=0
PairPos2: "'kern' Horizontal Kerning in Arabic lookup 0 subtable" uni06AB dx=0 dy=0 dh=0 dv=0 dx=0 dy=0 dh=250 dv=0
PairPos2: "'kern' Horizontal Kerning in Arabic lookup 0 subtable" uni06A9 dx=0 dy=0 dh=0 dv=0 dx=0 dy=0 dh=250 dv=0
PairPos2: "'kern' Horizontal Kerning in Arabic lookup 0 subtable" uniFB94 dx=0 dy=0 dh=0 dv=0 dx=0 dy=0 dh=250 dv=0
PairPos2: "'kern' Horizontal Kerning in Arabic lookup 0 subtable" uniFBD5 dx=0 dy=0 dh=0 dv=0 dx=0 dy=0 dh=250 dv=0
PairPos2: "'kern' Horizontal Kerning in Arabic lookup 0 subtable" uni06AB.ini dx=0 dy=0 dh=0 dv=0 dx=0 dy=0 dh=250 dv=0
PairPos2: "'kern' Horizontal Kerning in Arabic lookup 0 subtable" uniFB90 dx=0 dy=0 dh=0 dv=0 dx=0 dy=0 dh=250 dv=0
PairPos2: "'kern' Horizontal Kerning in Arabic lookup 0 subtable" uniFEDB dx=0 dy=0 dh=0 dv=0 dx=0 dy=0 dh=250 dv=0
PairPos2: "'kern' Horizontal Kerning in Arabic lookup 0 subtable" uni0671 dx=0 dy=0 dh=0 dv=0 dx=0 dy=0 dh=200 dv=0
PairPos2: "'kern' Horizontal Kerning in Arabic lookup 0 subtable" afii57410 dx=0 dy=0 dh=0 dv=0 dx=0 dy=0 dh=200 dv=0
PairPos2: "'kern' Horizontal Kerning in Arabic lookup 0 subtable" afii57415 dx=0 dy=0 dh=0 dv=0 dx=0 dy=0 dh=50 dv=0
EndChar

StartChar: six
Encoding: 54 54 25
Width: 1024
GlyphClass: 2
Flags: W
LayerCount: 2
Fore
SplineSet
358 692 m 0,0,1
 348 667 348 667 332.5 620.5 c 128,-1,2
 317 574 317 574 303 520 c 0,3,4
 277 422 277 422 259.5 339.5 c 128,-1,5
 242 257 242 257 236 200 c 0,6,7
 234 168 234 168 236.5 136 c 128,-1,8
 239 104 239 104 247 78 c 1,9,-1
 248 79 l 1,10,11
 265 30 265 30 339 30 c 0,12,13
 438 30 438 30 488 116 c 0,14,15
 521 175 521 175 563 335 c 0,16,17
 596 458 596 458 608.5 541 c 128,-1,18
 621 624 621 624 612.5 675 c 128,-1,19
 604 726 604 726 573.5 747.5 c 128,-1,20
 543 769 543 769 489 769 c 0,21,22
 421 769 421 769 400 751 c 0,23,24
 372 729 372 729 358 692 c 0,0,1
1108 1351 m 1,25,26
 997 1332 997 1332 897.5 1287 c 128,-1,27
 798 1242 798 1242 712 1176 c 128,-1,28
 626 1110 626 1110 555 1024.5 c 128,-1,29
 484 939 484 939 429 840 c 1,30,-1
 435 840 l 2,31,32
 439 838 439 838 444 833 c 1,33,-1
 456 833 l 1,34,35
 488 842 488 842 510.5 848 c 128,-1,36
 533 854 533 854 552 857.5 c 128,-1,37
 571 861 571 861 588 862 c 128,-1,38
 605 863 605 863 626 863 c 0,39,40
 767 863 767 863 853 762 c 0,41,42
 935 667 935 667 876 451 c 0,43,44
 845 334 845 334 787 244 c 128,-1,45
 729 154 729 154 651 94 c 1,46,47
 570 37 570 37 484 4 c 128,-1,48
 398 -29 398 -29 317 -29 c 0,49,50
 132 -29 132 -29 36 125 c 0,51,52
 -56 276 -56 276 17 552 c 0,53,54
 41 642 41 642 83.5 727.5 c 128,-1,55
 126 813 126 813 182.5 890.5 c 128,-1,56
 239 968 239 968 307.5 1036.5 c 128,-1,57
 376 1105 376 1105 452 1162 c 0,58,59
 605 1268 605 1268 774 1330.5 c 128,-1,60
 943 1393 943 1393 1124 1407 c 1,61,-1
 1108 1351 l 1,25,26
EndSplineSet
Substitution2: "<17016,16016> Urdu Swash lookup 75 subtable" six
PairPos2: "'kern' Horizontal Kerning in Arabic lookup 0 subtable" afii57509 dx=0 dy=0 dh=0 dv=0 dx=0 dy=0 dh=250 dv=0
PairPos2: "'kern' Horizontal Kerning in Arabic lookup 0 subtable" uni06AB dx=0 dy=0 dh=0 dv=0 dx=0 dy=0 dh=250 dv=0
PairPos2: "'kern' Horizontal Kerning in Arabic lookup 0 subtable" uni06A9 dx=0 dy=0 dh=0 dv=0 dx=0 dy=0 dh=250 dv=0
PairPos2: "'kern' Horizontal Kerning in Arabic lookup 0 subtable" uniFB94 dx=0 dy=0 dh=0 dv=0 dx=0 dy=0 dh=250 dv=0
PairPos2: "'kern' Horizontal Kerning in Arabic lookup 0 subtable" uniFBD5 dx=0 dy=0 dh=0 dv=0 dx=0 dy=0 dh=250 dv=0
PairPos2: "'kern' Horizontal Kerning in Arabic lookup 0 subtable" uni06AB.ini dx=0 dy=0 dh=0 dv=0 dx=0 dy=0 dh=250 dv=0
PairPos2: "'kern' Horizontal Kerning in Arabic lookup 0 subtable" uniFB90 dx=0 dy=0 dh=0 dv=0 dx=0 dy=0 dh=250 dv=0
PairPos2: "'kern' Horizontal Kerning in Arabic lookup 0 subtable" uniFEDB dx=0 dy=0 dh=0 dv=0 dx=0 dy=0 dh=250 dv=0
PairPos2: "'kern' Horizontal Kerning in Arabic lookup 0 subtable" uni0671 dx=0 dy=0 dh=0 dv=0 dx=0 dy=0 dh=200 dv=0
PairPos2: "'kern' Horizontal Kerning in Arabic lookup 0 subtable" afii57410 dx=0 dy=0 dh=0 dv=0 dx=0 dy=0 dh=200 dv=0
PairPos2: "'kern' Horizontal Kerning in Arabic lookup 0 subtable" afii57415 dx=0 dy=0 dh=0 dv=0 dx=0 dy=0 dh=50 dv=0
EndChar

StartChar: seven
Encoding: 55 55 26
Width: 1024
GlyphClass: 2
Flags: W
LayerCount: 2
Fore
SplineSet
309 1384 m 1,0,-1
 1132 1384 l 1,1,-1
 281 0 l 1,2,-1
 114 0 l 1,3,-1
 805 1088 l 2,4,5
 805 1095 805 1095 800 1102 c 1,6,-1
 400 1102 l 2,7,8
 351 1102 351 1102 310 1093.5 c 128,-1,9
 269 1085 269 1085 243 1072 c 1,10,11
 214 1052 214 1052 181.5 1015.5 c 128,-1,12
 149 979 149 979 120 928 c 1,13,-1
 97 928 l 1,14,-1
 309 1384 l 1,0,-1
EndSplineSet
Substitution2: "<17016,16016> Urdu Swash lookup 75 subtable" seven
PairPos2: "'kern' Horizontal Kerning in Arabic lookup 0 subtable" afii57509 dx=0 dy=0 dh=0 dv=0 dx=0 dy=0 dh=250 dv=0
PairPos2: "'kern' Horizontal Kerning in Arabic lookup 0 subtable" uni06AB dx=0 dy=0 dh=0 dv=0 dx=0 dy=0 dh=250 dv=0
PairPos2: "'kern' Horizontal Kerning in Arabic lookup 0 subtable" uni06A9 dx=0 dy=0 dh=0 dv=0 dx=0 dy=0 dh=250 dv=0
PairPos2: "'kern' Horizontal Kerning in Arabic lookup 0 subtable" uniFB94 dx=0 dy=0 dh=0 dv=0 dx=0 dy=0 dh=250 dv=0
PairPos2: "'kern' Horizontal Kerning in Arabic lookup 0 subtable" uniFBD5 dx=0 dy=0 dh=0 dv=0 dx=0 dy=0 dh=250 dv=0
PairPos2: "'kern' Horizontal Kerning in Arabic lookup 0 subtable" uni06AB.ini dx=0 dy=0 dh=0 dv=0 dx=0 dy=0 dh=250 dv=0
PairPos2: "'kern' Horizontal Kerning in Arabic lookup 0 subtable" uniFB90 dx=0 dy=0 dh=0 dv=0 dx=0 dy=0 dh=250 dv=0
PairPos2: "'kern' Horizontal Kerning in Arabic lookup 0 subtable" uniFEDB dx=0 dy=0 dh=0 dv=0 dx=0 dy=0 dh=250 dv=0
PairPos2: "'kern' Horizontal Kerning in Arabic lookup 0 subtable" uni0671 dx=0 dy=0 dh=0 dv=0 dx=0 dy=0 dh=200 dv=0
PairPos2: "'kern' Horizontal Kerning in Arabic lookup 0 subtable" afii57410 dx=0 dy=0 dh=0 dv=0 dx=0 dy=0 dh=200 dv=0
PairPos2: "'kern' Horizontal Kerning in Arabic lookup 0 subtable" afii57415 dx=0 dy=0 dh=0 dv=0 dx=0 dy=0 dh=50 dv=0
EndChar

StartChar: eight
Encoding: 56 56 27
Width: 1024
GlyphClass: 2
Flags: W
LayerCount: 2
Fore
SplineSet
732 960 m 0,0,1
 773 1017 773 1017 792 1093 c 0,2,3
 806 1144 806 1144 807 1191 c 128,-1,4
 808 1238 808 1238 798 1275 c 0,5,6
 787 1309 787 1309 753 1327.5 c 128,-1,7
 719 1346 719 1346 663 1346 c 0,8,9
 620 1346 620 1346 582.5 1331.5 c 128,-1,10
 545 1317 545 1317 516.5 1293.5 c 128,-1,11
 488 1270 488 1270 468.5 1240 c 128,-1,12
 449 1210 449 1210 440 1179 c 0,13,14
 430 1139 430 1139 436.5 1097 c 128,-1,15
 443 1055 443 1055 467 1013.5 c 128,-1,16
 491 972 491 972 531.5 934.5 c 128,-1,17
 572 897 572 897 629 866 c 1,18,-1
 646 866 l 1,19,20
 680 900 680 900 702 923.5 c 128,-1,21
 724 947 724 947 732 960 c 0,0,1
157 168 m 0,22,23
 172 40 172 40 308 40 c 0,24,25
 350 40 350 40 388.5 54.5 c 128,-1,26
 427 69 427 69 460 97.5 c 128,-1,27
 493 126 493 126 519 169.5 c 128,-1,28
 545 213 545 213 560 270 c 0,29,30
 574 325 574 325 566 378 c 128,-1,31
 558 431 558 431 532 476 c 0,32,33
 516 502 516 502 475.5 539 c 128,-1,34
 435 576 435 576 375 624 c 1,35,-1
 356 624 l 1,36,37
 314 578 314 578 286 543.5 c 128,-1,38
 258 509 258 509 244 489 c 0,39,40
 218 452 218 452 200 410.5 c 128,-1,41
 182 369 182 369 170 323 c 0,42,43
 147 238 147 238 157 168 c 0,22,23
321 655 m 1,44,-1
 330 655 l 1,45,-1
 335 672 l 1,46,-1
 325 672 l 2,47,48
 320 673 320 673 300.5 690 c 128,-1,49
 281 707 281 707 257.5 732 c 128,-1,50
 234 757 234 757 211.5 786.5 c 128,-1,51
 189 816 189 816 177 843 c 0,52,53
 154 897 154 897 153.5 946 c 128,-1,54
 153 995 153 995 168 1051 c 0,55,56
 189 1130 189 1130 240.5 1195.5 c 128,-1,57
 292 1261 292 1261 365 1308.5 c 128,-1,58
 438 1356 438 1356 527 1382 c 128,-1,59
 616 1408 616 1408 712 1408 c 0,60,61
 799 1408 799 1408 864 1386 c 128,-1,62
 929 1364 929 1364 968.5 1325 c 128,-1,63
 1008 1286 1008 1286 1021 1232.5 c 128,-1,64
 1034 1179 1034 1179 1017 1116 c 0,65,66
 989 1013 989 1013 904.5 945 c 128,-1,67
 820 877 820 877 685 833 c 1,68,-1
 676 833 l 1,69,-1
 672 821 l 1,70,-1
 678 821 l 1,71,72
 735 770 735 770 772.5 727.5 c 128,-1,73
 810 685 810 685 830 650 c 0,74,75
 889 540 889 540 848 388 c 0,76,77
 822 288 822 288 768 211 c 128,-1,78
 714 134 714 134 636 81 c 0,79,80
 555 29 555 29 461.5 0 c 128,-1,81
 368 -29 368 -29 268 -29 c 0,82,83
 118 -29 118 -29 8 58 c 0,84,85
 -97 143 -97 143 -49 318 c 0,86,87
 -6 479 -6 479 123 566 c 1,88,-1
 321 655 l 1,44,-1
EndSplineSet
Substitution2: "<17016,16016> Urdu Swash lookup 75 subtable" eight
PairPos2: "'kern' Horizontal Kerning in Arabic lookup 0 subtable" afii57509 dx=0 dy=0 dh=0 dv=0 dx=0 dy=0 dh=250 dv=0
PairPos2: "'kern' Horizontal Kerning in Arabic lookup 0 subtable" uni06AB dx=0 dy=0 dh=0 dv=0 dx=0 dy=0 dh=250 dv=0
PairPos2: "'kern' Horizontal Kerning in Arabic lookup 0 subtable" uni06A9 dx=0 dy=0 dh=0 dv=0 dx=0 dy=0 dh=250 dv=0
PairPos2: "'kern' Horizontal Kerning in Arabic lookup 0 subtable" uniFB94 dx=0 dy=0 dh=0 dv=0 dx=0 dy=0 dh=250 dv=0
PairPos2: "'kern' Horizontal Kerning in Arabic lookup 0 subtable" uniFBD5 dx=0 dy=0 dh=0 dv=0 dx=0 dy=0 dh=250 dv=0
PairPos2: "'kern' Horizontal Kerning in Arabic lookup 0 subtable" uni06AB.ini dx=0 dy=0 dh=0 dv=0 dx=0 dy=0 dh=250 dv=0
PairPos2: "'kern' Horizontal Kerning in Arabic lookup 0 subtable" uniFB90 dx=0 dy=0 dh=0 dv=0 dx=0 dy=0 dh=250 dv=0
PairPos2: "'kern' Horizontal Kerning in Arabic lookup 0 subtable" uniFEDB dx=0 dy=0 dh=0 dv=0 dx=0 dy=0 dh=250 dv=0
PairPos2: "'kern' Horizontal Kerning in Arabic lookup 0 subtable" uni0671 dx=0 dy=0 dh=0 dv=0 dx=0 dy=0 dh=200 dv=0
PairPos2: "'kern' Horizontal Kerning in Arabic lookup 0 subtable" afii57410 dx=0 dy=0 dh=0 dv=0 dx=0 dy=0 dh=200 dv=0
PairPos2: "'kern' Horizontal Kerning in Arabic lookup 0 subtable" afii57415 dx=0 dy=0 dh=0 dv=0 dx=0 dy=0 dh=50 dv=0
EndChar

StartChar: nine
Encoding: 57 57 28
Width: 1024
GlyphClass: 2
Flags: W
LayerCount: 2
Fore
SplineSet
605 636 m 0,0,1
 611 642 611 642 620.5 663.5 c 128,-1,2
 630 685 630 685 641.5 716 c 128,-1,3
 653 747 653 747 665 785 c 128,-1,4
 677 823 677 823 688 863 c 0,5,6
 718 975 718 975 737.5 1065 c 128,-1,7
 757 1155 757 1155 756.5 1218 c 128,-1,8
 756 1281 756 1281 731.5 1315 c 128,-1,9
 707 1349 707 1349 650 1349 c 0,10,11
 570 1349 570 1349 517 1279.5 c 128,-1,12
 464 1210 464 1210 427 1073 c 0,13,14
 396 958 396 958 383.5 871 c 128,-1,15
 371 784 371 784 379 726 c 128,-1,16
 387 668 387 668 416.5 639 c 128,-1,17
 446 610 446 610 499 610 c 0,18,19
 516 610 516 610 534 613.5 c 128,-1,20
 552 617 552 617 567.5 621.5 c 128,-1,21
 583 626 583 626 593.5 630.5 c 128,-1,22
 604 635 604 635 605 636 c 0,0,1
-118 27 m 1,23,24
 -36 43 -36 43 39.5 70 c 128,-1,25
 115 97 115 97 179 132 c 0,26,27
 236 167 236 167 290.5 211 c 128,-1,28
 345 255 345 255 394 307 c 128,-1,29
 443 359 443 359 485.5 417.5 c 128,-1,30
 528 476 528 476 561 539 c 1,31,-1
 554 539 l 1,32,-1
 551 543 l 2,33,34
 550 544 550 544 549 544.5 c 128,-1,35
 548 545 548 545 547 546 c 2,36,-1
 534 546 l 1,37,38
 503 537 503 537 480 531 c 128,-1,39
 457 525 457 525 437.5 521.5 c 128,-1,40
 418 518 418 518 399.5 516.5 c 128,-1,41
 381 515 381 515 360 515 c 0,42,43
 288 515 288 515 230 541.5 c 128,-1,44
 172 568 172 568 136.5 620.5 c 128,-1,45
 101 673 101 673 92.5 750.5 c 128,-1,46
 84 828 84 828 111 929 c 0,47,48
 173 1156 173 1156 332 1279 c 0,49,50
 499 1408 499 1408 669 1408 c 0,51,52
 764 1408 764 1408 837 1368.5 c 128,-1,53
 910 1329 910 1329 952.5 1254 c 128,-1,54
 995 1179 995 1179 1002.5 1071.5 c 128,-1,55
 1010 964 1010 964 973 827 c 0,56,57
 919 628 919 628 801 469.5 c 128,-1,58
 683 311 683 311 505 194 c 0,59,60
 353 97 353 97 191 40 c 128,-1,61
 29 -17 29 -17 -133 -28 c 1,62,-1
 -118 27 l 1,23,24
EndSplineSet
Substitution2: "<17016,16016> Urdu Swash lookup 75 subtable" nine
PairPos2: "'kern' Horizontal Kerning in Arabic lookup 0 subtable" afii57509 dx=0 dy=0 dh=0 dv=0 dx=0 dy=0 dh=250 dv=0
PairPos2: "'kern' Horizontal Kerning in Arabic lookup 0 subtable" uni06AB dx=0 dy=0 dh=0 dv=0 dx=0 dy=0 dh=250 dv=0
PairPos2: "'kern' Horizontal Kerning in Arabic lookup 0 subtable" uni06A9 dx=0 dy=0 dh=0 dv=0 dx=0 dy=0 dh=250 dv=0
PairPos2: "'kern' Horizontal Kerning in Arabic lookup 0 subtable" uniFB94 dx=0 dy=0 dh=0 dv=0 dx=0 dy=0 dh=250 dv=0
PairPos2: "'kern' Horizontal Kerning in Arabic lookup 0 subtable" uniFBD5 dx=0 dy=0 dh=0 dv=0 dx=0 dy=0 dh=250 dv=0
PairPos2: "'kern' Horizontal Kerning in Arabic lookup 0 subtable" uni06AB.ini dx=0 dy=0 dh=0 dv=0 dx=0 dy=0 dh=250 dv=0
PairPos2: "'kern' Horizontal Kerning in Arabic lookup 0 subtable" uniFB90 dx=0 dy=0 dh=0 dv=0 dx=0 dy=0 dh=250 dv=0
PairPos2: "'kern' Horizontal Kerning in Arabic lookup 0 subtable" uniFEDB dx=0 dy=0 dh=0 dv=0 dx=0 dy=0 dh=250 dv=0
PairPos2: "'kern' Horizontal Kerning in Arabic lookup 0 subtable" uni0671 dx=0 dy=0 dh=0 dv=0 dx=0 dy=0 dh=200 dv=0
PairPos2: "'kern' Horizontal Kerning in Arabic lookup 0 subtable" afii57410 dx=0 dy=0 dh=0 dv=0 dx=0 dy=0 dh=200 dv=0
PairPos2: "'kern' Horizontal Kerning in Arabic lookup 0 subtable" afii57415 dx=0 dy=0 dh=0 dv=0 dx=0 dy=0 dh=50 dv=0
EndChar

StartChar: colon
Encoding: 58 58 29
Width: 565
GlyphClass: 2
Flags: W
LayerCount: 2
Fore
SplineSet
356 856 m 0,0,1
 371 836 371 836 374 813.5 c 128,-1,2
 377 791 377 791 370 766 c 0,3,4
 363 740 363 740 346.5 715.5 c 128,-1,5
 330 691 330 691 308 672.5 c 128,-1,6
 286 654 286 654 259.5 643 c 128,-1,7
 233 632 233 632 206 632 c 0,8,9
 180 632 180 632 158.5 642 c 128,-1,10
 137 652 137 652 123.5 670 c 128,-1,11
 110 688 110 688 105.5 711.5 c 128,-1,12
 101 735 101 735 108 762 c 256,13,14
 115 789 115 789 132 813.5 c 128,-1,15
 149 838 149 838 172.5 856 c 128,-1,16
 196 874 196 874 222.5 884.5 c 128,-1,17
 249 895 249 895 276 895 c 0,18,19
 328 895 328 895 356 856 c 0,0,1
232 264 m 0,20,21
 225 239 225 239 209.5 215 c 128,-1,22
 194 191 194 191 172 172.5 c 128,-1,23
 150 154 150 154 123.5 143 c 128,-1,24
 97 132 97 132 69 132 c 256,25,26
 41 132 41 132 19.5 142.5 c 128,-1,27
 -2 153 -2 153 -15.5 171 c 128,-1,28
 -29 189 -29 189 -33.5 212.5 c 128,-1,29
 -38 236 -38 236 -31 261 c 0,30,31
 -24 289 -24 289 -5.5 313.5 c 128,-1,32
 13 338 13 338 37 356 c 128,-1,33
 61 374 61 374 87.5 384.5 c 128,-1,34
 114 395 114 395 139 395 c 0,35,36
 166 395 166 395 187 384.5 c 128,-1,37
 208 374 208 374 220.5 356.5 c 128,-1,38
 233 339 233 339 236.5 315 c 128,-1,39
 240 291 240 291 232 264 c 0,20,21
EndSplineSet
Substitution2: "<17016,16016> Urdu Swash lookup 75 subtable" colon
PairPos2: "'kern' Horizontal Kerning in Arabic lookup 0 subtable" afii57509 dx=0 dy=0 dh=0 dv=0 dx=0 dy=0 dh=250 dv=0
PairPos2: "'kern' Horizontal Kerning in Arabic lookup 0 subtable" uni06AB dx=0 dy=0 dh=0 dv=0 dx=0 dy=0 dh=250 dv=0
PairPos2: "'kern' Horizontal Kerning in Arabic lookup 0 subtable" uni06A9 dx=0 dy=0 dh=0 dv=0 dx=0 dy=0 dh=250 dv=0
PairPos2: "'kern' Horizontal Kerning in Arabic lookup 0 subtable" uniFB94 dx=0 dy=0 dh=0 dv=0 dx=0 dy=0 dh=250 dv=0
PairPos2: "'kern' Horizontal Kerning in Arabic lookup 0 subtable" uniFBD5 dx=0 dy=0 dh=0 dv=0 dx=0 dy=0 dh=250 dv=0
PairPos2: "'kern' Horizontal Kerning in Arabic lookup 0 subtable" uni06AB.ini dx=0 dy=0 dh=0 dv=0 dx=0 dy=0 dh=250 dv=0
PairPos2: "'kern' Horizontal Kerning in Arabic lookup 0 subtable" uniFB90 dx=0 dy=0 dh=0 dv=0 dx=0 dy=0 dh=250 dv=0
PairPos2: "'kern' Horizontal Kerning in Arabic lookup 0 subtable" uniFEDB dx=0 dy=0 dh=0 dv=0 dx=0 dy=0 dh=250 dv=0
PairPos2: "'kern' Horizontal Kerning in Arabic lookup 0 subtable" uni0671 dx=0 dy=0 dh=0 dv=0 dx=0 dy=0 dh=200 dv=0
PairPos2: "'kern' Horizontal Kerning in Arabic lookup 0 subtable" afii57410 dx=0 dy=0 dh=0 dv=0 dx=0 dy=0 dh=200 dv=0
PairPos2: "'kern' Horizontal Kerning in Arabic lookup 0 subtable" afii57415 dx=0 dy=0 dh=0 dv=0 dx=0 dy=0 dh=50 dv=0
EndChar

StartChar: semicolon
Encoding: 59 59 30
Width: 682
GlyphClass: 2
Flags: W
LayerCount: 2
Fore
SplineSet
395 968 m 256,0,1
 423 968 423 968 448 955.5 c 128,-1,2
 473 943 473 943 489.5 920 c 128,-1,3
 506 897 506 897 511.5 865 c 128,-1,4
 517 833 517 833 506 794 c 0,5,6
 496 754 496 754 473.5 721.5 c 128,-1,7
 451 689 451 689 422.5 666.5 c 128,-1,8
 394 644 394 644 362.5 632 c 128,-1,9
 331 620 331 620 302 620 c 256,10,11
 273 620 273 620 247.5 632 c 128,-1,12
 222 644 222 644 205.5 666.5 c 128,-1,13
 189 689 189 689 183.5 721 c 128,-1,14
 178 753 178 753 189 794 c 256,15,16
 200 835 200 835 223.5 867.5 c 128,-1,17
 247 900 247 900 275.5 922.5 c 128,-1,18
 304 945 304 945 335.5 956.5 c 128,-1,19
 367 968 367 968 395 968 c 256,0,1
-99 -321 m 1,20,21
 -23 -278 -23 -278 30 -241 c 128,-1,22
 83 -204 83 -204 118 -171.5 c 128,-1,23
 153 -139 153 -139 172 -110.5 c 128,-1,24
 191 -82 191 -82 198 -55 c 0,25,26
 203 -36 203 -36 187.5 -27.5 c 128,-1,27
 172 -19 172 -19 147.5 -13.5 c 128,-1,28
 123 -8 123 -8 94 -1.5 c 128,-1,29
 65 5 65 5 43 21 c 128,-1,30
 21 37 21 37 11.5 66 c 128,-1,31
 2 95 2 95 15 145 c 0,32,33
 27 189 27 189 48.5 221.5 c 128,-1,34
 70 254 70 254 97 275.5 c 128,-1,35
 124 297 124 297 155 308 c 128,-1,36
 186 319 186 319 216 319 c 0,37,38
 254 319 254 319 284.5 304 c 128,-1,39
 315 289 315 289 334 259 c 128,-1,40
 353 229 353 229 357.5 184.5 c 128,-1,41
 362 140 362 140 346 81 c 0,42,43
 323 -5 323 -5 271.5 -79 c 128,-1,44
 220 -153 220 -153 139 -218 c 0,45,46
 91 -257 91 -257 34 -293 c 128,-1,47
 -23 -329 -23 -329 -88 -360 c 1,48,-1
 -99 -321 l 1,20,21
EndSplineSet
Substitution2: "<17016,16016> Urdu Swash lookup 75 subtable" semicolon
PairPos2: "'kern' Horizontal Kerning in Arabic lookup 0 subtable" afii57509 dx=0 dy=0 dh=0 dv=0 dx=0 dy=0 dh=250 dv=0
PairPos2: "'kern' Horizontal Kerning in Arabic lookup 0 subtable" uni06AB dx=0 dy=0 dh=0 dv=0 dx=0 dy=0 dh=250 dv=0
PairPos2: "'kern' Horizontal Kerning in Arabic lookup 0 subtable" uni06A9 dx=0 dy=0 dh=0 dv=0 dx=0 dy=0 dh=250 dv=0
PairPos2: "'kern' Horizontal Kerning in Arabic lookup 0 subtable" uniFB94 dx=0 dy=0 dh=0 dv=0 dx=0 dy=0 dh=250 dv=0
PairPos2: "'kern' Horizontal Kerning in Arabic lookup 0 subtable" uniFBD5 dx=0 dy=0 dh=0 dv=0 dx=0 dy=0 dh=250 dv=0
PairPos2: "'kern' Horizontal Kerning in Arabic lookup 0 subtable" uni06AB.ini dx=0 dy=0 dh=0 dv=0 dx=0 dy=0 dh=250 dv=0
PairPos2: "'kern' Horizontal Kerning in Arabic lookup 0 subtable" uniFB90 dx=0 dy=0 dh=0 dv=0 dx=0 dy=0 dh=250 dv=0
PairPos2: "'kern' Horizontal Kerning in Arabic lookup 0 subtable" uniFEDB dx=0 dy=0 dh=0 dv=0 dx=0 dy=0 dh=250 dv=0
PairPos2: "'kern' Horizontal Kerning in Arabic lookup 0 subtable" uni0671 dx=0 dy=0 dh=0 dv=0 dx=0 dy=0 dh=200 dv=0
PairPos2: "'kern' Horizontal Kerning in Arabic lookup 0 subtable" afii57410 dx=0 dy=0 dh=0 dv=0 dx=0 dy=0 dh=200 dv=0
PairPos2: "'kern' Horizontal Kerning in Arabic lookup 0 subtable" afii57415 dx=0 dy=0 dh=0 dv=0 dx=0 dy=0 dh=50 dv=0
EndChar

StartChar: less
Encoding: 60 60 31
Width: 1050
GlyphClass: 2
Flags: W
LayerCount: 2
Fore
SplineSet
1137 1086 m 1,0,-1
 1078 864 l 1,1,-1
 331 533 l 1,2,3
 405 497 405 497 480 459.5 c 128,-1,4
 555 422 555 422 627.5 381.5 c 128,-1,5
 700 341 700 341 769.5 297.5 c 128,-1,6
 839 254 839 254 901 205 c 1,7,-1
 841 -20 l 1,8,-1
 -69 490 l 1,9,-1
 -46 578 l 1,10,-1
 1137 1086 l 1,0,-1
EndSplineSet
Substitution2: "<17016,16016> Urdu Swash lookup 75 subtable" less
PairPos2: "'kern' Horizontal Kerning in Arabic lookup 0 subtable" afii57509 dx=0 dy=0 dh=0 dv=0 dx=0 dy=0 dh=250 dv=0
PairPos2: "'kern' Horizontal Kerning in Arabic lookup 0 subtable" uni06AB dx=0 dy=0 dh=0 dv=0 dx=0 dy=0 dh=250 dv=0
PairPos2: "'kern' Horizontal Kerning in Arabic lookup 0 subtable" uni06A9 dx=0 dy=0 dh=0 dv=0 dx=0 dy=0 dh=250 dv=0
PairPos2: "'kern' Horizontal Kerning in Arabic lookup 0 subtable" uniFB94 dx=0 dy=0 dh=0 dv=0 dx=0 dy=0 dh=250 dv=0
PairPos2: "'kern' Horizontal Kerning in Arabic lookup 0 subtable" uniFBD5 dx=0 dy=0 dh=0 dv=0 dx=0 dy=0 dh=250 dv=0
PairPos2: "'kern' Horizontal Kerning in Arabic lookup 0 subtable" uni06AB.ini dx=0 dy=0 dh=0 dv=0 dx=0 dy=0 dh=250 dv=0
PairPos2: "'kern' Horizontal Kerning in Arabic lookup 0 subtable" uniFB90 dx=0 dy=0 dh=0 dv=0 dx=0 dy=0 dh=250 dv=0
PairPos2: "'kern' Horizontal Kerning in Arabic lookup 0 subtable" uniFEDB dx=0 dy=0 dh=0 dv=0 dx=0 dy=0 dh=250 dv=0
PairPos2: "'kern' Horizontal Kerning in Arabic lookup 0 subtable" uni0671 dx=0 dy=0 dh=0 dv=0 dx=0 dy=0 dh=200 dv=0
PairPos2: "'kern' Horizontal Kerning in Arabic lookup 0 subtable" afii57410 dx=0 dy=0 dh=0 dv=0 dx=0 dy=0 dh=200 dv=0
PairPos2: "'kern' Horizontal Kerning in Arabic lookup 0 subtable" afii57415 dx=0 dy=0 dh=0 dv=0 dx=0 dy=0 dh=50 dv=0
EndChar

StartChar: equal
Encoding: 61 61 32
Width: 1050
GlyphClass: 2
Flags: W
LayerCount: 2
Fore
SplineSet
956 420 m 1,0,-1
 900 210 l 1,1,-1
 -137 210 l 1,2,-1
 -81 420 l 1,3,-1
 956 420 l 1,0,-1
1074 859 m 1,4,-1
 1017 646 l 1,5,-1
 -20 646 l 1,6,-1
 37 859 l 1,7,-1
 1074 859 l 1,4,-1
EndSplineSet
Substitution2: "<17016,16016> Urdu Swash lookup 75 subtable" equal
PairPos2: "'kern' Horizontal Kerning in Arabic lookup 0 subtable" afii57509 dx=0 dy=0 dh=0 dv=0 dx=0 dy=0 dh=250 dv=0
PairPos2: "'kern' Horizontal Kerning in Arabic lookup 0 subtable" uni06AB dx=0 dy=0 dh=0 dv=0 dx=0 dy=0 dh=250 dv=0
PairPos2: "'kern' Horizontal Kerning in Arabic lookup 0 subtable" uni06A9 dx=0 dy=0 dh=0 dv=0 dx=0 dy=0 dh=250 dv=0
PairPos2: "'kern' Horizontal Kerning in Arabic lookup 0 subtable" uniFB94 dx=0 dy=0 dh=0 dv=0 dx=0 dy=0 dh=250 dv=0
PairPos2: "'kern' Horizontal Kerning in Arabic lookup 0 subtable" uniFBD5 dx=0 dy=0 dh=0 dv=0 dx=0 dy=0 dh=250 dv=0
PairPos2: "'kern' Horizontal Kerning in Arabic lookup 0 subtable" uni06AB.ini dx=0 dy=0 dh=0 dv=0 dx=0 dy=0 dh=250 dv=0
PairPos2: "'kern' Horizontal Kerning in Arabic lookup 0 subtable" uniFB90 dx=0 dy=0 dh=0 dv=0 dx=0 dy=0 dh=250 dv=0
PairPos2: "'kern' Horizontal Kerning in Arabic lookup 0 subtable" uniFEDB dx=0 dy=0 dh=0 dv=0 dx=0 dy=0 dh=250 dv=0
PairPos2: "'kern' Horizontal Kerning in Arabic lookup 0 subtable" uni0671 dx=0 dy=0 dh=0 dv=0 dx=0 dy=0 dh=200 dv=0
PairPos2: "'kern' Horizontal Kerning in Arabic lookup 0 subtable" afii57410 dx=0 dy=0 dh=0 dv=0 dx=0 dy=0 dh=200 dv=0
PairPos2: "'kern' Horizontal Kerning in Arabic lookup 0 subtable" afii57415 dx=0 dy=0 dh=0 dv=0 dx=0 dy=0 dh=50 dv=0
EndChar

StartChar: greater
Encoding: 62 62 33
Width: 1050
GlyphClass: 2
Flags: W
LayerCount: 2
Fore
SplineSet
1002 578 m 1,0,-1
 979 490 l 1,1,-1
 -204 -20 l 1,2,-1
 -145 205 l 1,3,4
 33 303 33 303 223 381.5 c 128,-1,5
 413 460 413 460 601 533 c 1,6,-1
 32 864 l 1,7,-1
 91 1086 l 1,8,-1
 1002 578 l 1,0,-1
EndSplineSet
Substitution2: "<17016,16016> Urdu Swash lookup 75 subtable" greater
PairPos2: "'kern' Horizontal Kerning in Arabic lookup 0 subtable" afii57509 dx=0 dy=0 dh=0 dv=0 dx=0 dy=0 dh=250 dv=0
PairPos2: "'kern' Horizontal Kerning in Arabic lookup 0 subtable" uni06AB dx=0 dy=0 dh=0 dv=0 dx=0 dy=0 dh=250 dv=0
PairPos2: "'kern' Horizontal Kerning in Arabic lookup 0 subtable" uni06A9 dx=0 dy=0 dh=0 dv=0 dx=0 dy=0 dh=250 dv=0
PairPos2: "'kern' Horizontal Kerning in Arabic lookup 0 subtable" uniFB94 dx=0 dy=0 dh=0 dv=0 dx=0 dy=0 dh=250 dv=0
PairPos2: "'kern' Horizontal Kerning in Arabic lookup 0 subtable" uniFBD5 dx=0 dy=0 dh=0 dv=0 dx=0 dy=0 dh=250 dv=0
PairPos2: "'kern' Horizontal Kerning in Arabic lookup 0 subtable" uni06AB.ini dx=0 dy=0 dh=0 dv=0 dx=0 dy=0 dh=250 dv=0
PairPos2: "'kern' Horizontal Kerning in Arabic lookup 0 subtable" uniFB90 dx=0 dy=0 dh=0 dv=0 dx=0 dy=0 dh=250 dv=0
PairPos2: "'kern' Horizontal Kerning in Arabic lookup 0 subtable" uniFEDB dx=0 dy=0 dh=0 dv=0 dx=0 dy=0 dh=250 dv=0
PairPos2: "'kern' Horizontal Kerning in Arabic lookup 0 subtable" uni0671 dx=0 dy=0 dh=0 dv=0 dx=0 dy=0 dh=200 dv=0
PairPos2: "'kern' Horizontal Kerning in Arabic lookup 0 subtable" afii57410 dx=0 dy=0 dh=0 dv=0 dx=0 dy=0 dh=200 dv=0
PairPos2: "'kern' Horizontal Kerning in Arabic lookup 0 subtable" afii57415 dx=0 dy=0 dh=0 dv=0 dx=0 dy=0 dh=50 dv=0
EndChar

StartChar: question
Encoding: 63 63 34
Width: 1024
GlyphClass: 2
Flags: W
LayerCount: 2
Fore
SplineSet
365 319 m 0,0,1
 392 319 392 319 417.5 307.5 c 128,-1,2
 443 296 443 296 460 274 c 128,-1,3
 477 252 477 252 482.5 219.5 c 128,-1,4
 488 187 488 187 477 145 c 0,5,6
 466 104 466 104 443.5 71.5 c 128,-1,7
 421 39 421 39 392.5 16.5 c 128,-1,8
 364 -6 364 -6 332.5 -17.5 c 128,-1,9
 301 -29 301 -29 272 -29 c 0,10,11
 244 -29 244 -29 218.5 -17.5 c 128,-1,12
 193 -6 193 -6 176.5 16.5 c 128,-1,13
 160 39 160 39 154.5 71 c 128,-1,14
 149 103 149 103 160 145 c 256,15,16
 171 187 171 187 194 219.5 c 128,-1,17
 217 252 217 252 246 274 c 128,-1,18
 275 296 275 296 306 307.5 c 128,-1,19
 337 319 337 319 365 319 c 0,0,1
668 1410 m 0,20,21
 756 1410 756 1410 822.5 1386.5 c 128,-1,22
 889 1363 889 1363 929.5 1319.5 c 128,-1,23
 970 1276 970 1276 982.5 1213.5 c 128,-1,24
 995 1151 995 1151 974 1074 c 0,25,26
 948 975 948 975 883.5 901.5 c 128,-1,27
 819 828 819 828 729 777 c 0,28,29
 716 770 716 770 697 759.5 c 128,-1,30
 678 749 678 749 657.5 738 c 128,-1,31
 637 727 637 727 617 716.5 c 128,-1,32
 597 706 597 706 583 698 c 0,33,34
 550 681 550 681 527 664 c 128,-1,35
 504 647 504 647 490 630 c 2,36,-1
 491 631 l 1,37,38
 457 588 457 588 420 473 c 1,39,-1
 387 473 l 1,40,-1
 409 561 l 2,41,42
 433 653 433 653 542 786 c 0,43,44
 657 925 657 925 698 1075 c 0,45,46
 730 1198 730 1198 702.5 1266 c 128,-1,47
 675 1334 675 1334 572 1334 c 0,48,49
 538 1334 538 1334 511.5 1327 c 128,-1,50
 485 1320 485 1320 466.5 1308 c 128,-1,51
 448 1296 448 1296 437 1281.5 c 128,-1,52
 426 1267 426 1267 422 1252 c 0,53,54
 418 1242 418 1242 422 1234.5 c 128,-1,55
 426 1227 426 1227 434 1211 c 2,56,-1
 443 1194 l 2,57,58
 457 1170 457 1170 459.5 1146 c 128,-1,59
 462 1122 462 1122 451 1084 c 0,60,61
 442 1051 442 1051 425 1027 c 128,-1,62
 408 1003 408 1003 387.5 988 c 128,-1,63
 367 973 367 973 345 966 c 128,-1,64
 323 959 323 959 303 959 c 0,65,66
 282 959 282 959 262.5 967.5 c 128,-1,67
 243 976 243 976 230 994.5 c 128,-1,68
 217 1013 217 1013 213.5 1043.5 c 128,-1,69
 210 1074 210 1074 222 1117 c 0,70,71
 252 1231 252 1231 366 1318 c 0,72,73
 485 1410 485 1410 668 1410 c 0,20,21
EndSplineSet
Substitution2: "<17016,16016> Urdu Swash lookup 75 subtable" question
PairPos2: "'kern' Horizontal Kerning in Arabic lookup 0 subtable" afii57509 dx=0 dy=0 dh=0 dv=0 dx=0 dy=0 dh=250 dv=0
PairPos2: "'kern' Horizontal Kerning in Arabic lookup 0 subtable" uni06AB dx=0 dy=0 dh=0 dv=0 dx=0 dy=0 dh=250 dv=0
PairPos2: "'kern' Horizontal Kerning in Arabic lookup 0 subtable" uni06A9 dx=0 dy=0 dh=0 dv=0 dx=0 dy=0 dh=250 dv=0
PairPos2: "'kern' Horizontal Kerning in Arabic lookup 0 subtable" uniFB94 dx=0 dy=0 dh=0 dv=0 dx=0 dy=0 dh=250 dv=0
PairPos2: "'kern' Horizontal Kerning in Arabic lookup 0 subtable" uniFBD5 dx=0 dy=0 dh=0 dv=0 dx=0 dy=0 dh=250 dv=0
PairPos2: "'kern' Horizontal Kerning in Arabic lookup 0 subtable" uni06AB.ini dx=0 dy=0 dh=0 dv=0 dx=0 dy=0 dh=250 dv=0
PairPos2: "'kern' Horizontal Kerning in Arabic lookup 0 subtable" uniFB90 dx=0 dy=0 dh=0 dv=0 dx=0 dy=0 dh=250 dv=0
PairPos2: "'kern' Horizontal Kerning in Arabic lookup 0 subtable" uniFEDB dx=0 dy=0 dh=0 dv=0 dx=0 dy=0 dh=250 dv=0
PairPos2: "'kern' Horizontal Kerning in Arabic lookup 0 subtable" uni0671 dx=0 dy=0 dh=0 dv=0 dx=0 dy=0 dh=200 dv=0
PairPos2: "'kern' Horizontal Kerning in Arabic lookup 0 subtable" afii57410 dx=0 dy=0 dh=0 dv=0 dx=0 dy=0 dh=200 dv=0
PairPos2: "'kern' Horizontal Kerning in Arabic lookup 0 subtable" afii57415 dx=0 dy=0 dh=0 dv=0 dx=0 dy=0 dh=50 dv=0
EndChar

StartChar: at
Encoding: 64 64 35
Width: 1905
GlyphClass: 2
Flags: W
LayerCount: 2
Fore
SplineSet
1095 944 m 0,0,1
 982 944 982 944 854 767 c 0,2,3
 724 584 724 584 702 497 c 0,4,5
 696 476 696 476 696.5 455 c 128,-1,6
 697 434 697 434 702 413 c 1,7,-1
 702 414 l 1,8,9
 714 378 714 378 776 378 c 0,10,11
 901 378 901 378 1022 570 c 0,12,13
 1146 764 1146 764 1167 843 c 0,14,15
 1195 944 1195 944 1095 944 c 0,0,1
1365 138 m 1,16,17
 1190 43 1190 43 1038.5 1 c 128,-1,18
 887 -41 887 -41 753 -41 c 0,19,20
 592 -41 592 -41 466 9.5 c 128,-1,21
 340 60 340 60 252 157 c 0,22,23
 171 252 171 252 145.5 373.5 c 128,-1,24
 120 495 120 495 158 637 c 0,25,26
 247 967 247 967 560 1190 c 0,27,28
 878 1415 878 1415 1217 1415 c 0,29,30
 1485 1415 1485 1415 1640 1266 c 0,31,32
 1804 1107 1804 1107 1729 828 c 0,33,34
 1670 606 1670 606 1490 445 c 0,35,36
 1308 284 1308 284 1158 282 c 0,37,38
 1120 282 1120 282 1088.5 292 c 128,-1,39
 1057 302 1057 302 1036 322 c 128,-1,40
 1015 342 1015 342 1006.5 371 c 128,-1,41
 998 400 998 400 1006 437 c 1,42,-1
 981 437 l 1,43,44
 904 352 904 352 837 317 c 128,-1,45
 770 282 770 282 704 282 c 0,46,47
 654 282 654 282 613 303 c 128,-1,48
 572 324 572 324 546.5 362.5 c 128,-1,49
 521 401 521 401 514 455.5 c 128,-1,50
 507 510 507 510 525 578 c 0,51,52
 572 751 572 751 739 893 c 0,53,54
 911 1041 911 1041 1066 1041 c 0,55,56
 1124 1041 1124 1041 1164 1013.5 c 128,-1,57
 1204 986 1204 986 1215 923 c 1,58,-1
 1242 923 l 1,59,60
 1256 946 1256 946 1269 968 c 128,-1,61
 1282 990 1282 990 1294 1013 c 1,62,-1
 1488 1013 l 1,63,64
 1485 1009 1485 1009 1472.5 988.5 c 128,-1,65
 1460 968 1460 968 1439.5 933 c 128,-1,66
 1419 898 1419 898 1391.5 850.5 c 128,-1,67
 1364 803 1364 803 1331 746 c 0,68,69
 1259 619 1259 619 1215 539.5 c 128,-1,70
 1171 460 1171 460 1167 446 c 0,71,72
 1164 435 1164 435 1167.5 423 c 128,-1,73
 1171 411 1171 411 1180.5 400.5 c 128,-1,74
 1190 390 1190 390 1205 383.5 c 128,-1,75
 1220 377 1220 377 1240 377 c 0,76,77
 1342 377 1342 377 1476 511 c 0,78,79
 1547 580 1547 580 1593.5 658.5 c 128,-1,80
 1640 737 1640 737 1664 825 c 0,81,82
 1693 933 1693 933 1670 1025 c 128,-1,83
 1647 1117 1647 1117 1585 1183 c 1,84,85
 1519 1244 1519 1244 1427 1277.5 c 128,-1,86
 1335 1311 1335 1311 1224 1311 c 0,87,88
 1062 1311 1062 1311 908 1253 c 128,-1,89
 754 1195 754 1195 620 1088 c 1,90,91
 502 988 502 988 421.5 875 c 128,-1,92
 341 762 341 762 309 644 c 0,93,94
 231 354 231 354 398 189 c 0,95,96
 536 51 536 51 799 51 c 0,97,98
 864 51 864 51 929.5 60 c 128,-1,99
 995 69 995 69 1053 83 c 128,-1,100
 1111 97 1111 97 1157 113 c 128,-1,101
 1203 129 1203 129 1230 144 c 0,102,103
 1253 155 1253 155 1281 169.5 c 128,-1,104
 1309 184 1309 184 1340 201 c 1,105,-1
 1365 138 l 1,16,17
EndSplineSet
Substitution2: "<17016,16016> Urdu Swash lookup 75 subtable" at
PairPos2: "'kern' Horizontal Kerning in Arabic lookup 0 subtable" afii57509 dx=0 dy=0 dh=0 dv=0 dx=0 dy=0 dh=250 dv=0
PairPos2: "'kern' Horizontal Kerning in Arabic lookup 0 subtable" uni06AB dx=0 dy=0 dh=0 dv=0 dx=0 dy=0 dh=250 dv=0
PairPos2: "'kern' Horizontal Kerning in Arabic lookup 0 subtable" uni06A9 dx=0 dy=0 dh=0 dv=0 dx=0 dy=0 dh=250 dv=0
PairPos2: "'kern' Horizontal Kerning in Arabic lookup 0 subtable" uniFB94 dx=0 dy=0 dh=0 dv=0 dx=0 dy=0 dh=250 dv=0
PairPos2: "'kern' Horizontal Kerning in Arabic lookup 0 subtable" uniFBD5 dx=0 dy=0 dh=0 dv=0 dx=0 dy=0 dh=250 dv=0
PairPos2: "'kern' Horizontal Kerning in Arabic lookup 0 subtable" uni06AB.ini dx=0 dy=0 dh=0 dv=0 dx=0 dy=0 dh=250 dv=0
PairPos2: "'kern' Horizontal Kerning in Arabic lookup 0 subtable" uniFB90 dx=0 dy=0 dh=0 dv=0 dx=0 dy=0 dh=250 dv=0
PairPos2: "'kern' Horizontal Kerning in Arabic lookup 0 subtable" uniFEDB dx=0 dy=0 dh=0 dv=0 dx=0 dy=0 dh=250 dv=0
PairPos2: "'kern' Horizontal Kerning in Arabic lookup 0 subtable" uni0671 dx=0 dy=0 dh=0 dv=0 dx=0 dy=0 dh=200 dv=0
PairPos2: "'kern' Horizontal Kerning in Arabic lookup 0 subtable" afii57410 dx=0 dy=0 dh=0 dv=0 dx=0 dy=0 dh=200 dv=0
PairPos2: "'kern' Horizontal Kerning in Arabic lookup 0 subtable" afii57415 dx=0 dy=0 dh=0 dv=0 dx=0 dy=0 dh=50 dv=0
EndChar

StartChar: A
Encoding: 65 65 36
Width: 1479
GlyphClass: 2
Flags: W
LayerCount: 2
Fore
SplineSet
322 484 m 1,0,-1
 745 484 l 1,1,2
 743 499 743 499 738 535.5 c 128,-1,3
 733 572 733 572 726 619.5 c 128,-1,4
 719 667 719 667 711.5 720.5 c 128,-1,5
 704 774 704 774 697 821.5 c 128,-1,6
 690 869 690 869 684.5 905.5 c 128,-1,7
 679 942 679 942 677 956 c 1,8,-1
 634 956 l 1,9,10
 596 897 596 897 556.5 838 c 128,-1,11
 517 779 517 779 478 720 c 2,12,-1
 322 484 l 1,0,-1
-135 55 m 1,13,14
 -100 57 -100 57 -65 76 c 128,-1,15
 -30 95 -30 95 -1 121 c 0,16,17
 22 144 22 144 55 187 c 128,-1,18
 88 230 88 230 130 292 c 2,19,-1
 884 1412 l 1,20,-1
 915 1412 l 1,21,-1
 1083 337 l 2,22,23
 1096 254 1096 254 1109.5 194.5 c 128,-1,24
 1123 135 1123 135 1137 104 c 0,25,26
 1161 54 1161 54 1229 54 c 1,27,-1
 1215 0 l 1,28,-1
 581 0 l 1,29,-1
 595 55 l 1,30,31
 643 57 643 57 674.5 60.5 c 128,-1,32
 706 64 706 64 723 71 c 0,33,34
 768 90 768 90 780 136 c 0,35,36
 785 154 785 154 784 184.5 c 128,-1,37
 783 215 783 215 778.5 251 c 128,-1,38
 774 287 774 287 768 326 c 128,-1,39
 762 365 762 365 756 401 c 1,40,-1
 269 401 l 1,41,42
 236 348 236 348 212 311 c 128,-1,43
 188 274 188 274 172 248 c 128,-1,44
 156 222 156 222 145.5 205.5 c 128,-1,45
 135 189 135 189 128.5 176 c 128,-1,46
 122 163 122 163 118.5 152.5 c 128,-1,47
 115 142 115 142 111 129 c 0,48,49
 103 100 103 100 138 78 c 128,-1,50
 173 56 173 56 254 54 c 1,51,-1
 240 0 l 1,52,-1
 -149 0 l 1,53,-1
 -135 55 l 1,13,14
EndSplineSet
Substitution2: "<17016,16016> Urdu Swash lookup 75 subtable" A
PairPos2: "'kern' Horizontal Kerning in Arabic lookup 0 subtable" afii57509 dx=0 dy=0 dh=0 dv=0 dx=0 dy=0 dh=250 dv=0
PairPos2: "'kern' Horizontal Kerning in Arabic lookup 0 subtable" uni06AB dx=0 dy=0 dh=0 dv=0 dx=0 dy=0 dh=250 dv=0
PairPos2: "'kern' Horizontal Kerning in Arabic lookup 0 subtable" uni06A9 dx=0 dy=0 dh=0 dv=0 dx=0 dy=0 dh=250 dv=0
PairPos2: "'kern' Horizontal Kerning in Arabic lookup 0 subtable" uniFB94 dx=0 dy=0 dh=0 dv=0 dx=0 dy=0 dh=250 dv=0
PairPos2: "'kern' Horizontal Kerning in Arabic lookup 0 subtable" uniFBD5 dx=0 dy=0 dh=0 dv=0 dx=0 dy=0 dh=250 dv=0
PairPos2: "'kern' Horizontal Kerning in Arabic lookup 0 subtable" uni06AB.ini dx=0 dy=0 dh=0 dv=0 dx=0 dy=0 dh=250 dv=0
PairPos2: "'kern' Horizontal Kerning in Arabic lookup 0 subtable" uniFB90 dx=0 dy=0 dh=0 dv=0 dx=0 dy=0 dh=250 dv=0
PairPos2: "'kern' Horizontal Kerning in Arabic lookup 0 subtable" uniFEDB dx=0 dy=0 dh=0 dv=0 dx=0 dy=0 dh=250 dv=0
PairPos2: "'kern' Horizontal Kerning in Arabic lookup 0 subtable" uni0671 dx=0 dy=0 dh=0 dv=0 dx=0 dy=0 dh=200 dv=0
PairPos2: "'kern' Horizontal Kerning in Arabic lookup 0 subtable" afii57410 dx=0 dy=0 dh=0 dv=0 dx=0 dy=0 dh=200 dv=0
PairPos2: "'kern' Horizontal Kerning in Arabic lookup 0 subtable" afii57415 dx=0 dy=0 dh=0 dv=0 dx=0 dy=0 dh=50 dv=0
EndChar

StartChar: B
Encoding: 66 66 37
Width: 1366
GlyphClass: 2
Flags: W
LayerCount: 2
Fore
SplineSet
953 1045 m 0,0,1
 983 1157 983 1157 960 1241 c 0,2,3
 939 1320 939 1320 806 1320 c 0,4,5
 770 1320 770 1320 744.5 1315 c 128,-1,6
 719 1310 719 1310 701 1298.5 c 128,-1,7
 683 1287 683 1287 671.5 1268.5 c 128,-1,8
 660 1250 660 1250 652 1222 c 2,9,-1
 529 764 l 1,10,-1
 543 764 l 2,11,12
 742 764 742 764 824 826 c 0,13,14
 910 892 910 892 953 1045 c 0,0,1
373 112 m 0,15,16
 387 68 387 68 469 68 c 0,17,18
 625 68 625 68 704 147 c 0,19,20
 788 231 788 231 826 370 c 0,21,22
 854 474 854 474 837.5 547 c 128,-1,23
 821 620 821 620 767 659 c 1,24,25
 735 677 735 677 676.5 688.5 c 128,-1,26
 618 700 618 700 542 700 c 2,27,-1
 526 700 l 1,28,-1
 512 700 l 1,29,-1
 375 190 l 2,30,31
 370 165 370 165 369 145.5 c 128,-1,32
 368 126 368 126 373 112 c 0,15,16
-139 55 m 1,33,34
 -101 57 -101 57 -70 62.5 c 128,-1,35
 -39 68 -39 68 -21 76 c 0,36,37
 15 93 15 93 41.5 124.5 c 128,-1,38
 68 156 68 156 79 197 c 2,39,-1
 344 1186 l 2,40,41
 366 1270 366 1270 312 1306 c 0,42,43
 284 1325 284 1325 203 1329 c 1,44,-1
 217 1384 l 1,45,-1
 835 1384 l 2,46,47
 1088 1384 1088 1384 1198 1301.5 c 128,-1,48
 1308 1219 1308 1219 1264 1054 c 0,49,50
 1228 922 1228 922 1123 851 c 0,51,52
 1066 813 1066 813 1011.5 789.5 c 128,-1,53
 957 766 957 766 903 757 c 1,54,-1
 892 757 l 1,55,-1
 888 740 l 1,56,-1
 899 740 l 1,57,58
 975 724 975 724 1031.5 692.5 c 128,-1,59
 1088 661 1088 661 1121 615.5 c 128,-1,60
 1154 570 1154 570 1163 511 c 128,-1,61
 1172 452 1172 452 1153 381 c 0,62,63
 1129 292 1129 292 1069 221 c 128,-1,64
 1009 150 1009 150 921.5 101 c 128,-1,65
 834 52 834 52 724 26 c 128,-1,66
 614 0 614 0 491 0 c 2,67,-1
 -153 0 l 1,68,-1
 -139 55 l 1,33,34
EndSplineSet
Substitution2: "<17016,16016> Urdu Swash lookup 75 subtable" B
PairPos2: "'kern' Horizontal Kerning in Arabic lookup 0 subtable" afii57509 dx=0 dy=0 dh=0 dv=0 dx=0 dy=0 dh=250 dv=0
PairPos2: "'kern' Horizontal Kerning in Arabic lookup 0 subtable" uni06AB dx=0 dy=0 dh=0 dv=0 dx=0 dy=0 dh=250 dv=0
PairPos2: "'kern' Horizontal Kerning in Arabic lookup 0 subtable" uni06A9 dx=0 dy=0 dh=0 dv=0 dx=0 dy=0 dh=250 dv=0
PairPos2: "'kern' Horizontal Kerning in Arabic lookup 0 subtable" uniFB94 dx=0 dy=0 dh=0 dv=0 dx=0 dy=0 dh=250 dv=0
PairPos2: "'kern' Horizontal Kerning in Arabic lookup 0 subtable" uniFBD5 dx=0 dy=0 dh=0 dv=0 dx=0 dy=0 dh=250 dv=0
PairPos2: "'kern' Horizontal Kerning in Arabic lookup 0 subtable" uni06AB.ini dx=0 dy=0 dh=0 dv=0 dx=0 dy=0 dh=250 dv=0
PairPos2: "'kern' Horizontal Kerning in Arabic lookup 0 subtable" uniFB90 dx=0 dy=0 dh=0 dv=0 dx=0 dy=0 dh=250 dv=0
PairPos2: "'kern' Horizontal Kerning in Arabic lookup 0 subtable" uniFEDB dx=0 dy=0 dh=0 dv=0 dx=0 dy=0 dh=250 dv=0
PairPos2: "'kern' Horizontal Kerning in Arabic lookup 0 subtable" uni0671 dx=0 dy=0 dh=0 dv=0 dx=0 dy=0 dh=200 dv=0
PairPos2: "'kern' Horizontal Kerning in Arabic lookup 0 subtable" afii57410 dx=0 dy=0 dh=0 dv=0 dx=0 dy=0 dh=200 dv=0
PairPos2: "'kern' Horizontal Kerning in Arabic lookup 0 subtable" afii57415 dx=0 dy=0 dh=0 dv=0 dx=0 dy=0 dh=50 dv=0
EndChar

StartChar: C
Encoding: 67 67 38
AltUni2: 00216d.ffffffff.0
Width: 1479
GlyphClass: 2
Flags: W
LayerCount: 2
Fore
SplineSet
1347 1315 m 0,0,1
 1370 1315 1370 1315 1390.5 1323.5 c 128,-1,2
 1411 1332 1411 1332 1428 1345 c 128,-1,3
 1445 1358 1445 1358 1458 1375 c 128,-1,4
 1471 1392 1471 1392 1478 1408 c 1,5,-1
 1507 1408 l 1,6,-1
 1378 928 l 1,7,-1
 1353 928 l 1,8,9
 1341 996 1341 996 1315.5 1061.5 c 128,-1,10
 1290 1127 1290 1127 1265 1173 c 0,11,12
 1215 1251 1215 1251 1140.5 1295 c 128,-1,13
 1066 1339 1066 1339 974 1339 c 0,14,15
 868 1339 868 1339 778.5 1293 c 128,-1,16
 689 1247 689 1247 621 1162 c 1,17,18
 557 1074 557 1074 501 952.5 c 128,-1,19
 445 831 445 831 407 687 c 0,20,21
 324 377 324 377 386 219 c 128,-1,22
 448 61 448 61 657 61 c 0,23,24
 735 61 735 61 819.5 85 c 128,-1,25
 904 109 904 109 980 149 c 0,26,27
 1030 177 1030 177 1087 216.5 c 128,-1,28
 1144 256 1144 256 1201 304 c 1,29,-1
 1241 262 l 1,30,31
 1163 194 1163 194 1095 144.5 c 128,-1,32
 1027 95 1027 95 978 66 c 0,33,34
 887 16 887 16 789 -12.5 c 128,-1,35
 691 -41 691 -41 598 -41 c 0,36,37
 446 -41 446 -41 328 10 c 128,-1,38
 210 61 210 61 138 155 c 128,-1,39
 66 249 66 249 46 381 c 128,-1,40
 26 513 26 513 69 675 c 0,41,42
 160 1014 160 1014 426 1216 c 0,43,44
 682 1410 682 1410 968 1410 c 0,45,46
 1030 1410 1030 1410 1090.5 1398 c 128,-1,47
 1151 1386 1151 1386 1209 1362 c 0,48,49
 1327 1315 1327 1315 1347 1315 c 0,0,1
EndSplineSet
Substitution2: "<17016,16016> Urdu Swash lookup 75 subtable" C
PairPos2: "'kern' Horizontal Kerning in Arabic lookup 0 subtable" afii57509 dx=0 dy=0 dh=0 dv=0 dx=0 dy=0 dh=250 dv=0
PairPos2: "'kern' Horizontal Kerning in Arabic lookup 0 subtable" uni06AB dx=0 dy=0 dh=0 dv=0 dx=0 dy=0 dh=250 dv=0
PairPos2: "'kern' Horizontal Kerning in Arabic lookup 0 subtable" uni06A9 dx=0 dy=0 dh=0 dv=0 dx=0 dy=0 dh=250 dv=0
PairPos2: "'kern' Horizontal Kerning in Arabic lookup 0 subtable" uniFB94 dx=0 dy=0 dh=0 dv=0 dx=0 dy=0 dh=250 dv=0
PairPos2: "'kern' Horizontal Kerning in Arabic lookup 0 subtable" uniFBD5 dx=0 dy=0 dh=0 dv=0 dx=0 dy=0 dh=250 dv=0
PairPos2: "'kern' Horizontal Kerning in Arabic lookup 0 subtable" uni06AB.ini dx=0 dy=0 dh=0 dv=0 dx=0 dy=0 dh=250 dv=0
PairPos2: "'kern' Horizontal Kerning in Arabic lookup 0 subtable" uniFB90 dx=0 dy=0 dh=0 dv=0 dx=0 dy=0 dh=250 dv=0
PairPos2: "'kern' Horizontal Kerning in Arabic lookup 0 subtable" uniFEDB dx=0 dy=0 dh=0 dv=0 dx=0 dy=0 dh=250 dv=0
PairPos2: "'kern' Horizontal Kerning in Arabic lookup 0 subtable" uni0671 dx=0 dy=0 dh=0 dv=0 dx=0 dy=0 dh=200 dv=0
PairPos2: "'kern' Horizontal Kerning in Arabic lookup 0 subtable" afii57410 dx=0 dy=0 dh=0 dv=0 dx=0 dy=0 dh=200 dv=0
PairPos2: "'kern' Horizontal Kerning in Arabic lookup 0 subtable" afii57415 dx=0 dy=0 dh=0 dv=0 dx=0 dy=0 dh=50 dv=0
EndChar

StartChar: D
Encoding: 68 68 39
AltUni2: 00216e.ffffffff.0
Width: 1479
GlyphClass: 2
Flags: W
LayerCount: 2
Fore
SplineSet
459 72 m 0,0,1
 503 72 503 72 549 81.5 c 128,-1,2
 595 91 595 91 639 108 c 128,-1,3
 683 125 683 125 724.5 148.5 c 128,-1,4
 766 172 766 172 802 200 c 1,5,6
 876 269 876 269 942.5 395 c 128,-1,7
 1009 521 1009 521 1055 692 c 0,8,9
 1068 742 1068 742 1076.5 792 c 128,-1,10
 1085 842 1085 842 1089.5 890.5 c 128,-1,11
 1094 939 1094 939 1094 983.5 c 128,-1,12
 1094 1028 1094 1028 1091 1065 c 0,13,14
 1071 1183 1071 1183 998.5 1248.5 c 128,-1,15
 926 1314 926 1314 801 1314 c 0,16,17
 759 1314 759 1314 731.5 1307.5 c 128,-1,18
 704 1301 704 1301 685 1287 c 128,-1,19
 666 1273 666 1273 655 1250.5 c 128,-1,20
 644 1228 644 1228 635 1196 c 2,21,-1
 365 190 l 2,22,23
 353 134 353 134 367 100 c 0,24,25
 380 72 380 72 459 72 c 0,0,1
-144 55 m 1,26,27
 -73 60 -73 60 -34 76 c 0,28,29
 1 94 1 94 27 122.5 c 128,-1,30
 53 151 53 151 63 188 c 2,31,-1
 333 1196 l 2,32,33
 352 1269 352 1269 298 1305 c 0,34,35
 284 1314 284 1314 259 1319.5 c 128,-1,36
 234 1325 234 1325 198 1329 c 1,37,-1
 212 1384 l 1,38,-1
 823 1384 l 2,39,40
 995 1384 995 1384 1120.5 1338.5 c 128,-1,41
 1246 1293 1246 1293 1319 1204.5 c 128,-1,42
 1392 1116 1392 1116 1409 986 c 128,-1,43
 1426 856 1426 856 1381 688 c 0,44,45
 1343 545 1343 545 1267 428.5 c 128,-1,46
 1191 312 1191 312 1077 217 c 0,47,48
 814 0 814 0 474 0 c 2,49,-1
 -158 0 l 1,50,-1
 -144 55 l 1,26,27
EndSplineSet
Substitution2: "<17016,16016> Urdu Swash lookup 75 subtable" D
PairPos2: "'kern' Horizontal Kerning in Arabic lookup 0 subtable" afii57509 dx=0 dy=0 dh=0 dv=0 dx=0 dy=0 dh=250 dv=0
PairPos2: "'kern' Horizontal Kerning in Arabic lookup 0 subtable" uni06AB dx=0 dy=0 dh=0 dv=0 dx=0 dy=0 dh=250 dv=0
PairPos2: "'kern' Horizontal Kerning in Arabic lookup 0 subtable" uni06A9 dx=0 dy=0 dh=0 dv=0 dx=0 dy=0 dh=250 dv=0
PairPos2: "'kern' Horizontal Kerning in Arabic lookup 0 subtable" uniFB94 dx=0 dy=0 dh=0 dv=0 dx=0 dy=0 dh=250 dv=0
PairPos2: "'kern' Horizontal Kerning in Arabic lookup 0 subtable" uniFBD5 dx=0 dy=0 dh=0 dv=0 dx=0 dy=0 dh=250 dv=0
PairPos2: "'kern' Horizontal Kerning in Arabic lookup 0 subtable" uni06AB.ini dx=0 dy=0 dh=0 dv=0 dx=0 dy=0 dh=250 dv=0
PairPos2: "'kern' Horizontal Kerning in Arabic lookup 0 subtable" uniFB90 dx=0 dy=0 dh=0 dv=0 dx=0 dy=0 dh=250 dv=0
PairPos2: "'kern' Horizontal Kerning in Arabic lookup 0 subtable" uniFEDB dx=0 dy=0 dh=0 dv=0 dx=0 dy=0 dh=250 dv=0
PairPos2: "'kern' Horizontal Kerning in Arabic lookup 0 subtable" uni0671 dx=0 dy=0 dh=0 dv=0 dx=0 dy=0 dh=200 dv=0
PairPos2: "'kern' Horizontal Kerning in Arabic lookup 0 subtable" afii57410 dx=0 dy=0 dh=0 dv=0 dx=0 dy=0 dh=200 dv=0
PairPos2: "'kern' Horizontal Kerning in Arabic lookup 0 subtable" afii57415 dx=0 dy=0 dh=0 dv=0 dx=0 dy=0 dh=50 dv=0
EndChar

StartChar: E
Encoding: 69 69 40
Width: 1366
GlyphClass: 2
Flags: W
LayerCount: 2
Fore
SplineSet
-153 0 m 1,0,-1
 -139 54 l 1,1,2
 -88 56 -88 56 -50.5 66 c 128,-1,3
 -13 76 -13 76 13.5 94 c 128,-1,4
 40 112 40 112 56 138 c 128,-1,5
 72 164 72 164 81 197 c 2,6,-1
 346 1186 l 2,7,8
 369 1269 369 1269 312 1306 c 0,9,10
 284 1325 284 1325 203 1329 c 1,11,-1
 217 1384 l 1,12,-1
 1367 1384 l 1,13,-1
 1256 970 l 1,14,-1
 1234 970 l 1,15,16
 1248 1161 1248 1161 1169 1240 c 0,17,18
 1096 1313 1096 1313 840 1313 c 0,19,20
 790 1313 790 1313 756 1308 c 128,-1,21
 722 1303 722 1303 707 1293 c 0,22,23
 669 1268 669 1268 656 1217 c 2,24,-1
 529 745 l 1,25,-1
 543 745 l 2,26,27
 729 745 729 745 807 808 c 0,28,29
 894 880 894 880 970 1048 c 1,30,-1
 994 1048 l 1,31,-1
 809 355 l 1,32,-1
 785 355 l 1,33,34
 808 526 808 526 756 600 c 0,35,36
 708 672 708 672 524 672 c 2,37,-1
 510 672 l 1,38,-1
 377 178 l 2,39,40
 369 149 369 149 373 126.5 c 128,-1,41
 377 104 377 104 394 90 c 0,42,43
 423 67 423 67 532 67 c 0,44,45
 735 67 735 67 880 143 c 0,46,47
 1033 225 1033 225 1181 427 c 1,48,-1
 1211 427 l 1,49,-1
 1014 0 l 1,50,-1
 -153 0 l 1,0,-1
EndSplineSet
Substitution2: "<17016,16016> Urdu Swash lookup 75 subtable" E
PairPos2: "'kern' Horizontal Kerning in Arabic lookup 0 subtable" afii57509 dx=0 dy=0 dh=0 dv=0 dx=0 dy=0 dh=250 dv=0
PairPos2: "'kern' Horizontal Kerning in Arabic lookup 0 subtable" uni06AB dx=0 dy=0 dh=0 dv=0 dx=0 dy=0 dh=250 dv=0
PairPos2: "'kern' Horizontal Kerning in Arabic lookup 0 subtable" uni06A9 dx=0 dy=0 dh=0 dv=0 dx=0 dy=0 dh=250 dv=0
PairPos2: "'kern' Horizontal Kerning in Arabic lookup 0 subtable" uniFB94 dx=0 dy=0 dh=0 dv=0 dx=0 dy=0 dh=250 dv=0
PairPos2: "'kern' Horizontal Kerning in Arabic lookup 0 subtable" uniFBD5 dx=0 dy=0 dh=0 dv=0 dx=0 dy=0 dh=250 dv=0
PairPos2: "'kern' Horizontal Kerning in Arabic lookup 0 subtable" uni06AB.ini dx=0 dy=0 dh=0 dv=0 dx=0 dy=0 dh=250 dv=0
PairPos2: "'kern' Horizontal Kerning in Arabic lookup 0 subtable" uniFB90 dx=0 dy=0 dh=0 dv=0 dx=0 dy=0 dh=250 dv=0
PairPos2: "'kern' Horizontal Kerning in Arabic lookup 0 subtable" uniFEDB dx=0 dy=0 dh=0 dv=0 dx=0 dy=0 dh=250 dv=0
PairPos2: "'kern' Horizontal Kerning in Arabic lookup 0 subtable" uni0671 dx=0 dy=0 dh=0 dv=0 dx=0 dy=0 dh=200 dv=0
PairPos2: "'kern' Horizontal Kerning in Arabic lookup 0 subtable" afii57410 dx=0 dy=0 dh=0 dv=0 dx=0 dy=0 dh=200 dv=0
PairPos2: "'kern' Horizontal Kerning in Arabic lookup 0 subtable" afii57415 dx=0 dy=0 dh=0 dv=0 dx=0 dy=0 dh=50 dv=0
EndChar

StartChar: F
Encoding: 70 70 41
Width: 1251
GlyphClass: 2
Flags: W
LayerCount: 2
Fore
SplineSet
-139 54 m 1,0,1
 -88 56 -88 56 -50.5 66 c 128,-1,2
 -13 76 -13 76 13.5 94 c 128,-1,3
 40 112 40 112 56 138 c 128,-1,4
 72 164 72 164 81 197 c 2,5,-1
 346 1186 l 2,6,7
 357 1224 357 1224 347 1255.5 c 128,-1,8
 337 1287 337 1287 314 1305 c 1,9,-1
 315 1305 l 1,10,11
 300 1313 300 1313 272 1319.5 c 128,-1,12
 244 1326 244 1326 203 1329 c 1,13,-1
 217 1384 l 1,14,-1
 1348 1384 l 1,15,-1
 1237 970 l 1,16,-1
 1215 970 l 1,17,18
 1228 1153 1228 1153 1155 1236 c 0,19,20
 1084 1313 1084 1313 834 1313 c 0,21,22
 736 1313 736 1313 706 1292 c 0,23,24
 668 1268 668 1268 656 1217 c 2,25,-1
 529 745 l 1,26,-1
 543 745 l 2,27,28
 633 745 633 745 694.5 761 c 128,-1,29
 756 777 756 777 797 815 c 0,30,31
 879 893 879 893 951 1048 c 1,32,-1
 975 1048 l 1,33,-1
 790 355 l 1,34,-1
 766 355 l 1,35,36
 789 517 789 517 742 596 c 0,37,38
 700 672 700 672 524 672 c 2,39,-1
 510 672 l 1,40,-1
 382 197 l 2,41,42
 370 152 370 152 377 124.5 c 128,-1,43
 384 97 384 97 408.5 81 c 128,-1,44
 433 65 433 65 473.5 59.5 c 128,-1,45
 514 54 514 54 569 54 c 1,46,-1
 555 0 l 1,47,-1
 -153 0 l 1,48,-1
 -139 54 l 1,0,1
EndSplineSet
Substitution2: "<17016,16016> Urdu Swash lookup 75 subtable" F
PairPos2: "'kern' Horizontal Kerning in Arabic lookup 0 subtable" afii57509 dx=0 dy=0 dh=0 dv=0 dx=0 dy=0 dh=250 dv=0
PairPos2: "'kern' Horizontal Kerning in Arabic lookup 0 subtable" uni06AB dx=0 dy=0 dh=0 dv=0 dx=0 dy=0 dh=250 dv=0
PairPos2: "'kern' Horizontal Kerning in Arabic lookup 0 subtable" uni06A9 dx=0 dy=0 dh=0 dv=0 dx=0 dy=0 dh=250 dv=0
PairPos2: "'kern' Horizontal Kerning in Arabic lookup 0 subtable" uniFB94 dx=0 dy=0 dh=0 dv=0 dx=0 dy=0 dh=250 dv=0
PairPos2: "'kern' Horizontal Kerning in Arabic lookup 0 subtable" uniFBD5 dx=0 dy=0 dh=0 dv=0 dx=0 dy=0 dh=250 dv=0
PairPos2: "'kern' Horizontal Kerning in Arabic lookup 0 subtable" uni06AB.ini dx=0 dy=0 dh=0 dv=0 dx=0 dy=0 dh=250 dv=0
PairPos2: "'kern' Horizontal Kerning in Arabic lookup 0 subtable" uniFB90 dx=0 dy=0 dh=0 dv=0 dx=0 dy=0 dh=250 dv=0
PairPos2: "'kern' Horizontal Kerning in Arabic lookup 0 subtable" uniFEDB dx=0 dy=0 dh=0 dv=0 dx=0 dy=0 dh=250 dv=0
PairPos2: "'kern' Horizontal Kerning in Arabic lookup 0 subtable" uni0671 dx=0 dy=0 dh=0 dv=0 dx=0 dy=0 dh=200 dv=0
PairPos2: "'kern' Horizontal Kerning in Arabic lookup 0 subtable" afii57410 dx=0 dy=0 dh=0 dv=0 dx=0 dy=0 dh=200 dv=0
PairPos2: "'kern' Horizontal Kerning in Arabic lookup 0 subtable" afii57415 dx=0 dy=0 dh=0 dv=0 dx=0 dy=0 dh=50 dv=0
EndChar

StartChar: G
Encoding: 71 71 42
Width: 1593
GlyphClass: 2
Flags: W
LayerCount: 2
Fore
SplineSet
402 1195 m 0,0,1
 662 1410 662 1410 969 1410 c 0,2,3
 1027 1410 1027 1410 1088.5 1396.5 c 128,-1,4
 1150 1383 1150 1383 1204 1362 c 0,5,6
 1254 1343 1254 1343 1295 1329 c 128,-1,7
 1336 1315 1336 1315 1353 1315 c 0,8,9
 1393 1315 1393 1315 1422 1337.5 c 128,-1,10
 1451 1360 1451 1360 1477 1408 c 1,11,-1
 1507 1408 l 1,12,-1
 1378 928 l 1,13,-1
 1353 928 l 1,14,15
 1341 996 1341 996 1315.5 1061.5 c 128,-1,16
 1290 1127 1290 1127 1265 1173 c 0,17,18
 1215 1251 1215 1251 1140.5 1295 c 128,-1,19
 1066 1339 1066 1339 974 1339 c 0,20,21
 867 1339 867 1339 779.5 1292.5 c 128,-1,22
 692 1246 692 1246 622 1160.5 c 128,-1,23
 552 1075 552 1075 498.5 954 c 128,-1,24
 445 833 445 833 405 685 c 0,25,26
 336 431 336 431 368 229 c 0,27,28
 398 30 398 30 655 30 c 0,29,30
 714 30 714 30 757.5 39.5 c 128,-1,31
 801 49 801 49 832 68 c 128,-1,32
 863 87 863 87 881.5 114.5 c 128,-1,33
 900 142 900 142 910 178 c 2,34,-1
 968 393 l 2,35,36
 979 437 979 437 971.5 467.5 c 128,-1,37
 964 498 964 498 935 514 c 0,38,39
 901 533 901 533 799 534 c 1,40,-1
 813 588 l 1,41,-1
 1486 588 l 1,42,-1
 1471 533 l 1,43,44
 1415 531 1415 531 1378 519.5 c 128,-1,45
 1341 508 1341 508 1316 485.5 c 128,-1,46
 1291 463 1291 463 1275.5 429.5 c 128,-1,47
 1260 396 1260 396 1247 349 c 2,48,-1
 1176 83 l 1,49,50
 1159 74 1159 74 1133.5 63.5 c 128,-1,51
 1108 53 1108 53 1077.5 42.5 c 128,-1,52
 1047 32 1047 32 1012.5 22 c 128,-1,53
 978 12 978 12 944 3 c 0,54,55
 865 -18 865 -18 776.5 -28.5 c 128,-1,56
 688 -39 688 -39 598 -39 c 0,57,58
 266 -39 266 -39 122 176 c 0,59,60
 -11 372 -11 372 71 680 c 0,61,62
 113 837 113 837 195.5 965 c 128,-1,63
 278 1093 278 1093 402 1195 c 0,0,1
EndSplineSet
Substitution2: "<17016,16016> Urdu Swash lookup 75 subtable" G
PairPos2: "'kern' Horizontal Kerning in Arabic lookup 0 subtable" afii57509 dx=0 dy=0 dh=0 dv=0 dx=0 dy=0 dh=250 dv=0
PairPos2: "'kern' Horizontal Kerning in Arabic lookup 0 subtable" uni06AB dx=0 dy=0 dh=0 dv=0 dx=0 dy=0 dh=250 dv=0
PairPos2: "'kern' Horizontal Kerning in Arabic lookup 0 subtable" uni06A9 dx=0 dy=0 dh=0 dv=0 dx=0 dy=0 dh=250 dv=0
PairPos2: "'kern' Horizontal Kerning in Arabic lookup 0 subtable" uniFB94 dx=0 dy=0 dh=0 dv=0 dx=0 dy=0 dh=250 dv=0
PairPos2: "'kern' Horizontal Kerning in Arabic lookup 0 subtable" uniFBD5 dx=0 dy=0 dh=0 dv=0 dx=0 dy=0 dh=250 dv=0
PairPos2: "'kern' Horizontal Kerning in Arabic lookup 0 subtable" uni06AB.ini dx=0 dy=0 dh=0 dv=0 dx=0 dy=0 dh=250 dv=0
PairPos2: "'kern' Horizontal Kerning in Arabic lookup 0 subtable" uniFB90 dx=0 dy=0 dh=0 dv=0 dx=0 dy=0 dh=250 dv=0
PairPos2: "'kern' Horizontal Kerning in Arabic lookup 0 subtable" uniFEDB dx=0 dy=0 dh=0 dv=0 dx=0 dy=0 dh=250 dv=0
PairPos2: "'kern' Horizontal Kerning in Arabic lookup 0 subtable" uni0671 dx=0 dy=0 dh=0 dv=0 dx=0 dy=0 dh=200 dv=0
PairPos2: "'kern' Horizontal Kerning in Arabic lookup 0 subtable" afii57410 dx=0 dy=0 dh=0 dv=0 dx=0 dy=0 dh=200 dv=0
PairPos2: "'kern' Horizontal Kerning in Arabic lookup 0 subtable" afii57415 dx=0 dy=0 dh=0 dv=0 dx=0 dy=0 dh=50 dv=0
EndChar

StartChar: H
Encoding: 72 72 43
Width: 1593
GlyphClass: 2
Flags: W
LayerCount: 2
Fore
SplineSet
-135 55 m 1,0,1
 -96 57 -96 57 -67.5 62 c 128,-1,2
 -39 67 -39 67 -20 77 c 0,3,4
 55 114 55 114 76 197 c 2,5,-1
 341 1186 l 2,6,7
 364 1267 364 1267 314 1303 c 0,8,9
 288 1322 288 1322 207 1329 c 1,10,-1
 221 1384 l 1,11,-1
 885 1384 l 1,12,-1
 871 1329 l 1,13,14
 817 1326 817 1326 779 1316 c 128,-1,15
 741 1306 741 1306 715 1288 c 128,-1,16
 689 1270 689 1270 673.5 1244.5 c 128,-1,17
 658 1219 658 1219 649 1186 c 2,18,-1
 536 764 l 1,19,-1
 1052 764 l 1,20,-1
 1165 1186 l 2,21,22
 1176 1227 1176 1227 1167.5 1257.5 c 128,-1,23
 1159 1288 1159 1288 1135 1305 c 0,24,25
 1121 1315 1121 1315 1092.5 1320.5 c 128,-1,26
 1064 1326 1064 1326 1022 1329 c 1,27,-1
 1036 1384 l 1,28,-1
 1704 1384 l 1,29,-1
 1690 1329 l 1,30,31
 1647 1325 1647 1325 1617 1319.5 c 128,-1,32
 1587 1314 1587 1314 1568 1304 c 0,33,34
 1495 1268 1495 1268 1473 1186 c 2,35,-1
 1208 197 l 2,36,37
 1199 164 1199 164 1201.5 138.5 c 128,-1,38
 1204 113 1204 113 1220 95 c 128,-1,39
 1236 77 1236 77 1267.5 67 c 128,-1,40
 1299 57 1299 57 1348 55 c 1,41,-1
 1334 0 l 1,42,-1
 666 0 l 1,43,-1
 680 54 l 1,44,45
 731 56 731 56 768.5 66 c 128,-1,46
 806 76 806 76 832.5 94 c 128,-1,47
 859 112 859 112 875 138 c 128,-1,48
 891 164 891 164 900 197 c 2,49,-1
 1026 667 l 1,50,-1
 510 667 l 1,51,-1
 384 197 l 2,52,53
 374 159 374 159 386 126.5 c 128,-1,54
 398 94 398 94 421 75 c 1,55,56
 438 67 438 67 465.5 61.5 c 128,-1,57
 493 56 493 56 529 54 c 1,58,-1
 515 0 l 1,59,-1
 -149 0 l 1,60,-1
 -135 55 l 1,0,1
EndSplineSet
Substitution2: "<17016,16016> Urdu Swash lookup 75 subtable" H
PairPos2: "'kern' Horizontal Kerning in Arabic lookup 0 subtable" afii57509 dx=0 dy=0 dh=0 dv=0 dx=0 dy=0 dh=250 dv=0
PairPos2: "'kern' Horizontal Kerning in Arabic lookup 0 subtable" uni06AB dx=0 dy=0 dh=0 dv=0 dx=0 dy=0 dh=250 dv=0
PairPos2: "'kern' Horizontal Kerning in Arabic lookup 0 subtable" uni06A9 dx=0 dy=0 dh=0 dv=0 dx=0 dy=0 dh=250 dv=0
PairPos2: "'kern' Horizontal Kerning in Arabic lookup 0 subtable" uniFB94 dx=0 dy=0 dh=0 dv=0 dx=0 dy=0 dh=250 dv=0
PairPos2: "'kern' Horizontal Kerning in Arabic lookup 0 subtable" uniFBD5 dx=0 dy=0 dh=0 dv=0 dx=0 dy=0 dh=250 dv=0
PairPos2: "'kern' Horizontal Kerning in Arabic lookup 0 subtable" uni06AB.ini dx=0 dy=0 dh=0 dv=0 dx=0 dy=0 dh=250 dv=0
PairPos2: "'kern' Horizontal Kerning in Arabic lookup 0 subtable" uniFB90 dx=0 dy=0 dh=0 dv=0 dx=0 dy=0 dh=250 dv=0
PairPos2: "'kern' Horizontal Kerning in Arabic lookup 0 subtable" uniFEDB dx=0 dy=0 dh=0 dv=0 dx=0 dy=0 dh=250 dv=0
PairPos2: "'kern' Horizontal Kerning in Arabic lookup 0 subtable" uni0671 dx=0 dy=0 dh=0 dv=0 dx=0 dy=0 dh=200 dv=0
PairPos2: "'kern' Horizontal Kerning in Arabic lookup 0 subtable" afii57410 dx=0 dy=0 dh=0 dv=0 dx=0 dy=0 dh=200 dv=0
PairPos2: "'kern' Horizontal Kerning in Arabic lookup 0 subtable" afii57415 dx=0 dy=0 dh=0 dv=0 dx=0 dy=0 dh=50 dv=0
EndChar

StartChar: I
Encoding: 73 73 44
Width: 797
GlyphClass: 2
Flags: W
LayerCount: 2
Fore
SplineSet
-139 54 m 1,0,1
 -37 56 -37 56 15 91.5 c 128,-1,2
 67 127 67 127 86 197 c 2,3,-1
 351 1186 l 2,4,5
 363 1230 363 1230 354 1259.5 c 128,-1,6
 345 1289 345 1289 318 1307 c 0,7,8
 303 1317 303 1317 274 1322 c 128,-1,9
 245 1327 245 1327 203 1329 c 1,10,-1
 217 1384 l 1,11,-1
 904 1384 l 1,12,-1
 890 1329 l 1,13,14
 846 1327 846 1327 812.5 1321.5 c 128,-1,15
 779 1316 779 1316 759 1308 c 0,16,17
 725 1290 725 1290 697.5 1259 c 128,-1,18
 670 1228 670 1228 659 1186 c 2,19,-1
 394 197 l 2,20,21
 374 121 374 121 413 87.5 c 128,-1,22
 452 54 452 54 548 54 c 1,23,-1
 534 0 l 1,24,-1
 -153 0 l 1,25,-1
 -139 54 l 1,0,1
EndSplineSet
Substitution2: "<17016,16016> Urdu Swash lookup 75 subtable" I
PairPos2: "'kern' Horizontal Kerning in Arabic lookup 0 subtable" afii57509 dx=0 dy=0 dh=0 dv=0 dx=0 dy=0 dh=250 dv=0
PairPos2: "'kern' Horizontal Kerning in Arabic lookup 0 subtable" uni06AB dx=0 dy=0 dh=0 dv=0 dx=0 dy=0 dh=250 dv=0
PairPos2: "'kern' Horizontal Kerning in Arabic lookup 0 subtable" uni06A9 dx=0 dy=0 dh=0 dv=0 dx=0 dy=0 dh=250 dv=0
PairPos2: "'kern' Horizontal Kerning in Arabic lookup 0 subtable" uniFB94 dx=0 dy=0 dh=0 dv=0 dx=0 dy=0 dh=250 dv=0
PairPos2: "'kern' Horizontal Kerning in Arabic lookup 0 subtable" uniFBD5 dx=0 dy=0 dh=0 dv=0 dx=0 dy=0 dh=250 dv=0
PairPos2: "'kern' Horizontal Kerning in Arabic lookup 0 subtable" uni06AB.ini dx=0 dy=0 dh=0 dv=0 dx=0 dy=0 dh=250 dv=0
PairPos2: "'kern' Horizontal Kerning in Arabic lookup 0 subtable" uniFB90 dx=0 dy=0 dh=0 dv=0 dx=0 dy=0 dh=250 dv=0
PairPos2: "'kern' Horizontal Kerning in Arabic lookup 0 subtable" uniFEDB dx=0 dy=0 dh=0 dv=0 dx=0 dy=0 dh=250 dv=0
PairPos2: "'kern' Horizontal Kerning in Arabic lookup 0 subtable" uni0671 dx=0 dy=0 dh=0 dv=0 dx=0 dy=0 dh=200 dv=0
PairPos2: "'kern' Horizontal Kerning in Arabic lookup 0 subtable" afii57410 dx=0 dy=0 dh=0 dv=0 dx=0 dy=0 dh=200 dv=0
PairPos2: "'kern' Horizontal Kerning in Arabic lookup 0 subtable" afii57415 dx=0 dy=0 dh=0 dv=0 dx=0 dy=0 dh=50 dv=0
EndChar

StartChar: J
Encoding: 74 74 45
Width: 1024
GlyphClass: 2
Flags: W
LayerCount: 2
Fore
SplineSet
1136 1384 m 1,0,-1
 1122 1329 l 1,1,2
 1065 1325 1065 1325 1026.5 1316 c 128,-1,3
 988 1307 988 1307 962 1286.5 c 128,-1,4
 936 1266 936 1266 918.5 1231.5 c 128,-1,5
 901 1197 901 1197 887 1143 c 2,6,-1
 651 262 l 2,7,8
 620 148 620 148 566 61.5 c 128,-1,9
 512 -25 512 -25 439 -83 c 128,-1,10
 366 -141 366 -141 277.5 -170.5 c 128,-1,11
 189 -200 189 -200 90 -200 c 0,12,13
 22 -200 22 -200 -31.5 -179 c 128,-1,14
 -85 -158 -85 -158 -119 -122.5 c 128,-1,15
 -153 -87 -153 -87 -165.5 -40 c 128,-1,16
 -178 7 -178 7 -164 59 c 0,17,18
 -152 103 -152 103 -131 134 c 128,-1,19
 -110 165 -110 165 -85 184.5 c 128,-1,20
 -60 204 -60 204 -33.5 213 c 128,-1,21
 -7 222 -7 222 15 222 c 0,22,23
 38 222 38 222 57.5 212.5 c 128,-1,24
 77 203 77 203 90 184.5 c 128,-1,25
 103 166 103 166 106.5 139.5 c 128,-1,26
 110 113 110 113 101 79 c 0,27,28
 94 54 94 54 79 24 c 128,-1,29
 64 -6 64 -6 45 -26 c 1,30,-1
 45 -25 l 1,31,32
 14 -64 14 -64 12 -69 c 0,33,34
 4 -98 4 -98 28 -113.5 c 128,-1,35
 52 -129 52 -129 91 -129 c 0,36,37
 135 -129 135 -129 166.5 -120.5 c 128,-1,38
 198 -112 198 -112 221.5 -91 c 128,-1,39
 245 -70 245 -70 261.5 -35.5 c 128,-1,40
 278 -1 278 -1 292 50 c 2,41,-1
 596 1186 l 2,42,43
 620 1273 620 1273 560 1308 c 0,44,45
 544 1317 544 1317 512.5 1322 c 128,-1,46
 481 1327 481 1327 430 1329 c 1,47,-1
 444 1384 l 1,48,-1
 1136 1384 l 1,0,-1
EndSplineSet
Substitution2: "<17016,16016> Urdu Swash lookup 75 subtable" J
PairPos2: "'kern' Horizontal Kerning in Arabic lookup 0 subtable" afii57509 dx=0 dy=0 dh=0 dv=0 dx=0 dy=0 dh=250 dv=0
PairPos2: "'kern' Horizontal Kerning in Arabic lookup 0 subtable" uni06AB dx=0 dy=0 dh=0 dv=0 dx=0 dy=0 dh=250 dv=0
PairPos2: "'kern' Horizontal Kerning in Arabic lookup 0 subtable" uni06A9 dx=0 dy=0 dh=0 dv=0 dx=0 dy=0 dh=250 dv=0
PairPos2: "'kern' Horizontal Kerning in Arabic lookup 0 subtable" uniFB94 dx=0 dy=0 dh=0 dv=0 dx=0 dy=0 dh=250 dv=0
PairPos2: "'kern' Horizontal Kerning in Arabic lookup 0 subtable" uniFBD5 dx=0 dy=0 dh=0 dv=0 dx=0 dy=0 dh=250 dv=0
PairPos2: "'kern' Horizontal Kerning in Arabic lookup 0 subtable" uni06AB.ini dx=0 dy=0 dh=0 dv=0 dx=0 dy=0 dh=250 dv=0
PairPos2: "'kern' Horizontal Kerning in Arabic lookup 0 subtable" uniFB90 dx=0 dy=0 dh=0 dv=0 dx=0 dy=0 dh=250 dv=0
PairPos2: "'kern' Horizontal Kerning in Arabic lookup 0 subtable" uniFEDB dx=0 dy=0 dh=0 dv=0 dx=0 dy=0 dh=250 dv=0
PairPos2: "'kern' Horizontal Kerning in Arabic lookup 0 subtable" uni0671 dx=0 dy=0 dh=0 dv=0 dx=0 dy=0 dh=200 dv=0
PairPos2: "'kern' Horizontal Kerning in Arabic lookup 0 subtable" afii57410 dx=0 dy=0 dh=0 dv=0 dx=0 dy=0 dh=200 dv=0
PairPos2: "'kern' Horizontal Kerning in Arabic lookup 0 subtable" afii57415 dx=0 dy=0 dh=0 dv=0 dx=0 dy=0 dh=50 dv=0
EndChar

StartChar: K
Encoding: 75 75 46
AltUni2: 00212a.ffffffff.0
Width: 1593
GlyphClass: 2
Flags: W
LayerCount: 2
Fore
SplineSet
-120 55 m 1,0,1
 -69 57 -69 57 -32.5 67 c 128,-1,2
 4 77 4 77 29.5 94.5 c 128,-1,3
 55 112 55 112 70.5 138 c 128,-1,4
 86 164 86 164 95 197 c 2,5,-1
 360 1186 l 2,6,7
 383 1269 383 1269 331 1305 c 1,8,-1
 332 1305 l 1,9,10
 305 1323 305 1323 222 1329 c 1,11,-1
 236 1384 l 1,12,-1
 899 1384 l 1,13,-1
 885 1329 l 1,14,15
 836 1324 836 1324 797.5 1313.5 c 128,-1,16
 759 1303 759 1303 736 1290 c 1,17,18
 713 1270 713 1270 690.5 1231.5 c 128,-1,19
 668 1193 668 1193 655 1143 c 2,20,-1
 538 707 l 1,21,-1
 562 707 l 1,22,23
 568 712 568 712 593.5 732.5 c 128,-1,24
 619 753 619 753 658 783.5 c 128,-1,25
 697 814 697 814 745 852 c 128,-1,26
 793 890 793 890 842.5 929.5 c 128,-1,27
 892 969 892 969 940 1007 c 128,-1,28
 988 1045 988 1045 1026.5 1075.5 c 128,-1,29
 1065 1106 1065 1106 1091 1127 c 128,-1,30
 1117 1148 1117 1148 1122 1152 c 0,31,32
 1153 1176 1153 1176 1172.5 1192.5 c 128,-1,33
 1192 1209 1192 1209 1200 1217 c 0,34,35
 1209 1228 1209 1228 1217.5 1241 c 128,-1,36
 1226 1254 1226 1254 1228 1264 c 0,37,38
 1232 1280 1232 1280 1228 1291 c 128,-1,39
 1224 1302 1224 1302 1207 1309.5 c 128,-1,40
 1190 1317 1190 1317 1158 1321.5 c 128,-1,41
 1126 1326 1126 1326 1074 1329 c 1,42,-1
 1088 1384 l 1,43,-1
 1652 1384 l 1,44,-1
 1638 1329 l 1,45,46
 1560 1323 1560 1323 1489.5 1300 c 128,-1,47
 1419 1277 1419 1277 1356 1240 c 0,48,49
 1323 1219 1323 1219 1272 1182.5 c 128,-1,50
 1221 1146 1221 1146 1156.5 1097.5 c 128,-1,51
 1092 1049 1092 1049 1016.5 990.5 c 128,-1,52
 941 932 941 932 860 867 c 1,53,54
 911 775 911 775 964 675.5 c 128,-1,55
 1017 576 1017 576 1068 482 c 2,56,-1
 1276 96 l 2,57,58
 1288 76 1288 76 1307.5 67.5 c 128,-1,59
 1327 59 1327 59 1362 55 c 1,60,-1
 1348 0 l 1,61,-1
 690 0 l 1,62,-1
 704 54 l 1,63,64
 748 55 748 55 779.5 57.5 c 128,-1,65
 811 60 811 60 831.5 64.5 c 128,-1,66
 852 69 852 69 862.5 77 c 128,-1,67
 873 85 873 85 876 96 c 0,68,69
 879 108 879 108 864 144.5 c 128,-1,70
 849 181 849 181 825 228 c 128,-1,71
 801 275 801 275 773 325.5 c 128,-1,72
 745 376 745 376 723 416 c 0,73,74
 691 475 691 475 660.5 533 c 128,-1,75
 630 591 630 591 599 648 c 1,76,-1
 578 648 l 1,77,-1
 512 596 l 1,78,-1
 508 596 l 1,79,-1
 401 197 l 2,80,81
 380 115 380 115 436 77 c 0,82,83
 464 59 464 59 540 55 c 1,84,-1
 526 0 l 1,85,-1
 -134 0 l 1,86,-1
 -120 55 l 1,0,1
EndSplineSet
Substitution2: "<17016,16016> Urdu Swash lookup 75 subtable" K
PairPos2: "'kern' Horizontal Kerning in Arabic lookup 0 subtable" afii57509 dx=0 dy=0 dh=0 dv=0 dx=0 dy=0 dh=250 dv=0
PairPos2: "'kern' Horizontal Kerning in Arabic lookup 0 subtable" uni06AB dx=0 dy=0 dh=0 dv=0 dx=0 dy=0 dh=250 dv=0
PairPos2: "'kern' Horizontal Kerning in Arabic lookup 0 subtable" uni06A9 dx=0 dy=0 dh=0 dv=0 dx=0 dy=0 dh=250 dv=0
PairPos2: "'kern' Horizontal Kerning in Arabic lookup 0 subtable" uniFB94 dx=0 dy=0 dh=0 dv=0 dx=0 dy=0 dh=250 dv=0
PairPos2: "'kern' Horizontal Kerning in Arabic lookup 0 subtable" uniFBD5 dx=0 dy=0 dh=0 dv=0 dx=0 dy=0 dh=250 dv=0
PairPos2: "'kern' Horizontal Kerning in Arabic lookup 0 subtable" uni06AB.ini dx=0 dy=0 dh=0 dv=0 dx=0 dy=0 dh=250 dv=0
PairPos2: "'kern' Horizontal Kerning in Arabic lookup 0 subtable" uniFB90 dx=0 dy=0 dh=0 dv=0 dx=0 dy=0 dh=250 dv=0
PairPos2: "'kern' Horizontal Kerning in Arabic lookup 0 subtable" uniFEDB dx=0 dy=0 dh=0 dv=0 dx=0 dy=0 dh=250 dv=0
PairPos2: "'kern' Horizontal Kerning in Arabic lookup 0 subtable" uni0671 dx=0 dy=0 dh=0 dv=0 dx=0 dy=0 dh=200 dv=0
PairPos2: "'kern' Horizontal Kerning in Arabic lookup 0 subtable" afii57410 dx=0 dy=0 dh=0 dv=0 dx=0 dy=0 dh=200 dv=0
PairPos2: "'kern' Horizontal Kerning in Arabic lookup 0 subtable" afii57415 dx=0 dy=0 dh=0 dv=0 dx=0 dy=0 dh=50 dv=0
EndChar

StartChar: L
Encoding: 76 76 47
AltUni2: 00216c.ffffffff.0
Width: 1366
GlyphClass: 2
Flags: W
LayerCount: 2
Fore
SplineSet
-135 55 m 1,0,1
 -97 57 -97 57 -65.5 62.5 c 128,-1,2
 -34 68 -34 68 -16 76 c 0,3,4
 20 93 20 93 46.5 124.5 c 128,-1,5
 73 156 73 156 84 197 c 2,6,-1
 349 1186 l 2,7,8
 373 1271 373 1271 316 1306 c 0,9,10
 288 1325 288 1325 207 1329 c 1,11,-1
 221 1384 l 1,12,-1
 908 1384 l 1,13,-1
 894 1330 l 1,14,15
 835 1328 835 1328 792 1318.5 c 128,-1,16
 749 1309 749 1309 723 1295 c 1,17,18
 699 1275 699 1275 674.5 1236 c 128,-1,19
 650 1197 650 1197 636 1143 c 2,20,-1
 377 178 l 2,21,22
 360 116 360 116 395 89 c 0,23,24
 424 67 424 67 535 67 c 0,25,26
 628 67 628 67 714.5 88 c 128,-1,27
 801 109 801 109 874 148 c 0,28,29
 951 193 951 193 1029 273 c 128,-1,30
 1107 353 1107 353 1181 465 c 1,31,-1
 1214 465 l 1,32,-1
 1007 0 l 1,33,-1
 -149 0 l 1,34,-1
 -135 55 l 1,0,1
EndSplineSet
Substitution2: "<17016,16016> Urdu Swash lookup 75 subtable" L
PairPos2: "'kern' Horizontal Kerning in Arabic lookup 0 subtable" afii57509 dx=0 dy=0 dh=0 dv=0 dx=0 dy=0 dh=250 dv=0
PairPos2: "'kern' Horizontal Kerning in Arabic lookup 0 subtable" uni06AB dx=0 dy=0 dh=0 dv=0 dx=0 dy=0 dh=250 dv=0
PairPos2: "'kern' Horizontal Kerning in Arabic lookup 0 subtable" uni06A9 dx=0 dy=0 dh=0 dv=0 dx=0 dy=0 dh=250 dv=0
PairPos2: "'kern' Horizontal Kerning in Arabic lookup 0 subtable" uniFB94 dx=0 dy=0 dh=0 dv=0 dx=0 dy=0 dh=250 dv=0
PairPos2: "'kern' Horizontal Kerning in Arabic lookup 0 subtable" uniFBD5 dx=0 dy=0 dh=0 dv=0 dx=0 dy=0 dh=250 dv=0
PairPos2: "'kern' Horizontal Kerning in Arabic lookup 0 subtable" uni06AB.ini dx=0 dy=0 dh=0 dv=0 dx=0 dy=0 dh=250 dv=0
PairPos2: "'kern' Horizontal Kerning in Arabic lookup 0 subtable" uniFB90 dx=0 dy=0 dh=0 dv=0 dx=0 dy=0 dh=250 dv=0
PairPos2: "'kern' Horizontal Kerning in Arabic lookup 0 subtable" uniFEDB dx=0 dy=0 dh=0 dv=0 dx=0 dy=0 dh=250 dv=0
PairPos2: "'kern' Horizontal Kerning in Arabic lookup 0 subtable" uni0671 dx=0 dy=0 dh=0 dv=0 dx=0 dy=0 dh=200 dv=0
PairPos2: "'kern' Horizontal Kerning in Arabic lookup 0 subtable" afii57410 dx=0 dy=0 dh=0 dv=0 dx=0 dy=0 dh=200 dv=0
PairPos2: "'kern' Horizontal Kerning in Arabic lookup 0 subtable" afii57415 dx=0 dy=0 dh=0 dv=0 dx=0 dy=0 dh=50 dv=0
EndChar

StartChar: M
Encoding: 77 77 48
AltUni2: 00216f.ffffffff.0
Width: 1933
GlyphClass: 2
Flags: W
LayerCount: 2
Fore
SplineSet
-144 54 m 1,0,1
 -29 56 -29 56 15 95 c 0,2,3
 66 140 66 140 86 216 c 2,4,-1
 346 1186 l 2,5,6
 356 1223 356 1223 353.5 1248.5 c 128,-1,7
 351 1274 351 1274 334.5 1290.5 c 128,-1,8
 318 1307 318 1307 285.5 1316 c 128,-1,9
 253 1325 253 1325 203 1329 c 1,10,-1
 217 1384 l 1,11,-1
 705 1384 l 1,12,-1
 855 437 l 1,13,-1
 898 437 l 1,14,15
 913 458 913 458 945.5 505.5 c 128,-1,16
 978 553 978 553 1022 617 c 128,-1,17
 1066 681 1066 681 1118.5 756.5 c 128,-1,18
 1171 832 1171 832 1225 910.5 c 128,-1,19
 1279 989 1279 989 1331 1064.5 c 128,-1,20
 1383 1140 1383 1140 1427.5 1204 c 128,-1,21
 1472 1268 1472 1268 1504.5 1315.5 c 128,-1,22
 1537 1363 1537 1363 1551 1384 c 1,23,-1
 2039 1384 l 1,24,-1
 2025 1329 l 1,25,26
 1972 1325 1972 1325 1935 1316 c 128,-1,27
 1898 1307 1898 1307 1872 1286.5 c 128,-1,28
 1846 1266 1846 1266 1828.5 1231.5 c 128,-1,29
 1811 1197 1811 1197 1796 1143 c 2,30,-1
 1554 240 l 2,31,32
 1540 189 1540 189 1539 154.5 c 128,-1,33
 1538 120 1538 120 1552.5 99 c 128,-1,34
 1567 78 1567 78 1599 68 c 128,-1,35
 1631 58 1631 58 1683 55 c 1,36,-1
 1669 0 l 1,37,-1
 1018 0 l 1,38,-1
 1032 54 l 1,39,40
 1078 56 1078 56 1114.5 64 c 128,-1,41
 1151 72 1151 72 1178.5 89.5 c 128,-1,42
 1206 107 1206 107 1225 135 c 128,-1,43
 1244 163 1244 163 1255 204 c 2,44,-1
 1523 1202 l 1,45,-1
 1481 1202 l 1,46,47
 1462 1175 1462 1175 1421 1115 c 128,-1,48
 1380 1055 1380 1055 1324.5 974 c 128,-1,49
 1269 893 1269 893 1203 796.5 c 128,-1,50
 1137 700 1137 700 1069 601 c 128,-1,51
 1001 502 1001 502 935.5 405.5 c 128,-1,52
 870 309 870 309 814.5 228 c 128,-1,53
 759 147 759 147 717.5 87 c 128,-1,54
 676 27 676 27 658 0 c 1,55,-1
 629 0 l 1,56,-1
 438 1178 l 1,57,-1
 402 1178 l 1,58,-1
 155 254 l 2,59,60
 128 159 128 159 156 106 c 0,61,62
 182 58 182 58 306 54 c 1,63,-1
 292 0 l 1,64,-1
 -158 0 l 1,65,-1
 -144 54 l 1,0,1
EndSplineSet
Substitution2: "<17016,16016> Urdu Swash lookup 75 subtable" M
PairPos2: "'kern' Horizontal Kerning in Arabic lookup 0 subtable" afii57509 dx=0 dy=0 dh=0 dv=0 dx=0 dy=0 dh=250 dv=0
PairPos2: "'kern' Horizontal Kerning in Arabic lookup 0 subtable" uni06AB dx=0 dy=0 dh=0 dv=0 dx=0 dy=0 dh=250 dv=0
PairPos2: "'kern' Horizontal Kerning in Arabic lookup 0 subtable" uni06A9 dx=0 dy=0 dh=0 dv=0 dx=0 dy=0 dh=250 dv=0
PairPos2: "'kern' Horizontal Kerning in Arabic lookup 0 subtable" uniFB94 dx=0 dy=0 dh=0 dv=0 dx=0 dy=0 dh=250 dv=0
PairPos2: "'kern' Horizontal Kerning in Arabic lookup 0 subtable" uniFBD5 dx=0 dy=0 dh=0 dv=0 dx=0 dy=0 dh=250 dv=0
PairPos2: "'kern' Horizontal Kerning in Arabic lookup 0 subtable" uni06AB.ini dx=0 dy=0 dh=0 dv=0 dx=0 dy=0 dh=250 dv=0
PairPos2: "'kern' Horizontal Kerning in Arabic lookup 0 subtable" uniFB90 dx=0 dy=0 dh=0 dv=0 dx=0 dy=0 dh=250 dv=0
PairPos2: "'kern' Horizontal Kerning in Arabic lookup 0 subtable" uniFEDB dx=0 dy=0 dh=0 dv=0 dx=0 dy=0 dh=250 dv=0
PairPos2: "'kern' Horizontal Kerning in Arabic lookup 0 subtable" uni0671 dx=0 dy=0 dh=0 dv=0 dx=0 dy=0 dh=200 dv=0
PairPos2: "'kern' Horizontal Kerning in Arabic lookup 0 subtable" afii57410 dx=0 dy=0 dh=0 dv=0 dx=0 dy=0 dh=200 dv=0
PairPos2: "'kern' Horizontal Kerning in Arabic lookup 0 subtable" afii57415 dx=0 dy=0 dh=0 dv=0 dx=0 dy=0 dh=50 dv=0
EndChar

StartChar: N
Encoding: 78 78 49
Width: 1479
GlyphClass: 2
Flags: W
LayerCount: 2
Fore
SplineSet
-139 54 m 1,0,1
 -85 56 -85 56 -45.5 67.5 c 128,-1,2
 -6 79 -6 79 16 97 c 0,3,4
 39 119 39 119 57 149.5 c 128,-1,5
 75 180 75 180 84 216 c 2,6,-1
 343 1183 l 1,7,-1
 339 1183 l 1,8,9
 309 1232 309 1232 291.5 1260 c 128,-1,10
 274 1288 274 1288 261 1302 c 128,-1,11
 248 1316 248 1316 236.5 1320.5 c 128,-1,12
 225 1325 225 1325 206 1328 c 1,13,-1
 221 1384 l 1,14,-1
 629 1384 l 1,15,-1
 1101 522 l 1,16,-1
 1136 522 l 1,17,-1
 1299 1129 l 2,18,19
 1312 1176 1312 1176 1313.5 1211 c 128,-1,20
 1315 1246 1315 1246 1301 1271 c 128,-1,21
 1287 1296 1287 1296 1254 1310 c 128,-1,22
 1221 1324 1221 1324 1164 1329 c 1,23,-1
 1178 1384 l 1,24,-1
 1590 1384 l 1,25,-1
 1575 1328 l 1,26,27
 1526 1320 1526 1320 1492.5 1310 c 128,-1,28
 1459 1300 1459 1300 1435.5 1283 c 128,-1,29
 1412 1266 1412 1266 1397.5 1238.5 c 128,-1,30
 1383 1211 1383 1211 1371 1167 c 2,31,-1
 1048 -38 l 1,32,-1
 1016 -38 l 1,33,-1
 410 1056 l 1,34,-1
 371 1056 l 1,35,-1
 157 254 l 2,36,37
 143 202 143 202 143 164.5 c 128,-1,38
 143 127 143 127 159.5 103 c 128,-1,39
 176 79 176 79 209.5 67.5 c 128,-1,40
 243 56 243 56 296 54 c 1,41,-1
 282 0 l 1,42,-1
 -153 0 l 1,43,-1
 -139 54 l 1,0,1
EndSplineSet
Substitution2: "<17016,16016> Urdu Swash lookup 75 subtable" N
PairPos2: "'kern' Horizontal Kerning in Arabic lookup 0 subtable" afii57509 dx=0 dy=0 dh=0 dv=0 dx=0 dy=0 dh=250 dv=0
PairPos2: "'kern' Horizontal Kerning in Arabic lookup 0 subtable" uni06AB dx=0 dy=0 dh=0 dv=0 dx=0 dy=0 dh=250 dv=0
PairPos2: "'kern' Horizontal Kerning in Arabic lookup 0 subtable" uni06A9 dx=0 dy=0 dh=0 dv=0 dx=0 dy=0 dh=250 dv=0
PairPos2: "'kern' Horizontal Kerning in Arabic lookup 0 subtable" uniFB94 dx=0 dy=0 dh=0 dv=0 dx=0 dy=0 dh=250 dv=0
PairPos2: "'kern' Horizontal Kerning in Arabic lookup 0 subtable" uniFBD5 dx=0 dy=0 dh=0 dv=0 dx=0 dy=0 dh=250 dv=0
PairPos2: "'kern' Horizontal Kerning in Arabic lookup 0 subtable" uni06AB.ini dx=0 dy=0 dh=0 dv=0 dx=0 dy=0 dh=250 dv=0
PairPos2: "'kern' Horizontal Kerning in Arabic lookup 0 subtable" uniFB90 dx=0 dy=0 dh=0 dv=0 dx=0 dy=0 dh=250 dv=0
PairPos2: "'kern' Horizontal Kerning in Arabic lookup 0 subtable" uniFEDB dx=0 dy=0 dh=0 dv=0 dx=0 dy=0 dh=250 dv=0
PairPos2: "'kern' Horizontal Kerning in Arabic lookup 0 subtable" uni0671 dx=0 dy=0 dh=0 dv=0 dx=0 dy=0 dh=200 dv=0
PairPos2: "'kern' Horizontal Kerning in Arabic lookup 0 subtable" afii57410 dx=0 dy=0 dh=0 dv=0 dx=0 dy=0 dh=200 dv=0
PairPos2: "'kern' Horizontal Kerning in Arabic lookup 0 subtable" afii57415 dx=0 dy=0 dh=0 dv=0 dx=0 dy=0 dh=50 dv=0
EndChar

StartChar: O
Encoding: 79 79 50
Width: 1593
GlyphClass: 2
Flags: W
LayerCount: 2
Fore
SplineSet
1001 302 m 0,0,1
 1089 451 1089 451 1152 687 c 0,2,3
 1194 845 1194 845 1201 969 c 128,-1,4
 1208 1093 1208 1093 1184 1178 c 1,5,6
 1156 1253 1156 1253 1097 1298.5 c 128,-1,7
 1038 1344 1038 1344 953 1344 c 0,8,9
 833 1344 833 1344 730.5 1272 c 128,-1,10
 628 1200 628 1200 548 1069 c 0,11,12
 506 994 506 994 468 896.5 c 128,-1,13
 430 799 430 799 400 687 c 0,14,15
 312 360 312 360 360.5 195 c 128,-1,16
 409 30 409 30 601 30 c 0,17,18
 845 30 845 30 1001 302 c 0,0,1
1423 1215 m 256,19,20
 1575 1015 1575 1015 1488 687 c 0,21,22
 1400 359 1400 359 1140 159 c 256,23,24
 880 -41 880 -41 582 -41 c 0,25,26
 263 -41 263 -41 116 178 c 0,27,28
 -19 380 -19 380 61 676 c 0,29,30
 148 1004 148 1004 400 1205 c 0,31,32
 531 1310 531 1310 672.5 1363 c 128,-1,33
 814 1416 814 1416 972 1415 c 0,34,35
 1271 1415 1271 1415 1423 1215 c 256,19,20
EndSplineSet
Substitution2: "<17016,16016> Urdu Swash lookup 75 subtable" O
PairPos2: "'kern' Horizontal Kerning in Arabic lookup 0 subtable" afii57509 dx=0 dy=0 dh=0 dv=0 dx=0 dy=0 dh=250 dv=0
PairPos2: "'kern' Horizontal Kerning in Arabic lookup 0 subtable" uni06AB dx=0 dy=0 dh=0 dv=0 dx=0 dy=0 dh=250 dv=0
PairPos2: "'kern' Horizontal Kerning in Arabic lookup 0 subtable" uni06A9 dx=0 dy=0 dh=0 dv=0 dx=0 dy=0 dh=250 dv=0
PairPos2: "'kern' Horizontal Kerning in Arabic lookup 0 subtable" uniFB94 dx=0 dy=0 dh=0 dv=0 dx=0 dy=0 dh=250 dv=0
PairPos2: "'kern' Horizontal Kerning in Arabic lookup 0 subtable" uniFBD5 dx=0 dy=0 dh=0 dv=0 dx=0 dy=0 dh=250 dv=0
PairPos2: "'kern' Horizontal Kerning in Arabic lookup 0 subtable" uni06AB.ini dx=0 dy=0 dh=0 dv=0 dx=0 dy=0 dh=250 dv=0
PairPos2: "'kern' Horizontal Kerning in Arabic lookup 0 subtable" uniFB90 dx=0 dy=0 dh=0 dv=0 dx=0 dy=0 dh=250 dv=0
PairPos2: "'kern' Horizontal Kerning in Arabic lookup 0 subtable" uniFEDB dx=0 dy=0 dh=0 dv=0 dx=0 dy=0 dh=250 dv=0
PairPos2: "'kern' Horizontal Kerning in Arabic lookup 0 subtable" uni0671 dx=0 dy=0 dh=0 dv=0 dx=0 dy=0 dh=200 dv=0
PairPos2: "'kern' Horizontal Kerning in Arabic lookup 0 subtable" afii57410 dx=0 dy=0 dh=0 dv=0 dx=0 dy=0 dh=200 dv=0
PairPos2: "'kern' Horizontal Kerning in Arabic lookup 0 subtable" afii57415 dx=0 dy=0 dh=0 dv=0 dx=0 dy=0 dh=50 dv=0
EndChar

StartChar: P
Encoding: 80 80 51
Width: 1251
GlyphClass: 2
Flags: W
LayerCount: 2
Fore
SplineSet
781 735 m 0,0,1
 903 800 903 800 957 1001 c 0,2,3
 974 1067 974 1067 976.5 1124 c 128,-1,4
 979 1181 979 1181 968 1226 c 0,5,6
 957 1268 957 1268 914 1289.5 c 128,-1,7
 871 1311 871 1311 799 1311 c 0,8,9
 731 1311 731 1311 697 1296.5 c 128,-1,10
 663 1282 663 1282 652 1241 c 2,11,-1
 505 693 l 1,12,-1
 519 693 l 2,13,14
 615 693 615 693 680.5 705 c 128,-1,15
 746 717 746 717 781 735 c 0,0,1
-139 55 m 1,16,17
 -86 59 -86 59 -50 70 c 128,-1,18
 -14 81 -14 81 10.5 102 c 128,-1,19
 35 123 35 123 51.5 157 c 128,-1,20
 68 191 68 191 81 240 c 2,21,-1
 323 1143 l 2,22,23
 337 1196 337 1196 338.5 1229.5 c 128,-1,24
 340 1263 340 1263 326.5 1283.5 c 128,-1,25
 313 1304 313 1304 282.5 1313.5 c 128,-1,26
 252 1323 252 1323 203 1329 c 1,27,-1
 217 1384 l 1,28,-1
 861 1384 l 2,29,30
 1117 1384 1117 1384 1229 1299 c 0,31,32
 1337 1217 1337 1217 1280 1007 c 0,33,34
 1261 934 1261 934 1216.5 868.5 c 128,-1,35
 1172 803 1172 803 1107 752.5 c 128,-1,36
 1042 702 1042 702 958.5 669 c 128,-1,37
 875 636 875 636 777 628 c 0,38,39
 729 624 729 624 660 622 c 128,-1,40
 591 620 591 620 500 620 c 2,41,-1
 486 620 l 1,42,-1
 384 240 l 2,43,44
 370 189 370 189 369 154.5 c 128,-1,45
 368 120 368 120 383 99 c 128,-1,46
 398 78 398 78 430 68 c 128,-1,47
 462 58 462 58 514 55 c 1,48,-1
 500 0 l 1,49,-1
 -153 0 l 1,50,-1
 -139 55 l 1,16,17
EndSplineSet
Substitution2: "<17016,16016> Urdu Swash lookup 75 subtable" P
PairPos2: "'kern' Horizontal Kerning in Arabic lookup 0 subtable" afii57509 dx=0 dy=0 dh=0 dv=0 dx=0 dy=0 dh=250 dv=0
PairPos2: "'kern' Horizontal Kerning in Arabic lookup 0 subtable" uni06AB dx=0 dy=0 dh=0 dv=0 dx=0 dy=0 dh=250 dv=0
PairPos2: "'kern' Horizontal Kerning in Arabic lookup 0 subtable" uni06A9 dx=0 dy=0 dh=0 dv=0 dx=0 dy=0 dh=250 dv=0
PairPos2: "'kern' Horizontal Kerning in Arabic lookup 0 subtable" uniFB94 dx=0 dy=0 dh=0 dv=0 dx=0 dy=0 dh=250 dv=0
PairPos2: "'kern' Horizontal Kerning in Arabic lookup 0 subtable" uniFBD5 dx=0 dy=0 dh=0 dv=0 dx=0 dy=0 dh=250 dv=0
PairPos2: "'kern' Horizontal Kerning in Arabic lookup 0 subtable" uni06AB.ini dx=0 dy=0 dh=0 dv=0 dx=0 dy=0 dh=250 dv=0
PairPos2: "'kern' Horizontal Kerning in Arabic lookup 0 subtable" uniFB90 dx=0 dy=0 dh=0 dv=0 dx=0 dy=0 dh=250 dv=0
PairPos2: "'kern' Horizontal Kerning in Arabic lookup 0 subtable" uniFEDB dx=0 dy=0 dh=0 dv=0 dx=0 dy=0 dh=250 dv=0
PairPos2: "'kern' Horizontal Kerning in Arabic lookup 0 subtable" uni0671 dx=0 dy=0 dh=0 dv=0 dx=0 dy=0 dh=200 dv=0
PairPos2: "'kern' Horizontal Kerning in Arabic lookup 0 subtable" afii57410 dx=0 dy=0 dh=0 dv=0 dx=0 dy=0 dh=200 dv=0
PairPos2: "'kern' Horizontal Kerning in Arabic lookup 0 subtable" afii57415 dx=0 dy=0 dh=0 dv=0 dx=0 dy=0 dh=50 dv=0
EndChar

StartChar: Q
Encoding: 81 81 52
Width: 1593
GlyphClass: 2
Flags: W
LayerCount: 2
Fore
SplineSet
1001 302 m 0,0,1
 1089 451 1089 451 1152 687 c 0,2,3
 1194 845 1194 845 1201 969 c 128,-1,4
 1208 1093 1208 1093 1184 1178 c 1,5,6
 1156 1253 1156 1253 1097 1298.5 c 128,-1,7
 1038 1344 1038 1344 953 1344 c 0,8,9
 833 1344 833 1344 730.5 1272 c 128,-1,10
 628 1200 628 1200 548 1069 c 0,11,12
 506 994 506 994 468 896.5 c 128,-1,13
 430 799 430 799 400 687 c 0,14,15
 312 360 312 360 360.5 195 c 128,-1,16
 409 30 409 30 601 30 c 0,17,18
 845 30 845 30 1001 302 c 0,0,1
1423 1215 m 256,19,20
 1575 1015 1575 1015 1488 687 c 0,21,22
 1440 507 1440 507 1339.5 366.5 c 128,-1,23
 1239 226 1239 226 1091 124 c 0,24,25
 1032 84 1032 84 954.5 48 c 128,-1,26
 877 12 877 12 789 -15 c 1,27,-1
 781 -15 l 1,28,29
 789 -65 789 -65 813.5 -110 c 128,-1,30
 838 -155 838 -155 876.5 -189.5 c 128,-1,31
 915 -224 915 -224 967 -244 c 128,-1,32
 1019 -264 1019 -264 1082 -264 c 0,33,34
 1126 -264 1126 -264 1154.5 -259 c 128,-1,35
 1183 -254 1183 -254 1212 -245 c 1,36,-1
 1210 -295 l 1,37,38
 1166 -312 1166 -312 1116 -324.5 c 128,-1,39
 1066 -337 1066 -337 1016 -345.5 c 128,-1,40
 966 -354 966 -354 919 -358.5 c 128,-1,41
 872 -363 872 -363 834 -363 c 0,42,43
 669 -363 669 -363 526 -278 c 0,44,45
 391 -198 391 -198 370 -28 c 0,46,47
 370 -21 370 -21 369.5 -16.5 c 128,-1,48
 369 -12 369 -12 366 -8.5 c 128,-1,49
 363 -5 363 -5 355 -1.5 c 128,-1,50
 347 2 347 2 331 8 c 0,51,52
 274 29 274 29 224 67.5 c 128,-1,53
 174 106 174 106 130 160 c 0,54,55
 -23 362 -23 362 61 679 c 0,56,57
 105 843 105 843 196 978 c 128,-1,58
 287 1113 287 1113 408.5 1210.5 c 128,-1,59
 530 1308 530 1308 675 1361.5 c 128,-1,60
 820 1415 820 1415 972 1415 c 0,61,62
 1271 1415 1271 1415 1423 1215 c 256,19,20
EndSplineSet
Substitution2: "<17016,16016> Urdu Swash lookup 75 subtable" Q
PairPos2: "'kern' Horizontal Kerning in Arabic lookup 0 subtable" afii57509 dx=0 dy=0 dh=0 dv=0 dx=0 dy=0 dh=250 dv=0
PairPos2: "'kern' Horizontal Kerning in Arabic lookup 0 subtable" uni06AB dx=0 dy=0 dh=0 dv=0 dx=0 dy=0 dh=250 dv=0
PairPos2: "'kern' Horizontal Kerning in Arabic lookup 0 subtable" uni06A9 dx=0 dy=0 dh=0 dv=0 dx=0 dy=0 dh=250 dv=0
PairPos2: "'kern' Horizontal Kerning in Arabic lookup 0 subtable" uniFB94 dx=0 dy=0 dh=0 dv=0 dx=0 dy=0 dh=250 dv=0
PairPos2: "'kern' Horizontal Kerning in Arabic lookup 0 subtable" uniFBD5 dx=0 dy=0 dh=0 dv=0 dx=0 dy=0 dh=250 dv=0
PairPos2: "'kern' Horizontal Kerning in Arabic lookup 0 subtable" uni06AB.ini dx=0 dy=0 dh=0 dv=0 dx=0 dy=0 dh=250 dv=0
PairPos2: "'kern' Horizontal Kerning in Arabic lookup 0 subtable" uniFB90 dx=0 dy=0 dh=0 dv=0 dx=0 dy=0 dh=250 dv=0
PairPos2: "'kern' Horizontal Kerning in Arabic lookup 0 subtable" uniFEDB dx=0 dy=0 dh=0 dv=0 dx=0 dy=0 dh=250 dv=0
PairPos2: "'kern' Horizontal Kerning in Arabic lookup 0 subtable" uni0671 dx=0 dy=0 dh=0 dv=0 dx=0 dy=0 dh=200 dv=0
PairPos2: "'kern' Horizontal Kerning in Arabic lookup 0 subtable" afii57410 dx=0 dy=0 dh=0 dv=0 dx=0 dy=0 dh=200 dv=0
PairPos2: "'kern' Horizontal Kerning in Arabic lookup 0 subtable" afii57415 dx=0 dy=0 dh=0 dv=0 dx=0 dy=0 dh=50 dv=0
EndChar

StartChar: R
Encoding: 82 82 53
Width: 1479
GlyphClass: 2
Flags: W
LayerCount: 2
Fore
SplineSet
1002 1010 m 0,0,1
 1043 1162 1043 1162 1002.5 1237.5 c 128,-1,2
 962 1313 962 1313 828 1313 c 0,3,4
 737 1313 737 1313 707 1292 c 0,5,6
 670 1269 670 1269 658 1226 c 2,7,-1
 519 707 l 1,8,-1
 533 707 l 2,9,10
 634 707 634 707 713.5 723.5 c 128,-1,11
 793 740 793 740 842 763 c 1,12,13
 896 794 896 794 937 856.5 c 128,-1,14
 978 919 978 919 1002 1010 c 0,0,1
-139 55 m 1,15,16
 -85 58 -85 58 -48 68 c 128,-1,17
 -11 78 -11 78 15.5 99 c 128,-1,18
 42 120 42 120 59.5 154.5 c 128,-1,19
 77 189 77 189 91 240 c 2,20,-1
 333 1143 l 2,21,22
 347 1197 347 1197 344 1237 c 128,-1,23
 341 1277 341 1277 323 1297 c 0,24,25
 312 1309 312 1309 281.5 1316.5 c 128,-1,26
 251 1324 251 1324 203 1329 c 1,27,-1
 217 1384 l 1,28,-1
 861 1384 l 2,29,30
 1146 1384 1146 1384 1261.5 1296 c 128,-1,31
 1377 1208 1377 1208 1329 1028 c 0,32,33
 1282 855 1282 855 1141 764 c 0,34,35
 1026 690 1026 690 924 672 c 1,36,-1
 917 672 l 1,37,38
 919 668 919 668 930.5 642 c 128,-1,39
 942 616 942 616 959.5 575.5 c 128,-1,40
 977 535 977 535 999 484.5 c 128,-1,41
 1021 434 1021 434 1044 382 c 128,-1,42
 1067 330 1067 330 1089 279.5 c 128,-1,43
 1111 229 1111 229 1128.5 188.5 c 128,-1,44
 1146 148 1146 148 1157.5 122 c 128,-1,45
 1169 96 1169 96 1171 92 c 0,46,47
 1181 70 1181 70 1199 62.5 c 128,-1,48
 1217 55 1217 55 1240 52 c 1,49,-1
 1227 0 l 1,50,-1
 835 0 l 1,51,-1
 581 639 l 1,52,-1
 501 639 l 1,53,-1
 394 240 l 2,54,55
 381 192 381 192 379 158 c 128,-1,56
 377 124 377 124 390.5 102 c 128,-1,57
 404 80 404 80 436 69 c 128,-1,58
 468 58 468 58 524 55 c 1,59,-1
 510 0 l 1,60,-1
 -153 0 l 1,61,-1
 -139 55 l 1,15,16
EndSplineSet
Substitution2: "<17016,16016> Urdu Swash lookup 75 subtable" R
PairPos2: "'kern' Horizontal Kerning in Arabic lookup 0 subtable" afii57509 dx=0 dy=0 dh=0 dv=0 dx=0 dy=0 dh=250 dv=0
PairPos2: "'kern' Horizontal Kerning in Arabic lookup 0 subtable" uni06AB dx=0 dy=0 dh=0 dv=0 dx=0 dy=0 dh=250 dv=0
PairPos2: "'kern' Horizontal Kerning in Arabic lookup 0 subtable" uni06A9 dx=0 dy=0 dh=0 dv=0 dx=0 dy=0 dh=250 dv=0
PairPos2: "'kern' Horizontal Kerning in Arabic lookup 0 subtable" uniFB94 dx=0 dy=0 dh=0 dv=0 dx=0 dy=0 dh=250 dv=0
PairPos2: "'kern' Horizontal Kerning in Arabic lookup 0 subtable" uniFBD5 dx=0 dy=0 dh=0 dv=0 dx=0 dy=0 dh=250 dv=0
PairPos2: "'kern' Horizontal Kerning in Arabic lookup 0 subtable" uni06AB.ini dx=0 dy=0 dh=0 dv=0 dx=0 dy=0 dh=250 dv=0
PairPos2: "'kern' Horizontal Kerning in Arabic lookup 0 subtable" uniFB90 dx=0 dy=0 dh=0 dv=0 dx=0 dy=0 dh=250 dv=0
PairPos2: "'kern' Horizontal Kerning in Arabic lookup 0 subtable" uniFEDB dx=0 dy=0 dh=0 dv=0 dx=0 dy=0 dh=250 dv=0
PairPos2: "'kern' Horizontal Kerning in Arabic lookup 0 subtable" uni0671 dx=0 dy=0 dh=0 dv=0 dx=0 dy=0 dh=200 dv=0
PairPos2: "'kern' Horizontal Kerning in Arabic lookup 0 subtable" afii57410 dx=0 dy=0 dh=0 dv=0 dx=0 dy=0 dh=200 dv=0
PairPos2: "'kern' Horizontal Kerning in Arabic lookup 0 subtable" afii57415 dx=0 dy=0 dh=0 dv=0 dx=0 dy=0 dh=50 dv=0
EndChar

StartChar: S
Encoding: 83 83 54
Width: 1139
GlyphClass: 2
Flags: W
LayerCount: 2
Fore
SplineSet
13 479 m 1,0,-1
 44 479 l 1,1,2
 39 374 39 374 60.5 288 c 128,-1,3
 82 202 82 202 121 147 c 1,4,5
 163 99 163 99 223.5 71 c 128,-1,6
 284 43 284 43 357 43 c 256,7,8
 430 43 430 43 488.5 61.5 c 128,-1,9
 547 80 547 80 586 114 c 0,10,11
 624 150 624 150 651 189 c 128,-1,12
 678 228 678 228 688 264 c 0,13,14
 712 349 712 349 661 412 c 0,15,16
 647 429 647 429 610.5 454.5 c 128,-1,17
 574 480 574 480 520 511 c 0,18,19
 515 514 515 514 498.5 523.5 c 128,-1,20
 482 533 482 533 463 544 c 128,-1,21
 444 555 444 555 427.5 564.5 c 128,-1,22
 411 574 411 574 405 577 c 0,23,24
 326 625 326 625 268.5 674 c 128,-1,25
 211 723 211 723 182 771 c 0,26,27
 155 816 155 816 152.5 876 c 128,-1,28
 150 936 150 936 169 1009 c 0,29,30
 209 1162 209 1162 348 1289 c 0,31,32
 490 1419 490 1419 701 1419 c 0,33,34
 810 1419 810 1419 905 1385 c 256,35,36
 1000 1351 1000 1351 1021 1351 c 0,37,38
 1043 1351 1043 1351 1058.5 1356 c 128,-1,39
 1074 1361 1074 1361 1085.5 1370.5 c 128,-1,40
 1097 1380 1097 1380 1105.5 1393 c 128,-1,41
 1114 1406 1114 1406 1123 1422 c 1,42,-1
 1156 1422 l 1,43,-1
 1036 975 l 1,44,-1
 1007 975 l 1,45,46
 1008 1044 1008 1044 985.5 1114.5 c 128,-1,47
 963 1185 963 1185 929 1241 c 1,48,49
 892 1294 892 1294 833 1323.5 c 128,-1,50
 774 1353 774 1353 698 1353 c 0,51,52
 640 1353 640 1353 591 1336.5 c 128,-1,53
 542 1320 542 1320 504.5 1292.5 c 128,-1,54
 467 1265 467 1265 442.5 1230.5 c 128,-1,55
 418 1196 418 1196 408 1160 c 0,56,57
 384 1070 384 1070 431 1017 c 0,58,59
 444 1002 444 1002 477 978.5 c 128,-1,60
 510 955 510 955 556 926 c 128,-1,61
 602 897 602 897 659 864 c 128,-1,62
 716 831 716 831 777 797 c 0,63,64
 820 774 820 774 852 745 c 128,-1,65
 884 716 884 716 908 684 c 0,66,67
 989 575 989 575 942 401 c 0,68,69
 921 323 921 323 870 248.5 c 128,-1,70
 819 174 819 174 744 108 c 0,71,72
 666 41 666 41 561 6 c 128,-1,73
 456 -29 456 -29 326 -29 c 0,74,75
 263 -29 263 -29 197.5 -15 c 128,-1,76
 132 -1 132 -1 75 26 c 0,77,78
 61 33 61 33 41 37.5 c 128,-1,79
 21 42 21 42 6 42 c 0,80,81
 -35 42 -35 42 -54 23.5 c 128,-1,82
 -73 5 -73 5 -91 -29 c 1,83,-1
 -123 -29 l 1,84,-1
 13 479 l 1,0,-1
EndSplineSet
Substitution2: "<17016,16016> Urdu Swash lookup 75 subtable" S
PairPos2: "'kern' Horizontal Kerning in Arabic lookup 0 subtable" afii57509 dx=0 dy=0 dh=0 dv=0 dx=0 dy=0 dh=250 dv=0
PairPos2: "'kern' Horizontal Kerning in Arabic lookup 0 subtable" uni06AB dx=0 dy=0 dh=0 dv=0 dx=0 dy=0 dh=250 dv=0
PairPos2: "'kern' Horizontal Kerning in Arabic lookup 0 subtable" uni06A9 dx=0 dy=0 dh=0 dv=0 dx=0 dy=0 dh=250 dv=0
PairPos2: "'kern' Horizontal Kerning in Arabic lookup 0 subtable" uniFB94 dx=0 dy=0 dh=0 dv=0 dx=0 dy=0 dh=250 dv=0
PairPos2: "'kern' Horizontal Kerning in Arabic lookup 0 subtable" uniFBD5 dx=0 dy=0 dh=0 dv=0 dx=0 dy=0 dh=250 dv=0
PairPos2: "'kern' Horizontal Kerning in Arabic lookup 0 subtable" uni06AB.ini dx=0 dy=0 dh=0 dv=0 dx=0 dy=0 dh=250 dv=0
PairPos2: "'kern' Horizontal Kerning in Arabic lookup 0 subtable" uniFB90 dx=0 dy=0 dh=0 dv=0 dx=0 dy=0 dh=250 dv=0
PairPos2: "'kern' Horizontal Kerning in Arabic lookup 0 subtable" uniFEDB dx=0 dy=0 dh=0 dv=0 dx=0 dy=0 dh=250 dv=0
PairPos2: "'kern' Horizontal Kerning in Arabic lookup 0 subtable" uni0671 dx=0 dy=0 dh=0 dv=0 dx=0 dy=0 dh=200 dv=0
PairPos2: "'kern' Horizontal Kerning in Arabic lookup 0 subtable" afii57410 dx=0 dy=0 dh=0 dv=0 dx=0 dy=0 dh=200 dv=0
PairPos2: "'kern' Horizontal Kerning in Arabic lookup 0 subtable" afii57415 dx=0 dy=0 dh=0 dv=0 dx=0 dy=0 dh=50 dv=0
EndChar

StartChar: T
Encoding: 84 84 55
Width: 1366
GlyphClass: 2
Flags: W
LayerCount: 2
Fore
SplineSet
236 1384 m 1,0,-1
 1441 1384 l 1,1,-1
 1330 970 l 1,2,-1
 1301 970 l 1,3,4
 1315 1076 1315 1076 1291.5 1151 c 128,-1,5
 1268 1226 1268 1226 1208 1268 c 1,6,-1
 1209 1268 l 1,7,8
 1176 1288 1176 1288 1118 1300.5 c 128,-1,9
 1060 1313 1060 1313 985 1315 c 2,10,-1
 971 1315 l 1,11,-1
 683 240 l 2,12,13
 670 189 670 189 668 154 c 128,-1,14
 666 119 666 119 682.5 96.5 c 128,-1,15
 699 74 699 74 736 64 c 128,-1,16
 773 54 773 54 837 54 c 1,17,-1
 823 0 l 1,18,-1
 122 0 l 1,19,-1
 136 54 l 1,20,21
 197 54 197 54 238 64 c 128,-1,22
 279 74 279 74 307 96.5 c 128,-1,23
 335 119 335 119 353 154.5 c 128,-1,24
 371 190 371 190 384 240 c 2,25,-1
 672 1315 l 1,26,-1
 658 1315 l 2,27,28
 578 1313 578 1313 516.5 1301.5 c 128,-1,29
 455 1290 455 1290 409 1268 c 0,30,31
 233 1184 233 1184 156 970 c 1,32,-1
 125 970 l 1,33,-1
 236 1384 l 1,0,-1
EndSplineSet
Substitution2: "<17016,16016> Urdu Swash lookup 75 subtable" T
PairPos2: "'kern' Horizontal Kerning in Arabic lookup 0 subtable" afii57509 dx=0 dy=0 dh=0 dv=0 dx=0 dy=0 dh=250 dv=0
PairPos2: "'kern' Horizontal Kerning in Arabic lookup 0 subtable" uni06AB dx=0 dy=0 dh=0 dv=0 dx=0 dy=0 dh=250 dv=0
PairPos2: "'kern' Horizontal Kerning in Arabic lookup 0 subtable" uni06A9 dx=0 dy=0 dh=0 dv=0 dx=0 dy=0 dh=250 dv=0
PairPos2: "'kern' Horizontal Kerning in Arabic lookup 0 subtable" uniFB94 dx=0 dy=0 dh=0 dv=0 dx=0 dy=0 dh=250 dv=0
PairPos2: "'kern' Horizontal Kerning in Arabic lookup 0 subtable" uniFBD5 dx=0 dy=0 dh=0 dv=0 dx=0 dy=0 dh=250 dv=0
PairPos2: "'kern' Horizontal Kerning in Arabic lookup 0 subtable" uni06AB.ini dx=0 dy=0 dh=0 dv=0 dx=0 dy=0 dh=250 dv=0
PairPos2: "'kern' Horizontal Kerning in Arabic lookup 0 subtable" uniFB90 dx=0 dy=0 dh=0 dv=0 dx=0 dy=0 dh=250 dv=0
PairPos2: "'kern' Horizontal Kerning in Arabic lookup 0 subtable" uniFEDB dx=0 dy=0 dh=0 dv=0 dx=0 dy=0 dh=250 dv=0
PairPos2: "'kern' Horizontal Kerning in Arabic lookup 0 subtable" uni0671 dx=0 dy=0 dh=0 dv=0 dx=0 dy=0 dh=200 dv=0
PairPos2: "'kern' Horizontal Kerning in Arabic lookup 0 subtable" afii57410 dx=0 dy=0 dh=0 dv=0 dx=0 dy=0 dh=200 dv=0
PairPos2: "'kern' Horizontal Kerning in Arabic lookup 0 subtable" afii57415 dx=0 dy=0 dh=0 dv=0 dx=0 dy=0 dh=50 dv=0
EndChar

StartChar: U
Encoding: 85 85 56
Width: 1479
GlyphClass: 2
Flags: W
LayerCount: 2
Fore
SplineSet
880 1384 m 1,0,-1
 866 1329 l 1,1,2
 810 1327 810 1327 768.5 1317 c 128,-1,3
 727 1307 727 1307 703 1293 c 0,4,5
 677 1273 677 1273 654 1234.5 c 128,-1,6
 631 1196 631 1196 617 1143 c 2,7,-1
 433 459 l 2,8,9
 379 257 379 257 425.5 159.5 c 128,-1,10
 472 62 472 62 635 62 c 0,11,12
 734 62 734 62 812.5 88 c 128,-1,13
 891 114 891 114 951.5 168 c 128,-1,14
 1012 222 1012 222 1056.5 305.5 c 128,-1,15
 1101 389 1101 389 1132 504 c 2,16,-1
 1299 1129 l 2,17,18
 1312 1179 1312 1179 1313 1214.5 c 128,-1,19
 1314 1250 1314 1250 1298.5 1274 c 128,-1,20
 1283 1298 1283 1298 1248.5 1311.5 c 128,-1,21
 1214 1325 1214 1325 1155 1329 c 1,22,-1
 1169 1384 l 1,23,-1
 1590 1384 l 1,24,-1
 1575 1328 l 1,25,26
 1521 1318 1521 1318 1486.5 1307 c 128,-1,27
 1452 1296 1452 1296 1430 1277.5 c 128,-1,28
 1408 1259 1408 1259 1394.5 1230.5 c 128,-1,29
 1381 1202 1381 1202 1369 1158 c 2,30,-1
 1194 504 l 2,31,32
 1122 236 1122 236 960.5 97.5 c 128,-1,33
 799 -41 799 -41 541 -41 c 0,34,35
 374 -41 374 -41 269.5 14 c 128,-1,36
 165 69 165 69 127 170 c 0,37,38
 109 224 109 224 111.5 297 c 128,-1,39
 114 370 114 370 137 459 c 2,40,-1
 321 1143 l 2,41,42
 350 1254 350 1254 325 1288 c 0,43,44
 304 1317 304 1317 203 1329 c 1,45,-1
 217 1384 l 1,46,-1
 880 1384 l 1,0,-1
EndSplineSet
Substitution2: "<17016,16016> Urdu Swash lookup 75 subtable" U
PairPos2: "'kern' Horizontal Kerning in Arabic lookup 0 subtable" afii57509 dx=0 dy=0 dh=0 dv=0 dx=0 dy=0 dh=250 dv=0
PairPos2: "'kern' Horizontal Kerning in Arabic lookup 0 subtable" uni06AB dx=0 dy=0 dh=0 dv=0 dx=0 dy=0 dh=250 dv=0
PairPos2: "'kern' Horizontal Kerning in Arabic lookup 0 subtable" uni06A9 dx=0 dy=0 dh=0 dv=0 dx=0 dy=0 dh=250 dv=0
PairPos2: "'kern' Horizontal Kerning in Arabic lookup 0 subtable" uniFB94 dx=0 dy=0 dh=0 dv=0 dx=0 dy=0 dh=250 dv=0
PairPos2: "'kern' Horizontal Kerning in Arabic lookup 0 subtable" uniFBD5 dx=0 dy=0 dh=0 dv=0 dx=0 dy=0 dh=250 dv=0
PairPos2: "'kern' Horizontal Kerning in Arabic lookup 0 subtable" uni06AB.ini dx=0 dy=0 dh=0 dv=0 dx=0 dy=0 dh=250 dv=0
PairPos2: "'kern' Horizontal Kerning in Arabic lookup 0 subtable" uniFB90 dx=0 dy=0 dh=0 dv=0 dx=0 dy=0 dh=250 dv=0
PairPos2: "'kern' Horizontal Kerning in Arabic lookup 0 subtable" uniFEDB dx=0 dy=0 dh=0 dv=0 dx=0 dy=0 dh=250 dv=0
PairPos2: "'kern' Horizontal Kerning in Arabic lookup 0 subtable" uni0671 dx=0 dy=0 dh=0 dv=0 dx=0 dy=0 dh=200 dv=0
PairPos2: "'kern' Horizontal Kerning in Arabic lookup 0 subtable" afii57410 dx=0 dy=0 dh=0 dv=0 dx=0 dy=0 dh=200 dv=0
PairPos2: "'kern' Horizontal Kerning in Arabic lookup 0 subtable" afii57415 dx=0 dy=0 dh=0 dv=0 dx=0 dy=0 dh=50 dv=0
EndChar

StartChar: V
Encoding: 86 86 57
Width: 1479
GlyphClass: 2
Flags: W
LayerCount: 2
Fore
SplineSet
875 1384 m 1,0,-1
 861 1329 l 1,1,2
 810 1326 810 1326 774.5 1322 c 128,-1,3
 739 1318 739 1318 722 1311 c 0,4,5
 702 1303 702 1303 686 1287 c 128,-1,6
 670 1271 670 1271 664 1250 c 0,7,8
 660 1235 660 1235 660 1221.5 c 128,-1,9
 660 1208 660 1208 662 1191 c 2,10,-1
 770 437 l 1,11,-1
 808 437 l 1,12,13
 811 442 811 442 831.5 473.5 c 128,-1,14
 852 505 852 505 883.5 552.5 c 128,-1,15
 915 600 915 600 954 660 c 128,-1,16
 993 720 993 720 1034 782 c 128,-1,17
 1075 844 1075 844 1114 904 c 128,-1,18
 1153 964 1153 964 1184 1011.5 c 128,-1,19
 1215 1059 1215 1059 1235.5 1090.5 c 128,-1,20
 1256 1122 1256 1122 1259 1127 c 0,21,22
 1269 1142 1269 1142 1278.5 1157.5 c 128,-1,23
 1288 1173 1288 1173 1296 1188 c 128,-1,24
 1304 1203 1304 1203 1310 1216 c 128,-1,25
 1316 1229 1316 1229 1318 1237 c 0,26,27
 1325 1262 1325 1262 1322.5 1278 c 128,-1,28
 1320 1294 1320 1294 1303.5 1304 c 128,-1,29
 1287 1314 1287 1314 1254.5 1319.5 c 128,-1,30
 1222 1325 1222 1325 1169 1329 c 1,31,-1
 1183 1384 l 1,32,-1
 1590 1384 l 1,33,-1
 1576 1331 l 1,34,35
 1536 1327 1536 1327 1505 1314.5 c 128,-1,36
 1474 1302 1474 1302 1447.5 1281 c 128,-1,37
 1421 1260 1421 1260 1397.5 1231 c 128,-1,38
 1374 1202 1374 1202 1348 1165 c 0,39,40
 1334 1144 1334 1144 1306 1101 c 128,-1,41
 1278 1058 1278 1058 1239.5 999.5 c 128,-1,42
 1201 941 1201 941 1154.5 870 c 128,-1,43
 1108 799 1108 799 1057.5 721.5 c 128,-1,44
 1007 644 1007 644 954 563.5 c 128,-1,45
 901 483 901 483 850.5 405.5 c 128,-1,46
 800 328 800 328 753 257 c 128,-1,47
 706 186 706 186 667.5 127.5 c 128,-1,48
 629 69 629 69 601 26 c 128,-1,49
 573 -17 573 -17 559 -38 c 1,50,-1
 531 -38 l 1,51,-1
 334 1188 l 2,52,53
 329 1218 329 1218 321.5 1243 c 128,-1,54
 314 1268 314 1268 299.5 1286.5 c 128,-1,55
 285 1305 285 1305 262 1316.5 c 128,-1,56
 239 1328 239 1328 203 1331 c 1,57,-1
 217 1384 l 1,58,-1
 875 1384 l 1,0,-1
EndSplineSet
Substitution2: "<17016,16016> Urdu Swash lookup 75 subtable" V
PairPos2: "'kern' Horizontal Kerning in Arabic lookup 0 subtable" afii57509 dx=0 dy=0 dh=0 dv=0 dx=0 dy=0 dh=250 dv=0
PairPos2: "'kern' Horizontal Kerning in Arabic lookup 0 subtable" uni06AB dx=0 dy=0 dh=0 dv=0 dx=0 dy=0 dh=250 dv=0
PairPos2: "'kern' Horizontal Kerning in Arabic lookup 0 subtable" uni06A9 dx=0 dy=0 dh=0 dv=0 dx=0 dy=0 dh=250 dv=0
PairPos2: "'kern' Horizontal Kerning in Arabic lookup 0 subtable" uniFB94 dx=0 dy=0 dh=0 dv=0 dx=0 dy=0 dh=250 dv=0
PairPos2: "'kern' Horizontal Kerning in Arabic lookup 0 subtable" uniFBD5 dx=0 dy=0 dh=0 dv=0 dx=0 dy=0 dh=250 dv=0
PairPos2: "'kern' Horizontal Kerning in Arabic lookup 0 subtable" uni06AB.ini dx=0 dy=0 dh=0 dv=0 dx=0 dy=0 dh=250 dv=0
PairPos2: "'kern' Horizontal Kerning in Arabic lookup 0 subtable" uniFB90 dx=0 dy=0 dh=0 dv=0 dx=0 dy=0 dh=250 dv=0
PairPos2: "'kern' Horizontal Kerning in Arabic lookup 0 subtable" uniFEDB dx=0 dy=0 dh=0 dv=0 dx=0 dy=0 dh=250 dv=0
PairPos2: "'kern' Horizontal Kerning in Arabic lookup 0 subtable" uni0671 dx=0 dy=0 dh=0 dv=0 dx=0 dy=0 dh=200 dv=0
PairPos2: "'kern' Horizontal Kerning in Arabic lookup 0 subtable" afii57410 dx=0 dy=0 dh=0 dv=0 dx=0 dy=0 dh=200 dv=0
PairPos2: "'kern' Horizontal Kerning in Arabic lookup 0 subtable" afii57415 dx=0 dy=0 dh=0 dv=0 dx=0 dy=0 dh=50 dv=0
EndChar

StartChar: W
Encoding: 87 87 58
Width: 2048
GlyphClass: 2
Flags: W
LayerCount: 2
Fore
SplineSet
795 1384 m 1,0,-1
 781 1329 l 1,1,2
 744 1325 744 1325 718 1319.5 c 128,-1,3
 692 1314 692 1314 674 1305 c 128,-1,4
 656 1296 656 1296 645.5 1282 c 128,-1,5
 635 1268 635 1268 629 1246 c 0,6,7
 627 1236 627 1236 625 1217.5 c 128,-1,8
 623 1199 623 1199 624 1179 c 0,9,10
 626 1159 626 1159 629.5 1104 c 128,-1,11
 633 1049 633 1049 638 976.5 c 128,-1,12
 643 904 643 904 648.5 822.5 c 128,-1,13
 654 741 654 741 658.5 668 c 128,-1,14
 663 595 663 595 666 540 c 128,-1,15
 669 485 669 485 670 465 c 1,16,-1
 713 465 l 1,17,18
 763 540 763 540 812.5 614.5 c 128,-1,19
 862 689 862 689 911 764 c 2,20,-1
 1109 1064 l 2,21,22
 1109 1065 1109 1065 1108 1078.5 c 128,-1,23
 1107 1092 1107 1092 1106 1111.5 c 128,-1,24
 1105 1131 1105 1131 1103 1154 c 128,-1,25
 1101 1177 1101 1177 1098.5 1198.5 c 128,-1,26
 1096 1220 1096 1220 1094 1236.5 c 128,-1,27
 1092 1253 1092 1253 1089 1259 c 0,28,29
 1077 1288 1077 1288 1046 1310 c 0,30,31
 1024 1324 1024 1324 960 1329 c 1,32,-1
 974 1384 l 1,33,-1
 1585 1384 l 1,34,-1
 1571 1329 l 1,35,36
 1530 1326 1530 1326 1500.5 1322 c 128,-1,37
 1471 1318 1471 1318 1456 1311 c 0,38,39
 1439 1303 1439 1303 1424 1288.5 c 128,-1,40
 1409 1274 1409 1274 1405 1258 c 0,41,42
 1403 1250 1403 1250 1403 1214 c 128,-1,43
 1403 1178 1403 1178 1405 1125 c 128,-1,44
 1407 1072 1407 1072 1410.5 1006.5 c 128,-1,45
 1414 941 1414 941 1417.5 873 c 128,-1,46
 1421 805 1421 805 1425 739 c 128,-1,47
 1429 673 1429 673 1432 619.5 c 128,-1,48
 1435 566 1435 566 1437.5 529.5 c 128,-1,49
 1440 493 1440 493 1440 484 c 1,50,-1
 1480 484 l 1,51,-1
 1682 820 l 2,52,53
 1688 830 1688 830 1703.5 856 c 128,-1,54
 1719 882 1719 882 1739.5 916 c 128,-1,55
 1760 950 1760 950 1782.5 987.5 c 128,-1,56
 1805 1025 1805 1025 1825.5 1059 c 128,-1,57
 1846 1093 1846 1093 1861.5 1119 c 128,-1,58
 1877 1145 1877 1145 1883 1155 c 0,59,60
 1895 1175 1895 1175 1904.5 1195.5 c 128,-1,61
 1914 1216 1914 1216 1920 1239 c 0,62,63
 1926 1260 1926 1260 1924 1275.5 c 128,-1,64
 1922 1291 1922 1291 1909 1302 c 128,-1,65
 1896 1313 1896 1313 1870.5 1319.5 c 128,-1,66
 1845 1326 1845 1326 1803 1329 c 1,67,-1
 1817 1384 l 1,68,-1
 2163 1384 l 1,69,-1
 2148 1328 l 1,70,71
 2128 1324 2128 1324 2108.5 1319 c 128,-1,72
 2089 1314 2089 1314 2075 1306 c 0,73,74
 2048 1289 2048 1289 2020 1260 c 128,-1,75
 1992 1231 1992 1231 1972 1200 c 0,76,77
 1956 1173 1956 1173 1919 1111.5 c 128,-1,78
 1882 1050 1882 1050 1832 966.5 c 128,-1,79
 1782 883 1782 883 1722.5 784 c 128,-1,80
 1663 685 1663 685 1602 582.5 c 128,-1,81
 1541 480 1541 480 1481.5 381.5 c 128,-1,82
 1422 283 1422 283 1372 199.5 c 128,-1,83
 1322 116 1322 116 1285 54.5 c 128,-1,84
 1248 -7 1248 -7 1232 -34 c 1,85,-1
 1204 -34 l 1,86,-1
 1118 925 l 1,87,-1
 1078 925 l 1,88,89
 923 690 923 690 762 445.5 c 128,-1,90
 601 201 601 201 446 -34 c 1,91,-1
 415 -34 l 1,92,-1
 314 1200 l 2,93,94
 310 1232 310 1232 305 1254.5 c 128,-1,95
 300 1277 300 1277 288.5 1292.5 c 128,-1,96
 277 1308 277 1308 258 1317 c 128,-1,97
 239 1326 239 1326 207 1330 c 1,98,-1
 221 1384 l 1,99,-1
 795 1384 l 1,0,-1
EndSplineSet
Substitution2: "<17016,16016> Urdu Swash lookup 75 subtable" W
PairPos2: "'kern' Horizontal Kerning in Arabic lookup 0 subtable" afii57509 dx=0 dy=0 dh=0 dv=0 dx=0 dy=0 dh=250 dv=0
PairPos2: "'kern' Horizontal Kerning in Arabic lookup 0 subtable" uni06AB dx=0 dy=0 dh=0 dv=0 dx=0 dy=0 dh=250 dv=0
PairPos2: "'kern' Horizontal Kerning in Arabic lookup 0 subtable" uni06A9 dx=0 dy=0 dh=0 dv=0 dx=0 dy=0 dh=250 dv=0
PairPos2: "'kern' Horizontal Kerning in Arabic lookup 0 subtable" uniFB94 dx=0 dy=0 dh=0 dv=0 dx=0 dy=0 dh=250 dv=0
PairPos2: "'kern' Horizontal Kerning in Arabic lookup 0 subtable" uniFBD5 dx=0 dy=0 dh=0 dv=0 dx=0 dy=0 dh=250 dv=0
PairPos2: "'kern' Horizontal Kerning in Arabic lookup 0 subtable" uni06AB.ini dx=0 dy=0 dh=0 dv=0 dx=0 dy=0 dh=250 dv=0
PairPos2: "'kern' Horizontal Kerning in Arabic lookup 0 subtable" uniFB90 dx=0 dy=0 dh=0 dv=0 dx=0 dy=0 dh=250 dv=0
PairPos2: "'kern' Horizontal Kerning in Arabic lookup 0 subtable" uniFEDB dx=0 dy=0 dh=0 dv=0 dx=0 dy=0 dh=250 dv=0
PairPos2: "'kern' Horizontal Kerning in Arabic lookup 0 subtable" uni0671 dx=0 dy=0 dh=0 dv=0 dx=0 dy=0 dh=200 dv=0
PairPos2: "'kern' Horizontal Kerning in Arabic lookup 0 subtable" afii57410 dx=0 dy=0 dh=0 dv=0 dx=0 dy=0 dh=200 dv=0
PairPos2: "'kern' Horizontal Kerning in Arabic lookup 0 subtable" afii57415 dx=0 dy=0 dh=0 dv=0 dx=0 dy=0 dh=50 dv=0
EndChar

StartChar: X
Encoding: 88 88 59
Width: 1479
GlyphClass: 2
Flags: W
LayerCount: 2
Fore
SplineSet
-138 56 m 1,0,1
 -90 64 -90 64 -56 74 c 128,-1,2
 -22 84 -22 84 5 97.5 c 128,-1,3
 32 111 32 111 54.5 128 c 128,-1,4
 77 145 77 145 101 167 c 0,5,6
 114 179 114 179 151 214 c 128,-1,7
 188 249 188 249 236.5 295 c 128,-1,8
 285 341 285 341 339.5 392.5 c 128,-1,9
 394 444 394 444 442.5 490 c 128,-1,10
 491 536 491 536 528 571 c 128,-1,11
 565 606 565 606 578 618 c 1,12,13
 576 623 576 623 565 650 c 128,-1,14
 554 677 554 677 537.5 718 c 128,-1,15
 521 759 521 759 500 810.5 c 128,-1,16
 479 862 479 862 457 915 c 128,-1,17
 435 968 435 968 414 1019.5 c 128,-1,18
 393 1071 393 1071 375.5 1112 c 128,-1,19
 358 1153 358 1153 347 1180 c 128,-1,20
 336 1207 336 1207 334 1211 c 0,21,22
 311 1265 311 1265 282.5 1295 c 128,-1,23
 254 1325 254 1325 205 1329 c 1,24,-1
 219 1384 l 1,25,-1
 899 1384 l 1,26,-1
 885 1329 l 1,27,28
 839 1327 839 1327 807 1323.5 c 128,-1,29
 775 1320 775 1320 758 1314 c 0,30,31
 739 1308 739 1308 723.5 1294 c 128,-1,32
 708 1280 708 1280 703 1263 c 0,33,34
 699 1248 699 1248 705.5 1221.5 c 128,-1,35
 712 1195 712 1195 724 1163.5 c 128,-1,36
 736 1132 736 1132 750 1098.5 c 128,-1,37
 764 1065 764 1065 775 1036 c 0,38,39
 790 997 790 997 804 958.5 c 128,-1,40
 818 920 818 920 833 882 c 1,41,-1
 856 882 l 1,42,43
 869 895 869 895 894 920.5 c 128,-1,44
 919 946 919 946 949 977 c 128,-1,45
 979 1008 979 1008 1011 1040.5 c 128,-1,46
 1043 1073 1043 1073 1070 1101 c 128,-1,47
 1097 1129 1097 1129 1115 1148 c 128,-1,48
 1133 1167 1133 1167 1136 1170 c 0,49,50
 1161 1198 1161 1198 1176.5 1221.5 c 128,-1,51
 1192 1245 1192 1245 1196 1259 c 0,52,53
 1200 1275 1200 1275 1195.5 1287 c 128,-1,54
 1191 1299 1191 1299 1176 1308 c 128,-1,55
 1161 1317 1161 1317 1134 1322 c 128,-1,56
 1107 1327 1107 1327 1065 1329 c 1,57,-1
 1079 1384 l 1,58,-1
 1562 1384 l 1,59,-1
 1548 1329 l 1,60,61
 1479 1322 1479 1322 1421 1300 c 128,-1,62
 1363 1278 1363 1278 1312 1238 c 256,63,64
 1261 1198 1261 1198 1147.5 1088.5 c 128,-1,65
 1034 979 1034 979 863 805 c 1,66,67
 865 800 865 800 875 774 c 128,-1,68
 885 748 885 748 900 708 c 128,-1,69
 915 668 915 668 933.5 618.5 c 128,-1,70
 952 569 952 569 971 517 c 128,-1,71
 990 465 990 465 1008.5 415.5 c 128,-1,72
 1027 366 1027 366 1042 326 c 128,-1,73
 1057 286 1057 286 1067 260 c 128,-1,74
 1077 234 1077 234 1079 229 c 0,75,76
 1097 181 1097 181 1112 149.5 c 128,-1,77
 1127 118 1127 118 1143.5 98.5 c 128,-1,78
 1160 79 1160 79 1180.5 70 c 128,-1,79
 1201 61 1201 61 1230 56 c 1,80,-1
 1215 0 l 1,81,-1
 547 0 l 1,82,-1
 561 55 l 1,83,84
 603 57 603 57 631 59.5 c 128,-1,85
 659 62 659 62 673 66 c 0,86,87
 732 83 732 83 742 117 c 0,88,89
 745 130 745 130 742 156 c 128,-1,90
 739 182 739 182 725 222 c 2,91,-1
 608 553 l 1,92,-1
 585 553 l 1,93,94
 512 481 512 481 455.5 425.5 c 128,-1,95
 399 370 399 370 357.5 328.5 c 128,-1,96
 316 287 316 287 287.5 257 c 128,-1,97
 259 227 259 227 241 205 c 128,-1,98
 223 183 223 183 213.5 167.5 c 128,-1,99
 204 152 204 152 201 139 c 0,100,101
 196 121 196 121 204 105.5 c 128,-1,102
 212 90 212 90 230.5 78.5 c 128,-1,103
 249 67 249 67 278 60.5 c 128,-1,104
 307 54 307 54 344 54 c 1,105,-1
 330 0 l 1,106,-1
 -153 0 l 1,107,-1
 -138 56 l 1,0,1
EndSplineSet
Substitution2: "<17016,16016> Urdu Swash lookup 75 subtable" X
PairPos2: "'kern' Horizontal Kerning in Arabic lookup 0 subtable" afii57509 dx=0 dy=0 dh=0 dv=0 dx=0 dy=0 dh=250 dv=0
PairPos2: "'kern' Horizontal Kerning in Arabic lookup 0 subtable" uni06AB dx=0 dy=0 dh=0 dv=0 dx=0 dy=0 dh=250 dv=0
PairPos2: "'kern' Horizontal Kerning in Arabic lookup 0 subtable" uni06A9 dx=0 dy=0 dh=0 dv=0 dx=0 dy=0 dh=250 dv=0
PairPos2: "'kern' Horizontal Kerning in Arabic lookup 0 subtable" uniFB94 dx=0 dy=0 dh=0 dv=0 dx=0 dy=0 dh=250 dv=0
PairPos2: "'kern' Horizontal Kerning in Arabic lookup 0 subtable" uniFBD5 dx=0 dy=0 dh=0 dv=0 dx=0 dy=0 dh=250 dv=0
PairPos2: "'kern' Horizontal Kerning in Arabic lookup 0 subtable" uni06AB.ini dx=0 dy=0 dh=0 dv=0 dx=0 dy=0 dh=250 dv=0
PairPos2: "'kern' Horizontal Kerning in Arabic lookup 0 subtable" uniFB90 dx=0 dy=0 dh=0 dv=0 dx=0 dy=0 dh=250 dv=0
PairPos2: "'kern' Horizontal Kerning in Arabic lookup 0 subtable" uniFEDB dx=0 dy=0 dh=0 dv=0 dx=0 dy=0 dh=250 dv=0
PairPos2: "'kern' Horizontal Kerning in Arabic lookup 0 subtable" uni0671 dx=0 dy=0 dh=0 dv=0 dx=0 dy=0 dh=200 dv=0
PairPos2: "'kern' Horizontal Kerning in Arabic lookup 0 subtable" afii57410 dx=0 dy=0 dh=0 dv=0 dx=0 dy=0 dh=200 dv=0
PairPos2: "'kern' Horizontal Kerning in Arabic lookup 0 subtable" afii57415 dx=0 dy=0 dh=0 dv=0 dx=0 dy=0 dh=50 dv=0
EndChar

StartChar: Y
Encoding: 89 89 60
Width: 1479
GlyphClass: 2
Flags: W
LayerCount: 2
Fore
SplineSet
870 1384 m 1,0,-1
 856 1329 l 1,1,2
 801 1326 801 1326 766.5 1322 c 128,-1,3
 732 1318 732 1318 713 1311 c 128,-1,4
 694 1304 694 1304 686 1294.5 c 128,-1,5
 678 1285 678 1285 675 1273 c 0,6,7
 672 1262 672 1262 671.5 1244 c 128,-1,8
 671 1226 671 1226 682 1192 c 1,9,-1
 682 1191 l 1,10,11
 682 1191 682 1191 690.5 1158.5 c 128,-1,12
 699 1126 699 1126 711.5 1076 c 128,-1,13
 724 1026 724 1026 739.5 966 c 128,-1,14
 755 906 755 906 769 850.5 c 128,-1,15
 783 795 783 795 793.5 752 c 128,-1,16
 804 709 804 709 808 693 c 1,17,-1
 849 693 l 1,18,19
 855 699 855 699 879 726.5 c 128,-1,20
 903 754 903 754 936 792 c 128,-1,21
 969 830 969 830 1007 873 c 128,-1,22
 1045 916 1045 916 1078.5 954 c 128,-1,23
 1112 992 1112 992 1136 1019.5 c 128,-1,24
 1160 1047 1160 1047 1165 1053 c 0,25,26
 1223 1119 1223 1119 1256 1167.5 c 128,-1,27
 1289 1216 1289 1216 1296 1240 c 0,28,29
 1308 1289 1308 1289 1264 1311 c 0,30,31
 1252 1317 1252 1317 1223.5 1321 c 128,-1,32
 1195 1325 1195 1325 1150 1329 c 1,33,-1
 1164 1384 l 1,34,-1
 1585 1384 l 1,35,-1
 1570 1328 l 1,36,37
 1509 1318 1509 1318 1473.5 1298.5 c 128,-1,38
 1438 1279 1438 1279 1412 1251 c 0,39,40
 1400 1237 1400 1237 1372 1205.5 c 128,-1,41
 1344 1174 1344 1174 1306 1131 c 128,-1,42
 1268 1088 1268 1088 1223 1037 c 128,-1,43
 1178 986 1178 986 1131.5 933 c 128,-1,44
 1085 880 1085 880 1039.5 829 c 128,-1,45
 994 778 994 778 956 735 c 128,-1,46
 918 692 918 692 890 660.5 c 128,-1,47
 862 629 862 629 849 615 c 1,48,-1
 749 240 l 2,49,50
 735 188 735 188 734.5 153 c 128,-1,51
 734 118 734 118 750 96.5 c 128,-1,52
 766 75 766 75 800 65.5 c 128,-1,53
 834 56 834 56 889 54 c 1,54,-1
 875 0 l 1,55,-1
 192 0 l 1,56,-1
 206 54 l 1,57,58
 315 57 315 57 362 93 c 0,59,60
 389 114 389 114 410 150 c 128,-1,61
 431 186 431 186 445 240 c 2,62,-1
 523 540 l 1,63,64
 519 555 519 555 509.5 589 c 128,-1,65
 500 623 500 623 487 669 c 128,-1,66
 474 715 474 715 459 769 c 128,-1,67
 444 823 444 823 428 879.5 c 128,-1,68
 412 936 412 936 396.5 990 c 128,-1,69
 381 1044 381 1044 368.5 1090 c 128,-1,70
 356 1136 356 1136 346 1170 c 128,-1,71
 336 1204 336 1204 332 1219 c 1,72,-1
 332 1218 l 1,73,74
 316 1266 316 1266 281 1296.5 c 128,-1,75
 246 1327 246 1327 200 1329 c 1,76,-1
 214 1384 l 1,77,-1
 870 1384 l 1,0,-1
EndSplineSet
Substitution2: "<17016,16016> Urdu Swash lookup 75 subtable" Y
PairPos2: "'kern' Horizontal Kerning in Arabic lookup 0 subtable" afii57509 dx=0 dy=0 dh=0 dv=0 dx=0 dy=0 dh=250 dv=0
PairPos2: "'kern' Horizontal Kerning in Arabic lookup 0 subtable" uni06AB dx=0 dy=0 dh=0 dv=0 dx=0 dy=0 dh=250 dv=0
PairPos2: "'kern' Horizontal Kerning in Arabic lookup 0 subtable" uni06A9 dx=0 dy=0 dh=0 dv=0 dx=0 dy=0 dh=250 dv=0
PairPos2: "'kern' Horizontal Kerning in Arabic lookup 0 subtable" uniFB94 dx=0 dy=0 dh=0 dv=0 dx=0 dy=0 dh=250 dv=0
PairPos2: "'kern' Horizontal Kerning in Arabic lookup 0 subtable" uniFBD5 dx=0 dy=0 dh=0 dv=0 dx=0 dy=0 dh=250 dv=0
PairPos2: "'kern' Horizontal Kerning in Arabic lookup 0 subtable" uni06AB.ini dx=0 dy=0 dh=0 dv=0 dx=0 dy=0 dh=250 dv=0
PairPos2: "'kern' Horizontal Kerning in Arabic lookup 0 subtable" uniFB90 dx=0 dy=0 dh=0 dv=0 dx=0 dy=0 dh=250 dv=0
PairPos2: "'kern' Horizontal Kerning in Arabic lookup 0 subtable" uniFEDB dx=0 dy=0 dh=0 dv=0 dx=0 dy=0 dh=250 dv=0
PairPos2: "'kern' Horizontal Kerning in Arabic lookup 0 subtable" uni0671 dx=0 dy=0 dh=0 dv=0 dx=0 dy=0 dh=200 dv=0
PairPos2: "'kern' Horizontal Kerning in Arabic lookup 0 subtable" afii57410 dx=0 dy=0 dh=0 dv=0 dx=0 dy=0 dh=200 dv=0
PairPos2: "'kern' Horizontal Kerning in Arabic lookup 0 subtable" afii57415 dx=0 dy=0 dh=0 dv=0 dx=0 dy=0 dh=50 dv=0
EndChar

StartChar: Z
Encoding: 90 90 61
Width: 1366
GlyphClass: 2
Flags: W
LayerCount: 2
Fore
SplineSet
-120 38 m 1,0,-1
 1000 1311 l 1,1,-1
 989 1311 l 2,2,3
 876 1311 876 1311 805 1309.5 c 128,-1,4
 734 1308 734 1308 708 1306 c 0,5,6
 605 1296 605 1296 525 1263 c 128,-1,7
 445 1230 445 1230 379 1170 c 0,8,9
 348 1138 348 1138 307 1085 c 128,-1,10
 266 1032 266 1032 221 961 c 1,11,-1
 191 961 l 1,12,-1
 347 1384 l 1,13,-1
 1391 1384 l 1,14,-1
 1381 1346 l 1,15,-1
 266 73 l 1,16,-1
 277 73 l 2,17,18
 701 73 701 73 862 137 c 0,19,20
 1036 207 1036 207 1188 494 c 1,21,-1
 1214 494 l 1,22,-1
 1028 0 l 1,23,-1
 -130 0 l 1,24,-1
 -120 38 l 1,0,-1
EndSplineSet
Substitution2: "<17016,16016> Urdu Swash lookup 75 subtable" Z
PairPos2: "'kern' Horizontal Kerning in Arabic lookup 0 subtable" afii57509 dx=0 dy=0 dh=0 dv=0 dx=0 dy=0 dh=250 dv=0
PairPos2: "'kern' Horizontal Kerning in Arabic lookup 0 subtable" uni06AB dx=0 dy=0 dh=0 dv=0 dx=0 dy=0 dh=250 dv=0
PairPos2: "'kern' Horizontal Kerning in Arabic lookup 0 subtable" uni06A9 dx=0 dy=0 dh=0 dv=0 dx=0 dy=0 dh=250 dv=0
PairPos2: "'kern' Horizontal Kerning in Arabic lookup 0 subtable" uniFB94 dx=0 dy=0 dh=0 dv=0 dx=0 dy=0 dh=250 dv=0
PairPos2: "'kern' Horizontal Kerning in Arabic lookup 0 subtable" uniFBD5 dx=0 dy=0 dh=0 dv=0 dx=0 dy=0 dh=250 dv=0
PairPos2: "'kern' Horizontal Kerning in Arabic lookup 0 subtable" uni06AB.ini dx=0 dy=0 dh=0 dv=0 dx=0 dy=0 dh=250 dv=0
PairPos2: "'kern' Horizontal Kerning in Arabic lookup 0 subtable" uniFB90 dx=0 dy=0 dh=0 dv=0 dx=0 dy=0 dh=250 dv=0
PairPos2: "'kern' Horizontal Kerning in Arabic lookup 0 subtable" uniFEDB dx=0 dy=0 dh=0 dv=0 dx=0 dy=0 dh=250 dv=0
PairPos2: "'kern' Horizontal Kerning in Arabic lookup 0 subtable" uni0671 dx=0 dy=0 dh=0 dv=0 dx=0 dy=0 dh=200 dv=0
PairPos2: "'kern' Horizontal Kerning in Arabic lookup 0 subtable" afii57410 dx=0 dy=0 dh=0 dv=0 dx=0 dy=0 dh=200 dv=0
PairPos2: "'kern' Horizontal Kerning in Arabic lookup 0 subtable" afii57415 dx=0 dy=0 dh=0 dv=0 dx=0 dy=0 dh=50 dv=0
EndChar

StartChar: bracketleft
Encoding: 91 91 62
Width: 652
GlyphClass: 2
Flags: W
LayerCount: 2
Fore
SplineSet
-247 -550 m 1,0,-1
 297 1485 l 1,1,-1
 749 1485 l 1,2,-1
 705 1320 l 1,3,-1
 426 1320 l 1,4,-1
 -30 -383 l 1,5,-1
 249 -383 l 1,6,-1
 204 -550 l 1,7,-1
 -247 -550 l 1,0,-1
EndSplineSet
Substitution2: "<17016,16016> Urdu Swash lookup 75 subtable" bracketleft
PairPos2: "'kern' Horizontal Kerning in Arabic lookup 0 subtable" afii57509 dx=0 dy=0 dh=0 dv=0 dx=0 dy=0 dh=250 dv=0
PairPos2: "'kern' Horizontal Kerning in Arabic lookup 0 subtable" uni06AB dx=0 dy=0 dh=0 dv=0 dx=0 dy=0 dh=250 dv=0
PairPos2: "'kern' Horizontal Kerning in Arabic lookup 0 subtable" uni06A9 dx=0 dy=0 dh=0 dv=0 dx=0 dy=0 dh=250 dv=0
PairPos2: "'kern' Horizontal Kerning in Arabic lookup 0 subtable" uniFB94 dx=0 dy=0 dh=0 dv=0 dx=0 dy=0 dh=250 dv=0
PairPos2: "'kern' Horizontal Kerning in Arabic lookup 0 subtable" uniFBD5 dx=0 dy=0 dh=0 dv=0 dx=0 dy=0 dh=250 dv=0
PairPos2: "'kern' Horizontal Kerning in Arabic lookup 0 subtable" uni06AB.ini dx=0 dy=0 dh=0 dv=0 dx=0 dy=0 dh=250 dv=0
PairPos2: "'kern' Horizontal Kerning in Arabic lookup 0 subtable" uniFB90 dx=0 dy=0 dh=0 dv=0 dx=0 dy=0 dh=250 dv=0
PairPos2: "'kern' Horizontal Kerning in Arabic lookup 0 subtable" uniFEDB dx=0 dy=0 dh=0 dv=0 dx=0 dy=0 dh=250 dv=0
PairPos2: "'kern' Horizontal Kerning in Arabic lookup 0 subtable" uni0671 dx=0 dy=0 dh=0 dv=0 dx=0 dy=0 dh=200 dv=0
PairPos2: "'kern' Horizontal Kerning in Arabic lookup 0 subtable" afii57410 dx=0 dy=0 dh=0 dv=0 dx=0 dy=0 dh=200 dv=0
PairPos2: "'kern' Horizontal Kerning in Arabic lookup 0 subtable" afii57415 dx=0 dy=0 dh=0 dv=0 dx=0 dy=0 dh=50 dv=0
EndChar

StartChar: backslash
Encoding: 92 92 63
Width: 569
GlyphClass: 2
Flags: W
LayerCount: 2
Fore
SplineSet
258 1415 m 1,0,-1
 449 0 l 1,1,-1
 288 0 l 1,2,-1
 94 1415 l 1,3,-1
 258 1415 l 1,0,-1
EndSplineSet
Substitution2: "<17016,16016> Urdu Swash lookup 75 subtable" backslash
PairPos2: "'kern' Horizontal Kerning in Arabic lookup 0 subtable" afii57509 dx=0 dy=0 dh=0 dv=0 dx=0 dy=0 dh=250 dv=0
PairPos2: "'kern' Horizontal Kerning in Arabic lookup 0 subtable" uni06AB dx=0 dy=0 dh=0 dv=0 dx=0 dy=0 dh=250 dv=0
PairPos2: "'kern' Horizontal Kerning in Arabic lookup 0 subtable" uni06A9 dx=0 dy=0 dh=0 dv=0 dx=0 dy=0 dh=250 dv=0
PairPos2: "'kern' Horizontal Kerning in Arabic lookup 0 subtable" uniFB94 dx=0 dy=0 dh=0 dv=0 dx=0 dy=0 dh=250 dv=0
PairPos2: "'kern' Horizontal Kerning in Arabic lookup 0 subtable" uniFBD5 dx=0 dy=0 dh=0 dv=0 dx=0 dy=0 dh=250 dv=0
PairPos2: "'kern' Horizontal Kerning in Arabic lookup 0 subtable" uni06AB.ini dx=0 dy=0 dh=0 dv=0 dx=0 dy=0 dh=250 dv=0
PairPos2: "'kern' Horizontal Kerning in Arabic lookup 0 subtable" uniFB90 dx=0 dy=0 dh=0 dv=0 dx=0 dy=0 dh=250 dv=0
PairPos2: "'kern' Horizontal Kerning in Arabic lookup 0 subtable" uniFEDB dx=0 dy=0 dh=0 dv=0 dx=0 dy=0 dh=250 dv=0
PairPos2: "'kern' Horizontal Kerning in Arabic lookup 0 subtable" uni0671 dx=0 dy=0 dh=0 dv=0 dx=0 dy=0 dh=200 dv=0
PairPos2: "'kern' Horizontal Kerning in Arabic lookup 0 subtable" afii57410 dx=0 dy=0 dh=0 dv=0 dx=0 dy=0 dh=200 dv=0
PairPos2: "'kern' Horizontal Kerning in Arabic lookup 0 subtable" afii57415 dx=0 dy=0 dh=0 dv=0 dx=0 dy=0 dh=50 dv=0
EndChar

StartChar: bracketright
Encoding: 93 93 64
Width: 752
GlyphClass: 2
Flags: W
LayerCount: 2
Fore
SplineSet
-247 -550 m 1,0,-1
 -202 -383 l 1,1,-1
 74 -383 l 1,2,-1
 530 1320 l 1,3,-1
 253 1320 l 1,4,-1
 297 1485 l 1,5,-1
 749 1485 l 1,6,-1
 204 -550 l 1,7,-1
 -247 -550 l 1,0,-1
EndSplineSet
Substitution2: "<17016,16016> Urdu Swash lookup 75 subtable" bracketright
PairPos2: "'kern' Horizontal Kerning in Arabic lookup 0 subtable" afii57509 dx=0 dy=0 dh=0 dv=0 dx=0 dy=0 dh=250 dv=0
PairPos2: "'kern' Horizontal Kerning in Arabic lookup 0 subtable" uni06AB dx=0 dy=0 dh=0 dv=0 dx=0 dy=0 dh=250 dv=0
PairPos2: "'kern' Horizontal Kerning in Arabic lookup 0 subtable" uni06A9 dx=0 dy=0 dh=0 dv=0 dx=0 dy=0 dh=250 dv=0
PairPos2: "'kern' Horizontal Kerning in Arabic lookup 0 subtable" uniFB94 dx=0 dy=0 dh=0 dv=0 dx=0 dy=0 dh=250 dv=0
PairPos2: "'kern' Horizontal Kerning in Arabic lookup 0 subtable" uniFBD5 dx=0 dy=0 dh=0 dv=0 dx=0 dy=0 dh=250 dv=0
PairPos2: "'kern' Horizontal Kerning in Arabic lookup 0 subtable" uni06AB.ini dx=0 dy=0 dh=0 dv=0 dx=0 dy=0 dh=250 dv=0
PairPos2: "'kern' Horizontal Kerning in Arabic lookup 0 subtable" uniFB90 dx=0 dy=0 dh=0 dv=0 dx=0 dy=0 dh=250 dv=0
PairPos2: "'kern' Horizontal Kerning in Arabic lookup 0 subtable" uniFEDB dx=0 dy=0 dh=0 dv=0 dx=0 dy=0 dh=250 dv=0
PairPos2: "'kern' Horizontal Kerning in Arabic lookup 0 subtable" uni0671 dx=0 dy=0 dh=0 dv=0 dx=0 dy=0 dh=200 dv=0
PairPos2: "'kern' Horizontal Kerning in Arabic lookup 0 subtable" afii57410 dx=0 dy=0 dh=0 dv=0 dx=0 dy=0 dh=200 dv=0
PairPos2: "'kern' Horizontal Kerning in Arabic lookup 0 subtable" afii57415 dx=0 dy=0 dh=0 dv=0 dx=0 dy=0 dh=50 dv=0
EndChar

StartChar: asciicircum
Encoding: 94 94 65
Width: 1190
GlyphClass: 2
Flags: W
LayerCount: 2
Fore
SplineSet
802 1415 m 1,0,-1
 973 525 l 1,1,-1
 796 525 l 1,2,-1
 700 1095 l 1,3,-1
 674 1095 l 1,4,5
 662 1078 662 1078 631 1034 c 128,-1,6
 600 990 600 990 560 932.5 c 128,-1,7
 520 875 520 875 474.5 810.5 c 128,-1,8
 429 746 429 746 389 688.5 c 128,-1,9
 349 631 349 631 318 586.5 c 128,-1,10
 287 542 287 542 275 525 c 1,11,-1
 97 525 l 1,12,-1
 745 1415 l 1,13,-1
 802 1415 l 1,0,-1
EndSplineSet
Substitution2: "<17016,16016> Urdu Swash lookup 75 subtable" asciicircum
PairPos2: "'kern' Horizontal Kerning in Arabic lookup 0 subtable" afii57509 dx=0 dy=0 dh=0 dv=0 dx=0 dy=0 dh=250 dv=0
PairPos2: "'kern' Horizontal Kerning in Arabic lookup 0 subtable" uni06AB dx=0 dy=0 dh=0 dv=0 dx=0 dy=0 dh=250 dv=0
PairPos2: "'kern' Horizontal Kerning in Arabic lookup 0 subtable" uni06A9 dx=0 dy=0 dh=0 dv=0 dx=0 dy=0 dh=250 dv=0
PairPos2: "'kern' Horizontal Kerning in Arabic lookup 0 subtable" uniFB94 dx=0 dy=0 dh=0 dv=0 dx=0 dy=0 dh=250 dv=0
PairPos2: "'kern' Horizontal Kerning in Arabic lookup 0 subtable" uniFBD5 dx=0 dy=0 dh=0 dv=0 dx=0 dy=0 dh=250 dv=0
PairPos2: "'kern' Horizontal Kerning in Arabic lookup 0 subtable" uni06AB.ini dx=0 dy=0 dh=0 dv=0 dx=0 dy=0 dh=250 dv=0
PairPos2: "'kern' Horizontal Kerning in Arabic lookup 0 subtable" uniFB90 dx=0 dy=0 dh=0 dv=0 dx=0 dy=0 dh=250 dv=0
PairPos2: "'kern' Horizontal Kerning in Arabic lookup 0 subtable" uniFEDB dx=0 dy=0 dh=0 dv=0 dx=0 dy=0 dh=250 dv=0
PairPos2: "'kern' Horizontal Kerning in Arabic lookup 0 subtable" uni0671 dx=0 dy=0 dh=0 dv=0 dx=0 dy=0 dh=200 dv=0
PairPos2: "'kern' Horizontal Kerning in Arabic lookup 0 subtable" afii57410 dx=0 dy=0 dh=0 dv=0 dx=0 dy=0 dh=200 dv=0
PairPos2: "'kern' Horizontal Kerning in Arabic lookup 0 subtable" afii57415 dx=0 dy=0 dh=0 dv=0 dx=0 dy=0 dh=50 dv=0
EndChar

StartChar: underscore
Encoding: 95 95 66
Width: 1024
GlyphClass: 2
Flags: W
LayerCount: 2
Fore
SplineSet
-259 -275 m 1,0,-1
 -221 -134 l 1,1,-1
 773 -134 l 1,2,-1
 735 -275 l 1,3,-1
 -259 -275 l 1,0,-1
EndSplineSet
Substitution2: "<17016,16016> Urdu Swash lookup 75 subtable" underscore
PairPos2: "'kern' Horizontal Kerning in Arabic lookup 0 subtable" afii57509 dx=0 dy=0 dh=0 dv=0 dx=0 dy=0 dh=250 dv=0
PairPos2: "'kern' Horizontal Kerning in Arabic lookup 0 subtable" uni06AB dx=0 dy=0 dh=0 dv=0 dx=0 dy=0 dh=250 dv=0
PairPos2: "'kern' Horizontal Kerning in Arabic lookup 0 subtable" uni06A9 dx=0 dy=0 dh=0 dv=0 dx=0 dy=0 dh=250 dv=0
PairPos2: "'kern' Horizontal Kerning in Arabic lookup 0 subtable" uniFB94 dx=0 dy=0 dh=0 dv=0 dx=0 dy=0 dh=250 dv=0
PairPos2: "'kern' Horizontal Kerning in Arabic lookup 0 subtable" uniFBD5 dx=0 dy=0 dh=0 dv=0 dx=0 dy=0 dh=250 dv=0
PairPos2: "'kern' Horizontal Kerning in Arabic lookup 0 subtable" uni06AB.ini dx=0 dy=0 dh=0 dv=0 dx=0 dy=0 dh=250 dv=0
PairPos2: "'kern' Horizontal Kerning in Arabic lookup 0 subtable" uniFB90 dx=0 dy=0 dh=0 dv=0 dx=0 dy=0 dh=250 dv=0
PairPos2: "'kern' Horizontal Kerning in Arabic lookup 0 subtable" uniFEDB dx=0 dy=0 dh=0 dv=0 dx=0 dy=0 dh=250 dv=0
PairPos2: "'kern' Horizontal Kerning in Arabic lookup 0 subtable" uni0671 dx=0 dy=0 dh=0 dv=0 dx=0 dy=0 dh=200 dv=0
PairPos2: "'kern' Horizontal Kerning in Arabic lookup 0 subtable" afii57410 dx=0 dy=0 dh=0 dv=0 dx=0 dy=0 dh=200 dv=0
PairPos2: "'kern' Horizontal Kerning in Arabic lookup 0 subtable" afii57415 dx=0 dy=0 dh=0 dv=0 dx=0 dy=0 dh=50 dv=0
EndChar

StartChar: grave
Encoding: 96 96 67
Width: 682
GlyphClass: 2
Flags: W
LayerCount: 2
Fore
SplineSet
302 1460 m 0,0,1
 331 1460 331 1460 352.5 1444.5 c 128,-1,2
 374 1429 374 1429 390 1403 c 0,3,4
 395 1395 395 1395 410 1370 c 128,-1,5
 425 1345 425 1345 445 1311.5 c 128,-1,6
 465 1278 465 1278 487.5 1240.5 c 128,-1,7
 510 1203 510 1203 530 1169.5 c 128,-1,8
 550 1136 550 1136 564.5 1111 c 128,-1,9
 579 1086 579 1086 584 1078 c 1,10,-1
 485 1078 l 1,11,-1
 243 1259 l 2,12,13
 228 1270 228 1270 216.5 1281 c 128,-1,14
 205 1292 205 1292 198.5 1304.5 c 128,-1,15
 192 1317 192 1317 191 1332.5 c 128,-1,16
 190 1348 190 1348 196 1369 c 0,17,18
 207 1411 207 1411 238 1435.5 c 128,-1,19
 269 1460 269 1460 302 1460 c 0,0,1
EndSplineSet
Substitution2: "<17016,16016> Urdu Swash lookup 75 subtable" grave
PairPos2: "'kern' Horizontal Kerning in Arabic lookup 0 subtable" afii57509 dx=0 dy=0 dh=0 dv=0 dx=0 dy=0 dh=250 dv=0
PairPos2: "'kern' Horizontal Kerning in Arabic lookup 0 subtable" uni06AB dx=0 dy=0 dh=0 dv=0 dx=0 dy=0 dh=250 dv=0
PairPos2: "'kern' Horizontal Kerning in Arabic lookup 0 subtable" uni06A9 dx=0 dy=0 dh=0 dv=0 dx=0 dy=0 dh=250 dv=0
PairPos2: "'kern' Horizontal Kerning in Arabic lookup 0 subtable" uniFB94 dx=0 dy=0 dh=0 dv=0 dx=0 dy=0 dh=250 dv=0
PairPos2: "'kern' Horizontal Kerning in Arabic lookup 0 subtable" uniFBD5 dx=0 dy=0 dh=0 dv=0 dx=0 dy=0 dh=250 dv=0
PairPos2: "'kern' Horizontal Kerning in Arabic lookup 0 subtable" uni06AB.ini dx=0 dy=0 dh=0 dv=0 dx=0 dy=0 dh=250 dv=0
PairPos2: "'kern' Horizontal Kerning in Arabic lookup 0 subtable" uniFB90 dx=0 dy=0 dh=0 dv=0 dx=0 dy=0 dh=250 dv=0
PairPos2: "'kern' Horizontal Kerning in Arabic lookup 0 subtable" uniFEDB dx=0 dy=0 dh=0 dv=0 dx=0 dy=0 dh=250 dv=0
PairPos2: "'kern' Horizontal Kerning in Arabic lookup 0 subtable" uni0671 dx=0 dy=0 dh=0 dv=0 dx=0 dy=0 dh=200 dv=0
PairPos2: "'kern' Horizontal Kerning in Arabic lookup 0 subtable" afii57410 dx=0 dy=0 dh=0 dv=0 dx=0 dy=0 dh=200 dv=0
PairPos2: "'kern' Horizontal Kerning in Arabic lookup 0 subtable" afii57415 dx=0 dy=0 dh=0 dv=0 dx=0 dy=0 dh=50 dv=0
EndChar

StartChar: a
Encoding: 97 97 68
Width: 1024
GlyphClass: 2
Flags: W
LayerCount: 2
Fore
SplineSet
388 149 m 0,0,1
 406 160 406 160 424.5 174 c 128,-1,2
 443 188 443 188 462 205 c 1,3,-1
 466 205 l 1,4,-1
 546 501 l 1,5,-1
 529 501 l 1,6,7
 389 467 389 467 307 400.5 c 128,-1,8
 225 334 225 334 204 254 c 0,9,10
 195 221 195 221 197.5 196 c 128,-1,11
 200 171 200 171 211 153.5 c 128,-1,12
 222 136 222 136 239.5 127.5 c 128,-1,13
 257 119 257 119 279 119 c 0,14,15
 337 119 337 119 388 149 c 0,0,1
608 722 m 2,16,17
 620 767 620 767 619 800.5 c 128,-1,18
 618 834 618 834 601.5 855.5 c 128,-1,19
 585 877 585 877 552 888 c 128,-1,20
 519 899 519 899 466 899 c 0,21,22
 436 899 436 899 409 893.5 c 128,-1,23
 382 888 382 888 361 878.5 c 128,-1,24
 340 869 340 869 326 856 c 128,-1,25
 312 843 312 843 308 828 c 0,26,27
 306 819 306 819 310 808.5 c 128,-1,28
 314 798 314 798 323 784 c 0,29,30
 334 767 334 767 336.5 744.5 c 128,-1,31
 339 722 339 722 332 696 c 0,32,33
 324 667 324 667 308.5 644 c 128,-1,34
 293 621 293 621 273.5 605.5 c 128,-1,35
 254 590 254 590 231 582 c 128,-1,36
 208 574 208 574 185 574 c 0,37,38
 131 574 131 574 103.5 609 c 128,-1,39
 76 644 76 644 94 711 c 0,40,41
 111 776 111 776 155 824 c 128,-1,42
 199 872 199 872 259 904 c 128,-1,43
 319 936 319 936 390 952 c 128,-1,44
 461 968 461 968 532 968 c 0,45,46
 701 968 701 968 799 901 c 0,47,48
 890 839 890 839 840 650 c 2,49,-1
 707 155 l 2,50,51
 702 134 702 134 713 118.5 c 128,-1,52
 724 103 724 103 744 103 c 0,53,54
 761 103 761 103 771.5 105.5 c 128,-1,55
 782 108 782 108 798 120 c 1,56,-1
 812 87 l 1,57,58
 743 24 743 24 680 -2.5 c 128,-1,59
 617 -29 617 -29 561 -29 c 0,60,61
 522 -29 522 -29 494.5 -15 c 128,-1,62
 467 -1 467 -1 453 24 c 0,63,64
 446 36 446 36 444.5 61 c 128,-1,65
 443 86 443 86 445 113 c 1,66,-1
 421 113 l 1,67,68
 330 43 330 43 239 7 c 128,-1,69
 148 -29 148 -29 74 -29 c 256,70,71
 0 -29 0 -29 -61 24 c 0,72,73
 -115 73 -115 73 -83 192 c 0,74,75
 -44 335 -44 335 102 411 c 0,76,77
 258 492 258 492 558 574 c 1,78,-1
 568 574 l 1,79,-1
 608 722 l 2,16,17
EndSplineSet
Substitution2: "<17016,16016> Urdu Swash lookup 75 subtable" a
PairPos2: "'kern' Horizontal Kerning in Arabic lookup 0 subtable" afii57509 dx=0 dy=0 dh=0 dv=0 dx=0 dy=0 dh=250 dv=0
PairPos2: "'kern' Horizontal Kerning in Arabic lookup 0 subtable" uni06AB dx=0 dy=0 dh=0 dv=0 dx=0 dy=0 dh=250 dv=0
PairPos2: "'kern' Horizontal Kerning in Arabic lookup 0 subtable" uni06A9 dx=0 dy=0 dh=0 dv=0 dx=0 dy=0 dh=250 dv=0
PairPos2: "'kern' Horizontal Kerning in Arabic lookup 0 subtable" uniFB94 dx=0 dy=0 dh=0 dv=0 dx=0 dy=0 dh=250 dv=0
PairPos2: "'kern' Horizontal Kerning in Arabic lookup 0 subtable" uniFBD5 dx=0 dy=0 dh=0 dv=0 dx=0 dy=0 dh=250 dv=0
PairPos2: "'kern' Horizontal Kerning in Arabic lookup 0 subtable" uni06AB.ini dx=0 dy=0 dh=0 dv=0 dx=0 dy=0 dh=250 dv=0
PairPos2: "'kern' Horizontal Kerning in Arabic lookup 0 subtable" uniFB90 dx=0 dy=0 dh=0 dv=0 dx=0 dy=0 dh=250 dv=0
PairPos2: "'kern' Horizontal Kerning in Arabic lookup 0 subtable" uniFEDB dx=0 dy=0 dh=0 dv=0 dx=0 dy=0 dh=250 dv=0
PairPos2: "'kern' Horizontal Kerning in Arabic lookup 0 subtable" uni0671 dx=0 dy=0 dh=0 dv=0 dx=0 dy=0 dh=200 dv=0
PairPos2: "'kern' Horizontal Kerning in Arabic lookup 0 subtable" afii57410 dx=0 dy=0 dh=0 dv=0 dx=0 dy=0 dh=200 dv=0
PairPos2: "'kern' Horizontal Kerning in Arabic lookup 0 subtable" afii57415 dx=0 dy=0 dh=0 dv=0 dx=0 dy=0 dh=50 dv=0
EndChar

StartChar: b
Encoding: 98 98 69
Width: 1139
GlyphClass: 2
Flags: W
LayerCount: 2
Fore
SplineSet
268 108 m 0,0,1
 285 39 285 39 382 39 c 0,2,3
 440 39 440 39 488.5 68 c 128,-1,4
 537 97 537 97 572 149 c 0,5,6
 589 177 589 177 607 213 c 128,-1,7
 625 249 625 249 642 290 c 128,-1,8
 659 331 659 331 674 375 c 128,-1,9
 689 419 689 419 701 462 c 0,10,11
 743 621 743 621 736 739 c 0,12,13
 728 854 728 854 603 854 c 0,14,15
 526 854 526 854 473 805 c 0,16,17
 418 753 418 753 413 737 c 2,18,-1
 269 200 l 2,19,20
 264 174 264 174 263.5 151 c 128,-1,21
 263 128 263 128 268 108 c 0,0,1
586 1384 m 1,22,-1
 444 854 l 1,23,-1
 467 854 l 1,24,25
 511 888 511 888 547 910 c 128,-1,26
 583 932 583 932 615.5 945 c 128,-1,27
 648 958 648 958 678 963 c 128,-1,28
 708 968 708 968 740 968 c 0,29,30
 820 968 820 968 878 932.5 c 128,-1,31
 936 897 936 897 968.5 834 c 128,-1,32
 1001 771 1001 771 1006 685.5 c 128,-1,33
 1011 600 1011 600 984 500 c 0,34,35
 950 373 950 373 889.5 274 c 128,-1,36
 829 175 829 175 748 108 c 0,37,38
 666 45 666 45 573 8 c 128,-1,39
 480 -29 480 -29 388 -29 c 0,40,41
 312 -29 312 -29 259 3.5 c 128,-1,42
 206 36 206 36 166 87 c 1,43,-1
 149 87 l 1,44,45
 102 58 102 58 53.5 28.5 c 128,-1,46
 5 -1 5 -1 -43 -29 c 1,47,-1
 -50 -29 l 1,48,-1
 283 1215 l 2,49,50
 290 1241 290 1241 291 1260.5 c 128,-1,51
 292 1280 292 1280 284 1294 c 128,-1,52
 276 1308 276 1308 257 1316.5 c 128,-1,53
 238 1325 238 1325 205 1330 c 1,54,-1
 219 1384 l 1,55,-1
 586 1384 l 1,22,-1
EndSplineSet
Substitution2: "<17016,16016> Urdu Swash lookup 75 subtable" b
PairPos2: "'kern' Horizontal Kerning in Arabic lookup 0 subtable" afii57509 dx=0 dy=0 dh=0 dv=0 dx=0 dy=0 dh=250 dv=0
PairPos2: "'kern' Horizontal Kerning in Arabic lookup 0 subtable" uni06AB dx=0 dy=0 dh=0 dv=0 dx=0 dy=0 dh=250 dv=0
PairPos2: "'kern' Horizontal Kerning in Arabic lookup 0 subtable" uni06A9 dx=0 dy=0 dh=0 dv=0 dx=0 dy=0 dh=250 dv=0
PairPos2: "'kern' Horizontal Kerning in Arabic lookup 0 subtable" uniFB94 dx=0 dy=0 dh=0 dv=0 dx=0 dy=0 dh=250 dv=0
PairPos2: "'kern' Horizontal Kerning in Arabic lookup 0 subtable" uniFBD5 dx=0 dy=0 dh=0 dv=0 dx=0 dy=0 dh=250 dv=0
PairPos2: "'kern' Horizontal Kerning in Arabic lookup 0 subtable" uni06AB.ini dx=0 dy=0 dh=0 dv=0 dx=0 dy=0 dh=250 dv=0
PairPos2: "'kern' Horizontal Kerning in Arabic lookup 0 subtable" uniFB90 dx=0 dy=0 dh=0 dv=0 dx=0 dy=0 dh=250 dv=0
PairPos2: "'kern' Horizontal Kerning in Arabic lookup 0 subtable" uniFEDB dx=0 dy=0 dh=0 dv=0 dx=0 dy=0 dh=250 dv=0
PairPos2: "'kern' Horizontal Kerning in Arabic lookup 0 subtable" uni0671 dx=0 dy=0 dh=0 dv=0 dx=0 dy=0 dh=200 dv=0
PairPos2: "'kern' Horizontal Kerning in Arabic lookup 0 subtable" afii57410 dx=0 dy=0 dh=0 dv=0 dx=0 dy=0 dh=200 dv=0
PairPos2: "'kern' Horizontal Kerning in Arabic lookup 0 subtable" afii57415 dx=0 dy=0 dh=0 dv=0 dx=0 dy=0 dh=50 dv=0
EndChar

StartChar: c
Encoding: 99 99 70
AltUni2: 00217d.ffffffff.0
Width: 909
GlyphClass: 2
Flags: W
LayerCount: 2
Fore
SplineSet
830 744 m 0,0,1
 822 713 822 713 805 688.5 c 128,-1,2
 788 664 788 664 766 647 c 128,-1,3
 744 630 744 630 720.5 621 c 128,-1,4
 697 612 697 612 675 612 c 0,5,6
 641 612 641 612 618 630 c 1,7,-1
 619 630 l 1,8,9
 578 656 578 656 603 747 c 2,10,-1
 605 755 l 2,11,12
 608 766 608 766 612.5 780 c 128,-1,13
 617 794 617 794 622 811 c 0,14,15
 634 856 634 856 614.5 880 c 128,-1,16
 595 904 595 904 549 904 c 0,17,18
 441 904 441 904 373 800 c 0,19,20
 303 693 303 693 269 561 c 0,21,22
 243 467 243 467 241.5 387.5 c 128,-1,23
 240 308 240 308 260 241 c 0,24,25
 302 111 302 111 442 111 c 0,26,27
 520 111 520 111 579.5 138.5 c 128,-1,28
 639 166 639 166 694 214 c 1,29,-1
 714 189 l 1,30,31
 641 115 641 115 571 67.5 c 128,-1,32
 501 20 501 20 432 -4 c 0,33,34
 356 -31 356 -31 279 -31 c 0,35,36
 188 -31 188 -31 119 5.5 c 128,-1,37
 50 42 50 42 9 107 c 128,-1,38
 -32 172 -32 172 -41.5 260.5 c 128,-1,39
 -51 349 -51 349 -23 454 c 0,40,41
 7 566 7 566 67.5 660.5 c 128,-1,42
 128 755 128 755 209 824 c 128,-1,43
 290 893 290 893 387 931.5 c 128,-1,44
 484 970 484 970 586 970 c 0,45,46
 642 970 642 970 692.5 955 c 128,-1,47
 743 940 743 940 778.5 911 c 128,-1,48
 814 882 814 882 829 840 c 128,-1,49
 844 798 844 798 830 744 c 0,0,1
EndSplineSet
Substitution2: "<17016,16016> Urdu Swash lookup 75 subtable" c
PairPos2: "'kern' Horizontal Kerning in Arabic lookup 0 subtable" afii57509 dx=0 dy=0 dh=0 dv=0 dx=0 dy=0 dh=250 dv=0
PairPos2: "'kern' Horizontal Kerning in Arabic lookup 0 subtable" uni06AB dx=0 dy=0 dh=0 dv=0 dx=0 dy=0 dh=250 dv=0
PairPos2: "'kern' Horizontal Kerning in Arabic lookup 0 subtable" uni06A9 dx=0 dy=0 dh=0 dv=0 dx=0 dy=0 dh=250 dv=0
PairPos2: "'kern' Horizontal Kerning in Arabic lookup 0 subtable" uniFB94 dx=0 dy=0 dh=0 dv=0 dx=0 dy=0 dh=250 dv=0
PairPos2: "'kern' Horizontal Kerning in Arabic lookup 0 subtable" uniFBD5 dx=0 dy=0 dh=0 dv=0 dx=0 dy=0 dh=250 dv=0
PairPos2: "'kern' Horizontal Kerning in Arabic lookup 0 subtable" uni06AB.ini dx=0 dy=0 dh=0 dv=0 dx=0 dy=0 dh=250 dv=0
PairPos2: "'kern' Horizontal Kerning in Arabic lookup 0 subtable" uniFB90 dx=0 dy=0 dh=0 dv=0 dx=0 dy=0 dh=250 dv=0
PairPos2: "'kern' Horizontal Kerning in Arabic lookup 0 subtable" uniFEDB dx=0 dy=0 dh=0 dv=0 dx=0 dy=0 dh=250 dv=0
PairPos2: "'kern' Horizontal Kerning in Arabic lookup 0 subtable" uni0671 dx=0 dy=0 dh=0 dv=0 dx=0 dy=0 dh=200 dv=0
PairPos2: "'kern' Horizontal Kerning in Arabic lookup 0 subtable" afii57410 dx=0 dy=0 dh=0 dv=0 dx=0 dy=0 dh=200 dv=0
PairPos2: "'kern' Horizontal Kerning in Arabic lookup 0 subtable" afii57415 dx=0 dy=0 dh=0 dv=0 dx=0 dy=0 dh=50 dv=0
EndChar

StartChar: d
Encoding: 100 100 71
AltUni2: 00217e.ffffffff.0
Width: 1139
GlyphClass: 2
Flags: W
LayerCount: 2
Fore
SplineSet
694 727 m 2,0,1
 700 746 700 746 665 800 c 0,2,3
 634 849 634 849 549 849 c 0,4,5
 500 849 500 849 459.5 827.5 c 128,-1,6
 419 806 419 806 385 760 c 128,-1,7
 351 714 351 714 321.5 642 c 128,-1,8
 292 570 292 570 265 470 c 0,9,10
 245 397 245 397 234.5 335 c 128,-1,11
 224 273 224 273 221 233 c 1,12,13
 223 202 223 202 231 176 c 128,-1,14
 239 150 239 150 254 130.5 c 128,-1,15
 269 111 269 111 290 100 c 128,-1,16
 311 89 311 89 338 89 c 0,17,18
 414 89 414 89 482 148 c 0,19,20
 556 212 556 212 561 230 c 2,21,-1
 694 727 l 2,0,1
503 968 m 0,22,23
 538 968 538 968 571 957 c 128,-1,24
 604 946 604 946 629 928 c 0,25,26
 642 919 642 919 661.5 895.5 c 128,-1,27
 681 872 681 872 701 842 c 1,28,-1
 725 842 l 1,29,-1
 825 1215 l 2,30,31
 834 1247 834 1247 834 1268.5 c 128,-1,32
 834 1290 834 1290 821 1303 c 128,-1,33
 808 1316 808 1316 779.5 1322 c 128,-1,34
 751 1328 751 1328 702 1331 c 1,35,-1
 716 1384 l 1,36,-1
 1129 1384 l 1,37,-1
 814 207 l 2,38,39
 807 181 807 181 806 161 c 128,-1,40
 805 141 805 141 813.5 126 c 128,-1,41
 822 111 822 111 843 102 c 128,-1,42
 864 93 864 93 900 90 c 1,43,-1
 886 39 l 1,44,45
 805 31 805 31 751 25 c 128,-1,46
 697 19 697 19 670 14 c 0,47,48
 641 9 641 9 599 -0.5 c 128,-1,49
 557 -10 557 -10 500 -24 c 1,50,-1
 535 106 l 1,51,-1
 511 106 l 1,52,53
 462 67 462 67 422.5 41 c 128,-1,54
 383 15 383 15 348.5 -0.5 c 128,-1,55
 314 -16 314 -16 281.5 -22.5 c 128,-1,56
 249 -29 249 -29 215 -29 c 0,57,58
 149 -29 149 -29 93 5.5 c 128,-1,59
 37 40 37 40 -1 98 c 1,60,61
 -36 160 -36 160 -40.5 246.5 c 128,-1,62
 -45 333 -45 333 -16 443 c 0,63,64
 17 567 17 567 71.5 663 c 128,-1,65
 126 759 126 759 199 827 c 0,66,67
 272 891 272 891 351.5 929.5 c 128,-1,68
 431 968 431 968 503 968 c 0,22,23
EndSplineSet
Substitution2: "<17016,16016> Urdu Swash lookup 75 subtable" d
PairPos2: "'kern' Horizontal Kerning in Arabic lookup 0 subtable" afii57509 dx=0 dy=0 dh=0 dv=0 dx=0 dy=0 dh=250 dv=0
PairPos2: "'kern' Horizontal Kerning in Arabic lookup 0 subtable" uni06AB dx=0 dy=0 dh=0 dv=0 dx=0 dy=0 dh=250 dv=0
PairPos2: "'kern' Horizontal Kerning in Arabic lookup 0 subtable" uni06A9 dx=0 dy=0 dh=0 dv=0 dx=0 dy=0 dh=250 dv=0
PairPos2: "'kern' Horizontal Kerning in Arabic lookup 0 subtable" uniFB94 dx=0 dy=0 dh=0 dv=0 dx=0 dy=0 dh=250 dv=0
PairPos2: "'kern' Horizontal Kerning in Arabic lookup 0 subtable" uniFBD5 dx=0 dy=0 dh=0 dv=0 dx=0 dy=0 dh=250 dv=0
PairPos2: "'kern' Horizontal Kerning in Arabic lookup 0 subtable" uni06AB.ini dx=0 dy=0 dh=0 dv=0 dx=0 dy=0 dh=250 dv=0
PairPos2: "'kern' Horizontal Kerning in Arabic lookup 0 subtable" uniFB90 dx=0 dy=0 dh=0 dv=0 dx=0 dy=0 dh=250 dv=0
PairPos2: "'kern' Horizontal Kerning in Arabic lookup 0 subtable" uniFEDB dx=0 dy=0 dh=0 dv=0 dx=0 dy=0 dh=250 dv=0
PairPos2: "'kern' Horizontal Kerning in Arabic lookup 0 subtable" uni0671 dx=0 dy=0 dh=0 dv=0 dx=0 dy=0 dh=200 dv=0
PairPos2: "'kern' Horizontal Kerning in Arabic lookup 0 subtable" afii57410 dx=0 dy=0 dh=0 dv=0 dx=0 dy=0 dh=200 dv=0
PairPos2: "'kern' Horizontal Kerning in Arabic lookup 0 subtable" afii57415 dx=0 dy=0 dh=0 dv=0 dx=0 dy=0 dh=50 dv=0
EndChar

StartChar: e
Encoding: 101 101 72
Width: 909
GlyphClass: 2
Flags: W
LayerCount: 2
Fore
SplineSet
370 820 m 0,0,1
 345 777 345 777 319 714 c 128,-1,2
 293 651 293 651 272 579 c 1,3,-1
 574 579 l 1,4,5
 596 664 596 664 605 728.5 c 128,-1,6
 614 793 614 793 612 831 c 0,7,8
 608 865 608 865 583 883.5 c 128,-1,9
 558 902 558 902 514 902 c 256,10,11
 470 902 470 902 432.5 879.5 c 128,-1,12
 395 857 395 857 370 820 c 0,0,1
532 968 m 0,13,14
 576 968 576 968 617.5 956.5 c 128,-1,15
 659 945 659 945 693.5 920 c 128,-1,16
 728 895 728 895 754 857.5 c 128,-1,17
 780 820 780 820 793 767 c 0,18,19
 798 746 798 746 799 712.5 c 128,-1,20
 800 679 800 679 797.5 641.5 c 128,-1,21
 795 604 795 604 790 567 c 128,-1,22
 785 530 785 530 777 501 c 1,23,-1
 256 501 l 1,24,25
 238 412 238 412 237 341.5 c 128,-1,26
 236 271 236 271 254.5 222.5 c 128,-1,27
 273 174 273 174 313.5 148 c 128,-1,28
 354 122 354 122 418 122 c 0,29,30
 452 122 452 122 484 129.5 c 128,-1,31
 516 137 516 137 548 152.5 c 128,-1,32
 580 168 580 168 615 193 c 128,-1,33
 650 218 650 218 690 252 c 1,34,-1
 717 230 l 1,35,36
 575 69 575 69 441 10 c 0,37,38
 395 -10 395 -10 348 -19.5 c 128,-1,39
 301 -29 301 -29 252 -29 c 0,40,41
 182 -29 182 -29 121.5 2 c 128,-1,42
 61 33 61 33 11 90 c 1,43,44
 -32 148 -32 148 -40.5 245.5 c 128,-1,45
 -49 343 -49 343 -15 470 c 0,46,47
 51 711 51 711 205 837 c 0,48,49
 366 968 366 968 532 968 c 0,13,14
EndSplineSet
Substitution2: "<17016,16016> Urdu Swash lookup 75 subtable" e
PairPos2: "'kern' Horizontal Kerning in Arabic lookup 0 subtable" afii57509 dx=0 dy=0 dh=0 dv=0 dx=0 dy=0 dh=250 dv=0
PairPos2: "'kern' Horizontal Kerning in Arabic lookup 0 subtable" uni06AB dx=0 dy=0 dh=0 dv=0 dx=0 dy=0 dh=250 dv=0
PairPos2: "'kern' Horizontal Kerning in Arabic lookup 0 subtable" uni06A9 dx=0 dy=0 dh=0 dv=0 dx=0 dy=0 dh=250 dv=0
PairPos2: "'kern' Horizontal Kerning in Arabic lookup 0 subtable" uniFB94 dx=0 dy=0 dh=0 dv=0 dx=0 dy=0 dh=250 dv=0
PairPos2: "'kern' Horizontal Kerning in Arabic lookup 0 subtable" uniFBD5 dx=0 dy=0 dh=0 dv=0 dx=0 dy=0 dh=250 dv=0
PairPos2: "'kern' Horizontal Kerning in Arabic lookup 0 subtable" uni06AB.ini dx=0 dy=0 dh=0 dv=0 dx=0 dy=0 dh=250 dv=0
PairPos2: "'kern' Horizontal Kerning in Arabic lookup 0 subtable" uniFB90 dx=0 dy=0 dh=0 dv=0 dx=0 dy=0 dh=250 dv=0
PairPos2: "'kern' Horizontal Kerning in Arabic lookup 0 subtable" uniFEDB dx=0 dy=0 dh=0 dv=0 dx=0 dy=0 dh=250 dv=0
PairPos2: "'kern' Horizontal Kerning in Arabic lookup 0 subtable" uni0671 dx=0 dy=0 dh=0 dv=0 dx=0 dy=0 dh=200 dv=0
PairPos2: "'kern' Horizontal Kerning in Arabic lookup 0 subtable" afii57410 dx=0 dy=0 dh=0 dv=0 dx=0 dy=0 dh=200 dv=0
PairPos2: "'kern' Horizontal Kerning in Arabic lookup 0 subtable" afii57415 dx=0 dy=0 dh=0 dv=0 dx=0 dy=0 dh=50 dv=0
EndChar

StartChar: f
Encoding: 102 102 73
Width: 682
GlyphClass: 2
Flags: W
LayerCount: 2
Fore
SplineSet
-145 52 m 1,0,1
 -78 57 -78 57 -44.5 85 c 128,-1,2
 -11 113 -11 113 6 174 c 2,3,-1
 184 838 l 1,4,-1
 66 838 l 1,5,-1
 91 930 l 1,6,-1
 209 930 l 1,7,-1
 229 1005 l 2,8,9
 256 1108 256 1108 300 1184.5 c 128,-1,10
 344 1261 344 1261 402 1311.5 c 128,-1,11
 460 1362 460 1362 530.5 1387 c 128,-1,12
 601 1412 601 1412 682 1412 c 0,13,14
 734 1412 734 1412 780.5 1399.5 c 128,-1,15
 827 1387 827 1387 859 1361.5 c 128,-1,16
 891 1336 891 1336 904.5 1298 c 128,-1,17
 918 1260 918 1260 904 1209 c 0,18,19
 889 1151 889 1151 848.5 1116 c 128,-1,20
 808 1081 808 1081 754 1081 c 0,21,22
 736 1081 736 1081 719.5 1088 c 128,-1,23
 703 1095 703 1095 691.5 1108.5 c 128,-1,24
 680 1122 680 1122 676 1143 c 128,-1,25
 672 1164 672 1164 679 1191 c 0,26,27
 684 1210 684 1210 696.5 1230.5 c 128,-1,28
 709 1251 709 1251 721.5 1267.5 c 128,-1,29
 734 1284 734 1284 744.5 1295.5 c 128,-1,30
 755 1307 755 1307 755 1308 c 0,31,32
 758 1320 758 1320 754 1327.5 c 128,-1,33
 750 1335 750 1335 741 1339 c 128,-1,34
 732 1343 732 1343 719.5 1344.5 c 128,-1,35
 707 1346 707 1346 694 1346 c 0,36,37
 663 1346 663 1346 638.5 1338.5 c 128,-1,38
 614 1331 614 1331 595 1313 c 128,-1,39
 576 1295 576 1295 561.5 1265.5 c 128,-1,40
 547 1236 547 1236 535 1193 c 2,41,-1
 465 930 l 1,42,-1
 643 930 l 1,43,-1
 618 838 l 1,44,-1
 440 838 l 1,45,-1
 272 211 l 2,46,47
 259 162 259 162 260 129 c 128,-1,48
 261 96 261 96 273 82 c 0,49,50
 287 71 287 71 318 63.5 c 128,-1,51
 349 56 349 56 395 52 c 1,52,-1
 382 0 l 1,53,-1
 -158 0 l 1,54,-1
 -145 52 l 1,0,1
EndSplineSet
Substitution2: "<17016,16016> Urdu Swash lookup 75 subtable" f
PairPos2: "'kern' Horizontal Kerning in Arabic lookup 0 subtable" afii57509 dx=0 dy=0 dh=0 dv=0 dx=0 dy=0 dh=250 dv=0
PairPos2: "'kern' Horizontal Kerning in Arabic lookup 0 subtable" uni06AB dx=0 dy=0 dh=0 dv=0 dx=0 dy=0 dh=250 dv=0
PairPos2: "'kern' Horizontal Kerning in Arabic lookup 0 subtable" uni06A9 dx=0 dy=0 dh=0 dv=0 dx=0 dy=0 dh=250 dv=0
PairPos2: "'kern' Horizontal Kerning in Arabic lookup 0 subtable" uniFB94 dx=0 dy=0 dh=0 dv=0 dx=0 dy=0 dh=250 dv=0
PairPos2: "'kern' Horizontal Kerning in Arabic lookup 0 subtable" uniFBD5 dx=0 dy=0 dh=0 dv=0 dx=0 dy=0 dh=250 dv=0
PairPos2: "'kern' Horizontal Kerning in Arabic lookup 0 subtable" uni06AB.ini dx=0 dy=0 dh=0 dv=0 dx=0 dy=0 dh=250 dv=0
PairPos2: "'kern' Horizontal Kerning in Arabic lookup 0 subtable" uniFB90 dx=0 dy=0 dh=0 dv=0 dx=0 dy=0 dh=250 dv=0
PairPos2: "'kern' Horizontal Kerning in Arabic lookup 0 subtable" uniFEDB dx=0 dy=0 dh=0 dv=0 dx=0 dy=0 dh=250 dv=0
PairPos2: "'kern' Horizontal Kerning in Arabic lookup 0 subtable" uni0671 dx=0 dy=0 dh=0 dv=0 dx=0 dy=0 dh=200 dv=0
PairPos2: "'kern' Horizontal Kerning in Arabic lookup 0 subtable" afii57410 dx=0 dy=0 dh=0 dv=0 dx=0 dy=0 dh=200 dv=0
PairPos2: "'kern' Horizontal Kerning in Arabic lookup 0 subtable" afii57415 dx=0 dy=0 dh=0 dv=0 dx=0 dy=0 dh=50 dv=0
EndChar

